<?xml version="1.0" encoding="utf-8"?>
<!-- Generator: Adobe Illustrator 16.0.0, SVG Export Plug-In . SVG Version: 6.00 Build 0)  -->
<!DOCTYPE svg PUBLIC "-//W3C//DTD SVG 1.1//EN" "http://www.w3.org/Graphics/SVG/1.1/DTD/svg11.dtd">
<svg version="1.1" id="Layer_1" xmlns="http://www.w3.org/2000/svg" xmlns:xlink="http://www.w3.org/1999/xlink" x="0px" y="0px"
	 width="50px" height="50px" viewBox="0 0 50 50" enable-background="new 0 0 50 50" xml:space="preserve">
<rect fill-rule="evenodd" clip-rule="evenodd" fill="#305BAD" width="50" height="50"/>
<g>
	<path fill-rule="evenodd" clip-rule="evenodd" fill="#FFFFFF" d="M26.678,50c0.012-0.145,0.033-0.29,0.033-0.435
		c0.002-6.149,0.002-12.298,0.002-18.446c0-0.133,0-0.265,0-0.456c-2.174,0-4.321,0-6.492,0c0-2.544,0-5.026,0-7.578
		c0.158,0,0.312,0,0.465,0c1.837,0,3.674,0,5.51,0c0.515,0,0.513-0.001,0.517-0.532c0.012-2.023-0.038-4.049,0.055-6.067
		c0.13-2.787,1.109-5.215,3.359-6.998c1.327-1.052,2.87-1.615,4.535-1.814c2.434-0.29,4.861-0.061,7.288,0.147
		c0.231,0.02,0.286,0.125,0.286,0.331c-0.004,2.037-0.007,4.073,0.002,6.109c0.002,0.304-0.14,0.343-0.391,0.344
		c-1.371,0.002-2.742-0.002-4.112,0.037c-0.459,0.013-0.93,0.102-1.37,0.236c-0.946,0.289-1.521,0.963-1.708,1.925
		c-0.1,0.506-0.135,1.03-0.141,1.546c-0.02,1.438,0.002,2.875-0.016,4.313c-0.003,0.327,0.086,0.431,0.422,0.429
		c2.196-0.014,4.393,0.002,6.588-0.015c0.39-0.003,0.47,0.118,0.42,0.484c-0.299,2.202-0.588,4.404-0.856,6.609
		c-0.044,0.366-0.154,0.491-0.534,0.486c-1.836-0.019-3.673-0.008-5.509-0.008c-0.158,0-0.314,0-0.527,0c0,6.479,0,12.917,0,19.354
		C31.896,50,29.286,50,26.678,50z"/>
</g>
</svg>
