<?xml version="1.0" encoding="utf-8"?>
<!-- Generator: Adobe Illustrator 16.0.0, SVG Export Plug-In . SVG Version: 6.00 Build 0)  -->
<!DOCTYPE svg PUBLIC "-//W3C//DTD SVG 1.1//EN" "http://www.w3.org/Graphics/SVG/1.1/DTD/svg11.dtd">
<svg version="1.1" id="Layer_1" xmlns="http://www.w3.org/2000/svg" xmlns:xlink="http://www.w3.org/1999/xlink" x="0px" y="0px"
	 width="200px" height="165.25px" viewBox="0 0 200 165.25" enable-background="new 0 0 200 165.25" xml:space="preserve">
<path fill="#D1D3D4" d="M25.667,85.916H9.384c-0.552,0-1,0.448-1,1v4c0,0.552,0.448,1,1,1h16.283c0.552,0,1-0.448,1-1v-4
	C26.667,86.364,26.219,85.916,25.667,85.916z"/>
<path fill="#D1D3D4" d="M51.938,85.916H31.696c-0.552,0-1,0.448-1,1v4c0,0.552,0.448,1,1,1h20.241c0.552,0,1-0.448,1-1v-4
	C52.938,86.364,52.49,85.916,51.938,85.916z"/>
<path fill="#D1D3D4" d="M70.357,85.916H58.134c-0.552,0-1,0.448-1,1v4c0,0.552,0.448,1,1,1h12.223c0.552,0,1-0.448,1-1v-4
	C71.357,86.364,70.909,85.916,70.357,85.916z"/>
<path fill="#D1D3D4" d="M84.875,85.916h-8.616c-0.552,0-1,0.448-1,1v4c0,0.552,0.448,1,1,1h8.616c0.552,0,1-0.448,1-1v-4
	C85.875,86.364,85.427,85.916,84.875,85.916z"/>
<g>
	<g>
		<path fill="#682F8E" d="M68.77,103.992c0-0.408-0.332-0.74-0.741-0.74H16.502c-0.41,0-0.742,0.332-0.742,0.74l0,0
			c0,0.412,0.332,0.742,0.742,0.742h51.526C68.438,104.734,68.77,104.404,68.77,103.992L68.77,103.992z"/>
		<path fill="#682F8E" d="M81.376,106.83c0-0.184-0.15-0.334-0.334-0.334H16.095c-0.185,0-0.334,0.15-0.334,0.334l0,0
			c0,0.186,0.149,0.334,0.334,0.334h64.947C81.227,107.164,81.376,107.016,81.376,106.83L81.376,106.83z"/>
		<path fill="#682F8E" d="M75.836,108.418c0-0.186-0.15-0.336-0.334-0.336H16.095c-0.185,0-0.334,0.15-0.334,0.336l0,0
			c0,0.184,0.149,0.334,0.334,0.334h59.406C75.686,108.752,75.836,108.602,75.836,108.418L75.836,108.418z"/>
		<circle fill="#682F8E" cx="11.134" cy="106.002" r="2.75"/>
	</g>
	<g>
		<path fill="#682F8E" d="M160.387,103.992c0-0.408-0.332-0.74-0.742-0.74h-51.525c-0.41,0-0.742,0.332-0.742,0.74l0,0
			c0,0.412,0.332,0.742,0.742,0.742h51.525C160.055,104.734,160.387,104.404,160.387,103.992L160.387,103.992z"/>
		<path fill="#682F8E" d="M172.992,106.83c0-0.184-0.149-0.334-0.334-0.334h-64.947c-0.185,0-0.334,0.15-0.334,0.334l0,0
			c0,0.186,0.149,0.334,0.334,0.334h64.947C172.843,107.164,172.992,107.016,172.992,106.83L172.992,106.83z"/>
		<path fill="#682F8E" d="M167.452,108.418c0-0.186-0.149-0.336-0.335-0.336h-59.406c-0.185,0-0.334,0.15-0.334,0.336l0,0
			c0,0.184,0.149,0.334,0.334,0.334h59.406C167.303,108.752,167.452,108.602,167.452,108.418L167.452,108.418z"/>
		<circle fill="#682F8E" cx="102.75" cy="106.002" r="2.75"/>
	</g>
	<g>
		<path fill="#682F8E" d="M68.77,116.008c0-0.41-0.332-0.742-0.741-0.742H16.502c-0.41,0-0.742,0.332-0.742,0.742l0,0
			c0,0.41,0.332,0.742,0.742,0.742h51.526C68.438,116.75,68.77,116.418,68.77,116.008L68.77,116.008z"/>
		<path fill="#682F8E" d="M81.376,118.846c0-0.186-0.15-0.336-0.334-0.336H16.095c-0.185,0-0.334,0.15-0.334,0.336l0,0
			c0,0.184,0.149,0.334,0.334,0.334h64.947C81.227,119.18,81.376,119.029,81.376,118.846L81.376,118.846z"/>
		<path fill="#682F8E" d="M75.836,120.432c0-0.184-0.15-0.334-0.334-0.334H16.095c-0.185,0-0.334,0.15-0.334,0.334l0,0
			c0,0.186,0.149,0.334,0.334,0.334h59.406C75.686,120.766,75.836,120.617,75.836,120.432L75.836,120.432z"/>
		<circle fill="#682F8E" cx="11.134" cy="118.016" r="2.75"/>
	</g>
	<g>
		<path fill="#682F8E" d="M160.387,116.008c0-0.41-0.332-0.742-0.742-0.742h-51.525c-0.41,0-0.742,0.332-0.742,0.742l0,0
			c0,0.41,0.332,0.742,0.742,0.742h51.525C160.055,116.75,160.387,116.418,160.387,116.008L160.387,116.008z"/>
		<path fill="#682F8E" d="M172.992,118.846c0-0.186-0.149-0.336-0.334-0.336h-64.947c-0.185,0-0.334,0.15-0.334,0.336l0,0
			c0,0.184,0.149,0.334,0.334,0.334h64.947C172.843,119.18,172.992,119.029,172.992,118.846L172.992,118.846z"/>
		<path fill="#682F8E" d="M167.452,120.432c0-0.184-0.149-0.334-0.335-0.334h-59.406c-0.185,0-0.334,0.15-0.334,0.334l0,0
			c0,0.186,0.149,0.334,0.334,0.334h59.406C167.303,120.766,167.452,120.617,167.452,120.432L167.452,120.432z"/>
		<circle fill="#682F8E" cx="102.75" cy="118.016" r="2.75"/>
	</g>
</g>
<path fill="#D1D3D4" d="M90.892,37.891c0-0.641-0.52-1.161-1.162-1.161H65.399c-0.641,0-1.161,0.52-1.161,1.161l0,0
	c0,0.642,0.52,1.161,1.161,1.161H89.73C90.372,39.052,90.892,38.533,90.892,37.891L90.892,37.891z"/>
<path fill="#D1D3D4" d="M90.892,46.588c0-0.641-0.52-1.161-1.162-1.161H69.25c-0.641,0-1.161,0.52-1.161,1.161l0,0
	c0,0.642,0.52,1.161,1.161,1.161h20.48C90.372,47.75,90.892,47.23,90.892,46.588L90.892,46.588z"/>
<path fill="#D1D3D4" d="M90.892,55.338c0-0.641-0.52-1.161-1.162-1.161H68.357c-0.641,0-1.161,0.52-1.161,1.161l0,0
	c0,0.642,0.52,1.161,1.161,1.161H89.73C90.372,56.5,90.892,55.98,90.892,55.338L90.892,55.338z"/>
<path fill="#D1D3D4" d="M62.786,9.55c0-1.309-1.061-2.37-2.37-2.37H10.754c-1.309,0-2.37,1.061-2.37,2.37l0,0
	c0,1.309,1.061,2.37,2.37,2.37h49.662C61.725,11.92,62.786,10.859,62.786,9.55L62.786,9.55z"/>
<path fill="#D1D3D4" d="M35.037,37.891c0-0.641-0.52-1.161-1.162-1.161H9.545c-0.641,0-1.161,0.52-1.161,1.161l0,0
	c0,0.642,0.52,1.161,1.161,1.161h24.331C34.517,39.052,35.037,38.533,35.037,37.891L35.037,37.891z"/>
<path fill="#D1D3D4" d="M90.892,20.194c0-0.292-0.237-0.529-0.529-0.529H8.913c-0.292,0-0.529,0.237-0.529,0.529l0,0
	c0,0.292,0.237,0.529,0.529,0.529h81.449C90.654,20.723,90.892,20.486,90.892,20.194L90.892,20.194z"/>
<path fill="#D1D3D4" d="M76.529,23.445c0-0.292-0.237-0.529-0.529-0.529H8.913c-0.292,0-0.529,0.237-0.529,0.529l0,0
	c0,0.292,0.237,0.529,0.529,0.529H76C76.292,23.974,76.529,23.737,76.529,23.445L76.529,23.445z"/>
<path fill="#D1D3D4" d="M67.196,30.445c0-0.292-0.237-0.529-0.529-0.529H8.913c-0.292,0-0.529,0.237-0.529,0.529l0,0
	c0,0.292,0.237,0.529,0.529,0.529h57.753C66.958,30.974,67.196,30.737,67.196,30.445L67.196,30.445z"/>
<path fill="#D1D3D4" d="M43.432,26.778c0-0.292-0.237-0.529-0.529-0.529H8.913c-0.292,0-0.529,0.237-0.529,0.529l0,0
	c0,0.292,0.237,0.529,0.529,0.529h33.989C43.194,27.308,43.432,27.071,43.432,26.778L43.432,26.778z"/>
<path fill="#D1D3D4" d="M191,74.916c0,1.104-0.896,2-2,2h-87c-1.104,0-2-0.896-2-2V9.18c0-1.104,0.896-2,2-2h87c1.104,0,2,0.896,2,2
	V74.916z"/>
<path fill="#D1D3D4" d="M35.037,46.588c0-0.641-0.52-1.161-1.162-1.161H9.545c-0.641,0-1.161,0.52-1.161,1.161l0,0
	c0,0.642,0.52,1.161,1.161,1.161h24.331C34.517,47.75,35.037,47.23,35.037,46.588L35.037,46.588z"/>
<path fill="#D1D3D4" d="M31.5,55.338c0-0.641-0.52-1.161-1.162-1.161H9.545c-0.641,0-1.161,0.52-1.161,1.161l0,0
	c0,0.642,0.52,1.161,1.161,1.161h20.793C30.98,56.5,31.5,55.98,31.5,55.338L31.5,55.338z"/>
<path fill="#D1D3D4" d="M46.333,74.916c0,1.104-0.896,2-2,2h-33.95c-1.104,0-2-0.896-2-2v-6.333c0-1.104,0.896-2,2-2h33.95
	c1.104,0,2,0.896,2,2V74.916z"/>
<path fill="#D1D3D4" d="M61.057,71.377l-1.203-1.477c0,0-0.234-0.285-0.421-0.386c-0.124-0.067-0.333-0.059-0.515-0.059h-7.322
	c-0.414,0-0.749,0.335-0.749,0.749v1.357v1.357c0,0.413,0.335,0.749,0.749,0.749h7.322c0.182,0,0.391,0.008,0.515-0.059
	c0.187-0.101,0.421-0.386,0.421-0.386l1.203-1.477c0,0,0.048-0.033,0.048-0.185S61.057,71.377,61.057,71.377z"/>
<path fill="#D1D3D4" d="M79.706,71.377l-1.203-1.477c0,0-0.234-0.285-0.421-0.386c-0.124-0.067-0.333-0.059-0.515-0.059H63.708
	c-0.414,0-0.749,0.335-0.749,0.749v1.357v1.357c0,0.413,0.335,0.749,0.749,0.749h13.858c0.182,0,0.391,0.008,0.515-0.059
	c0.187-0.101,0.421-0.386,0.421-0.386l1.203-1.477c0,0,0.048-0.033,0.048-0.185S79.706,71.377,79.706,71.377z"/>
<path fill="#D1D3D4" d="M94.713,71.377l-1.203-1.477c0,0-0.234-0.285-0.421-0.386c-0.124-0.067-0.333-0.059-0.515-0.059h-10.45
	c-0.414,0-0.749,0.335-0.749,0.749v1.357v1.357c0,0.413,0.335,0.749,0.749,0.749h10.45c0.182,0,0.391,0.008,0.515-0.059
	c0.187-0.101,0.421-0.386,0.421-0.386l1.203-1.477c0,0,0.048-0.033,0.048-0.185S94.713,71.377,94.713,71.377z"/>
<line fill="#939598" x1="8.384" y1="42.25" x2="90.892" y2="42.25"/>
<line fill="#939598" x1="8.384" y1="50.947" x2="90.892" y2="50.947"/>
<path fill="#682F8E" d="M25.667,85.916H9.384c-0.552,0-1,0.448-1,1v4c0,0.552,0.448,1,1,1h6.687c0,0.053,0.021,0.106,0.061,0.147
	l1.249,1.247c0.08,0.082,0.211,0.082,0.292,0l1.248-1.247c0.04-0.041,0.06-0.094,0.061-0.147h6.688c0.552,0,1-0.448,1-1v-4
	C26.667,86.364,26.219,85.916,25.667,85.916z"/>
</svg>
