<?xml version="1.0" encoding="utf-8"?>
<!-- Generator: Adobe Illustrator 16.0.0, SVG Export Plug-In . SVG Version: 6.00 Build 0)  -->
<!DOCTYPE svg PUBLIC "-//W3C//DTD SVG 1.1//EN" "http://www.w3.org/Graphics/SVG/1.1/DTD/svg11.dtd">
<svg version="1.1" id="Layer_1" xmlns="http://www.w3.org/2000/svg" xmlns:xlink="http://www.w3.org/1999/xlink" x="0px" y="0px"
	 width="200px" height="165.25px" viewBox="0 0 200 165.25" enable-background="new 0 0 200 165.25" xml:space="preserve">
<path fill="#D1D3D4" d="M25.667,85.916H9.384c-0.552,0-1,0.448-1,1v4c0,0.552,0.448,1,1,1h16.283c0.552,0,1-0.448,1-1v-4
	C26.667,86.364,26.219,85.916,25.667,85.916z"/>
<path fill="#D1D3D4" d="M51.938,85.916H31.696c-0.552,0-1,0.448-1,1v4c0,0.552,0.448,1,1,1h20.241c0.552,0,1-0.448,1-1v-4
	C52.938,86.364,52.49,85.916,51.938,85.916z"/>
<path fill="#D1D3D4" d="M70.357,85.916H58.134c-0.552,0-1,0.448-1,1v4c0,0.552,0.448,1,1,1h12.223c0.552,0,1-0.448,1-1v-4
	C71.357,86.364,70.909,85.916,70.357,85.916z"/>
<path fill="#D1D3D4" d="M84.875,85.916h-8.616c-0.552,0-1,0.448-1,1v4c0,0.552,0.448,1,1,1h8.616c0.552,0,1-0.448,1-1v-4
	C85.875,86.364,85.427,85.916,84.875,85.916z"/>
<g display="none">
	<g display="inline">
		<path fill="#D1D3D4" d="M68.77,103.992c0-0.408-0.332-0.74-0.741-0.74H16.502c-0.41,0-0.742,0.332-0.742,0.74l0,0
			c0,0.412,0.332,0.742,0.742,0.742h51.526C68.438,104.734,68.77,104.404,68.77,103.992L68.77,103.992z"/>
		<path fill="#D1D3D4" d="M81.376,106.83c0-0.184-0.15-0.334-0.334-0.334H16.095c-0.185,0-0.334,0.15-0.334,0.334l0,0
			c0,0.186,0.149,0.334,0.334,0.334h64.947C81.227,107.164,81.376,107.016,81.376,106.83L81.376,106.83z"/>
		<path fill="#D1D3D4" d="M75.836,108.418c0-0.186-0.15-0.336-0.334-0.336H16.095c-0.185,0-0.334,0.15-0.334,0.336l0,0
			c0,0.184,0.149,0.334,0.334,0.334h59.406C75.686,108.752,75.836,108.602,75.836,108.418L75.836,108.418z"/>
		<circle fill="#D1D3D4" cx="11.134" cy="106.002" r="2.75"/>
	</g>
	<g display="inline">
		<path fill="#D1D3D4" d="M160.387,103.992c0-0.408-0.332-0.74-0.742-0.74h-51.525c-0.41,0-0.742,0.332-0.742,0.74l0,0
			c0,0.412,0.332,0.742,0.742,0.742h51.525C160.055,104.734,160.387,104.404,160.387,103.992L160.387,103.992z"/>
		<path fill="#D1D3D4" d="M172.992,106.83c0-0.184-0.149-0.334-0.334-0.334h-64.947c-0.185,0-0.334,0.15-0.334,0.334l0,0
			c0,0.186,0.149,0.334,0.334,0.334h64.947C172.843,107.164,172.992,107.016,172.992,106.83L172.992,106.83z"/>
		<path fill="#D1D3D4" d="M167.452,108.418c0-0.186-0.149-0.336-0.335-0.336h-59.406c-0.185,0-0.334,0.15-0.334,0.336l0,0
			c0,0.184,0.149,0.334,0.334,0.334h59.406C167.303,108.752,167.452,108.602,167.452,108.418L167.452,108.418z"/>
		<circle fill="#D1D3D4" cx="102.75" cy="106.002" r="2.75"/>
	</g>
	<g display="inline">
		<path fill="#D1D3D4" d="M68.77,116.008c0-0.41-0.332-0.742-0.741-0.742H16.502c-0.41,0-0.742,0.332-0.742,0.742l0,0
			c0,0.41,0.332,0.742,0.742,0.742h51.526C68.438,116.75,68.77,116.418,68.77,116.008L68.77,116.008z"/>
		<path fill="#D1D3D4" d="M81.376,118.846c0-0.186-0.15-0.336-0.334-0.336H16.095c-0.185,0-0.334,0.15-0.334,0.336l0,0
			c0,0.184,0.149,0.334,0.334,0.334h64.947C81.227,119.18,81.376,119.029,81.376,118.846L81.376,118.846z"/>
		<path fill="#D1D3D4" d="M75.836,120.432c0-0.184-0.15-0.334-0.334-0.334H16.095c-0.185,0-0.334,0.15-0.334,0.334l0,0
			c0,0.186,0.149,0.334,0.334,0.334h59.406C75.686,120.766,75.836,120.617,75.836,120.432L75.836,120.432z"/>
		<circle fill="#D1D3D4" cx="11.134" cy="118.016" r="2.75"/>
	</g>
	<g display="inline">
		<path fill="#D1D3D4" d="M160.387,116.008c0-0.41-0.332-0.742-0.742-0.742h-51.525c-0.41,0-0.742,0.332-0.742,0.742l0,0
			c0,0.41,0.332,0.742,0.742,0.742h51.525C160.055,116.75,160.387,116.418,160.387,116.008L160.387,116.008z"/>
		<path fill="#D1D3D4" d="M172.992,118.846c0-0.186-0.149-0.336-0.334-0.336h-64.947c-0.185,0-0.334,0.15-0.334,0.336l0,0
			c0,0.184,0.149,0.334,0.334,0.334h64.947C172.843,119.18,172.992,119.029,172.992,118.846L172.992,118.846z"/>
		<path fill="#D1D3D4" d="M167.452,120.432c0-0.184-0.149-0.334-0.335-0.334h-59.406c-0.185,0-0.334,0.15-0.334,0.334l0,0
			c0,0.186,0.149,0.334,0.334,0.334h59.406C167.303,120.766,167.452,120.617,167.452,120.432L167.452,120.432z"/>
		<circle fill="#D1D3D4" cx="102.75" cy="118.016" r="2.75"/>
	</g>
</g>
<g display="none">
	<g display="inline">
		<path fill="#682F8E" d="M133.414,145.75c0,0.553-0.447,1-1,1H68.2c-0.552,0-1-0.447-1-1v-41c0-0.553,0.448-1,1-1h64.214
			c0.553,0,1,0.447,1,1V145.75z"/>
		<g>
			<path fill="none" stroke="#682F8E" stroke-width="0.25" stroke-miterlimit="10" d="M61.548,127.838
				c0,0.072-0.058,0.129-0.128,0.129h-5.18c-0.071,0-0.128-0.057-0.128-0.129v-5.18c0-0.07,0.058-0.127,0.128-0.127h5.18
				c0.071,0,0.128,0.057,0.128,0.127V127.838z"/>
			<polygon fill="#682F8E" points="57.816,125.25 59.598,123.465 59.239,123.105 57.096,125.246 59.239,127.393 59.598,127.033 			
				"/>
		</g>
		<g>
			<path fill="none" stroke="#682F8E" stroke-width="0.25" stroke-miterlimit="10" d="M138.453,122.66
				c0-0.072,0.058-0.129,0.129-0.129h5.18c0.07,0,0.128,0.057,0.128,0.129v5.18c0,0.07-0.058,0.127-0.128,0.127h-5.18
				c-0.071,0-0.129-0.057-0.129-0.127V122.66z"/>
			<polygon fill="#682F8E" points="142.185,125.248 140.402,127.033 140.762,127.393 142.905,125.252 140.762,123.105 
				140.402,123.465 			"/>
		</g>
	</g>
	<g display="inline">
		<circle fill="#682F8E" cx="94.143" cy="151.75" r="1.167"/>
		<circle fill="#D1D3D4" cx="100.218" cy="151.75" r="1.167"/>
		<circle fill="#D1D3D4" cx="106.292" cy="151.75" r="1.167"/>
	</g>
</g>
<g>
	<g>
		<path fill="#682F8E" d="M75.052,152.25c0,0.553-0.447,1-1,1H39.165c-0.552,0-1-0.447-1-1v-50.668c0-0.553,0.448-1,1-1h34.887
			c0.553,0,1,0.447,1,1V152.25z"/>
		<g>
			<path fill="#FFFFFF" d="M71.14,112.25H42.077c-0.552,0-1,0.447-1,1v19c0,0.553,0.448,1,1,1H71.14c0.553,0,1-0.447,1-1v-19
				C72.14,112.697,71.692,112.25,71.14,112.25z"/>
			<path fill="#FFFFFF" d="M71.14,138.125H42.077c-0.552,0-1,0.447-1,1v2.375c0,0.553,0.448,1,1,1H71.14c0.553,0,1-0.447,1-1v-2.375
				C72.14,138.572,71.692,138.125,71.14,138.125z"/>
			<path fill="#FFFFFF" d="M71.14,144.375H42.077c-0.552,0-1,0.447-1,1V149c0,0.553,0.448,1,1,1H71.14c0.553,0,1-0.447,1-1v-3.625
				C72.14,144.822,71.692,144.375,71.14,144.375z"/>
		</g>
		<path fill="#FFFFFF" d="M68.167,104.76c0-0.641-0.52-1.16-1.162-1.16H46.211c-0.641,0-1.161,0.52-1.161,1.16l0,0
			c0,0.643,0.52,1.162,1.161,1.162h20.793C67.646,105.922,68.167,105.402,68.167,104.76L68.167,104.76z"/>
		<g>
			<path fill="#682F8E" d="M65.317,117.121c0-0.236-0.19-0.426-0.425-0.426H46.6c-0.234,0-0.424,0.189-0.424,0.426l0,0
				c0,0.234,0.19,0.424,0.424,0.424h18.292C65.127,117.545,65.317,117.355,65.317,117.121L65.317,117.121z"/>
			<path fill="#682F8E" d="M61.536,120.871c0-0.236-0.19-0.426-0.425-0.426H46.6c-0.234,0-0.424,0.189-0.424,0.426l0,0
				c0,0.234,0.19,0.424,0.424,0.424h14.512C61.346,121.295,61.536,121.105,61.536,120.871L61.536,120.871z"/>
			<path fill="#682F8E" d="M53.435,124.637c0-0.236-0.19-0.426-0.425-0.426H46.6c-0.234,0-0.424,0.189-0.424,0.426l0,0
				c0,0.234,0.19,0.424,0.424,0.424h6.411C53.245,125.061,53.435,124.871,53.435,124.637L53.435,124.637z"/>
			<path fill="#682F8E" d="M67.771,128.379c0-0.236-0.19-0.426-0.425-0.426H46.6c-0.234,0-0.424,0.189-0.424,0.426l0,0
				c0,0.234,0.19,0.424,0.424,0.424h20.747C67.581,128.803,67.771,128.613,67.771,128.379L67.771,128.379z"/>
		</g>
		<path fill="#FFFFFF" d="M49.381,110.223c0-0.236-0.19-0.426-0.425-0.426h-7.455c-0.234,0-0.424,0.189-0.424,0.426l0,0
			c0,0.234,0.19,0.424,0.424,0.424h7.455C49.191,110.646,49.381,110.457,49.381,110.223L49.381,110.223z"/>
		<path fill="#FFFFFF" d="M49.381,135.951c0-0.236-0.19-0.426-0.425-0.426h-7.455c-0.234,0-0.424,0.189-0.424,0.426l0,0
			c0,0.234,0.19,0.424,0.424,0.424h7.455C49.191,136.375,49.381,136.186,49.381,135.951L49.381,135.951z"/>
	</g>
	<g>
		<path fill="#682F8E" d="M118.443,152.25c0,0.553-0.447,1-1,1H82.557c-0.552,0-1-0.447-1-1v-50.668c0-0.553,0.448-1,1-1h34.887
			c0.553,0,1,0.447,1,1V152.25z"/>
		<g>
			<path fill="#FFFFFF" d="M114.531,112.25H85.469c-0.552,0-1,0.447-1,1v19c0,0.553,0.448,1,1,1h29.063c0.553,0,1-0.447,1-1v-19
				C115.531,112.697,115.084,112.25,114.531,112.25z"/>
			<path fill="#FFFFFF" d="M114.531,138.125H85.469c-0.552,0-1,0.447-1,1v2.375c0,0.553,0.448,1,1,1h29.063c0.553,0,1-0.447,1-1
				v-2.375C115.531,138.572,115.084,138.125,114.531,138.125z"/>
			<path fill="#FFFFFF" d="M114.531,144.375H85.469c-0.552,0-1,0.447-1,1V149c0,0.553,0.448,1,1,1h29.063c0.553,0,1-0.447,1-1
				v-3.625C115.531,144.822,115.084,144.375,114.531,144.375z"/>
		</g>
		<path fill="#FFFFFF" d="M111.558,104.76c0-0.641-0.52-1.16-1.161-1.16H89.603c-0.641,0-1.161,0.52-1.161,1.16l0,0
			c0,0.643,0.52,1.162,1.161,1.162h20.793C111.038,105.922,111.558,105.402,111.558,104.76L111.558,104.76z"/>
		<g>
			<path fill="#682F8E" d="M108.709,117.121c0-0.236-0.19-0.426-0.426-0.426H89.991c-0.234,0-0.424,0.189-0.424,0.426l0,0
				c0,0.234,0.19,0.424,0.424,0.424h18.292C108.519,117.545,108.709,117.355,108.709,117.121L108.709,117.121z"/>
			<path fill="#682F8E" d="M104.928,120.871c0-0.236-0.189-0.426-0.425-0.426H89.991c-0.234,0-0.424,0.189-0.424,0.426l0,0
				c0,0.234,0.19,0.424,0.424,0.424h14.512C104.738,121.295,104.928,121.105,104.928,120.871L104.928,120.871z"/>
			<path fill="#682F8E" d="M96.827,124.637c0-0.236-0.19-0.426-0.425-0.426h-6.411c-0.234,0-0.424,0.189-0.424,0.426l0,0
				c0,0.234,0.19,0.424,0.424,0.424h6.411C96.637,125.061,96.827,124.871,96.827,124.637L96.827,124.637z"/>
			<path fill="#682F8E" d="M111.163,128.379c0-0.236-0.19-0.426-0.426-0.426H89.991c-0.234,0-0.424,0.189-0.424,0.426l0,0
				c0,0.234,0.19,0.424,0.424,0.424h20.746C110.973,128.803,111.163,128.613,111.163,128.379L111.163,128.379z"/>
		</g>
		<path fill="#FFFFFF" d="M92.772,110.223c0-0.236-0.19-0.426-0.425-0.426h-7.455c-0.234,0-0.424,0.189-0.424,0.426l0,0
			c0,0.234,0.19,0.424,0.424,0.424h7.455C92.583,110.646,92.772,110.457,92.772,110.223L92.772,110.223z"/>
		<path fill="#FFFFFF" d="M92.772,135.951c0-0.236-0.19-0.426-0.425-0.426h-7.455c-0.234,0-0.424,0.189-0.424,0.426l0,0
			c0,0.234,0.19,0.424,0.424,0.424h7.455C92.583,136.375,92.772,136.186,92.772,135.951L92.772,135.951z"/>
	</g>
	<g>
		<path fill="#682F8E" d="M161.835,152.25c0,0.553-0.447,1-1,1h-34.887c-0.553,0-1-0.447-1-1v-50.668c0-0.553,0.447-1,1-1h34.887
			c0.553,0,1,0.447,1,1V152.25z"/>
		<g>
			<path fill="#FFFFFF" d="M157.923,112.25H128.86c-0.553,0-1,0.447-1,1v19c0,0.553,0.447,1,1,1h29.063c0.553,0,1-0.447,1-1v-19
				C158.923,112.697,158.476,112.25,157.923,112.25z"/>
			<path fill="#FFFFFF" d="M157.923,138.125H128.86c-0.553,0-1,0.447-1,1v2.375c0,0.553,0.447,1,1,1h29.063c0.553,0,1-0.447,1-1
				v-2.375C158.923,138.572,158.476,138.125,157.923,138.125z"/>
			<path fill="#FFFFFF" d="M157.923,144.375H128.86c-0.553,0-1,0.447-1,1V149c0,0.553,0.447,1,1,1h29.063c0.553,0,1-0.447,1-1
				v-3.625C158.923,144.822,158.476,144.375,157.923,144.375z"/>
		</g>
		<path fill="#FFFFFF" d="M154.949,104.76c0-0.641-0.52-1.16-1.161-1.16h-20.793c-0.642,0-1.162,0.52-1.162,1.16l0,0
			c0,0.643,0.521,1.162,1.162,1.162h20.793C154.43,105.922,154.949,105.402,154.949,104.76L154.949,104.76z"/>
		<g>
			<path fill="#682F8E" d="M152.101,117.121c0-0.236-0.19-0.426-0.426-0.426h-18.292c-0.234,0-0.425,0.189-0.425,0.426l0,0
				c0,0.234,0.19,0.424,0.425,0.424h18.292C151.91,117.545,152.101,117.355,152.101,117.121L152.101,117.121z"/>
			<path fill="#682F8E" d="M148.319,120.871c0-0.236-0.189-0.426-0.425-0.426h-14.512c-0.234,0-0.425,0.189-0.425,0.426l0,0
				c0,0.234,0.19,0.424,0.425,0.424h14.512C148.13,121.295,148.319,121.105,148.319,120.871L148.319,120.871z"/>
			<path fill="#682F8E" d="M140.218,124.637c0-0.236-0.189-0.426-0.424-0.426h-6.411c-0.234,0-0.425,0.189-0.425,0.426l0,0
				c0,0.234,0.19,0.424,0.425,0.424h6.411C140.028,125.061,140.218,124.871,140.218,124.637L140.218,124.637z"/>
			<path fill="#682F8E" d="M154.555,128.379c0-0.236-0.19-0.426-0.426-0.426h-20.746c-0.234,0-0.425,0.189-0.425,0.426l0,0
				c0,0.234,0.19,0.424,0.425,0.424h20.746C154.364,128.803,154.555,128.613,154.555,128.379L154.555,128.379z"/>
		</g>
		<path fill="#FFFFFF" d="M136.164,110.223c0-0.236-0.19-0.426-0.425-0.426h-7.455c-0.234,0-0.424,0.189-0.424,0.426l0,0
			c0,0.234,0.189,0.424,0.424,0.424h7.455C135.974,110.646,136.164,110.457,136.164,110.223L136.164,110.223z"/>
		<path fill="#FFFFFF" d="M136.164,135.951c0-0.236-0.19-0.426-0.425-0.426h-7.455c-0.234,0-0.424,0.189-0.424,0.426l0,0
			c0,0.234,0.189,0.424,0.424,0.424h7.455C135.974,136.375,136.164,136.186,136.164,135.951L136.164,135.951z"/>
	</g>
</g>
<g display="none">
	<g display="inline">
		<path fill="#682F8E" d="M176.834,142.084c0,0.736-0.597,1.332-1.333,1.332H22.919c-0.736,0-1.333-0.596-1.333-1.332v-5.168
			c0-0.736,0.597-1.334,1.333-1.334h152.582c0.736,0,1.333,0.598,1.333,1.334V142.084z"/>
		<g>
			<path fill="#FFFFFF" d="M31.833,139.5c0-0.293-0.237-0.529-0.529-0.529h-6.391c-0.292,0-0.529,0.236-0.529,0.529l0,0
				c0,0.293,0.237,0.529,0.529,0.529h6.391C31.596,140.029,31.833,139.793,31.833,139.5L31.833,139.5z"/>
			<path fill="#FFFFFF" d="M124.25,139.5c0-0.293-0.237-0.529-0.529-0.529H34.896c-0.292,0-0.529,0.236-0.529,0.529l0,0
				c0,0.293,0.237,0.529,0.529,0.529h88.824C124.013,140.029,124.25,139.793,124.25,139.5L124.25,139.5z"/>
		</g>
		<polygon fill="#FFFFFF" points="172.198,140.031 170.413,138.248 170.055,138.607 172.195,140.752 174.341,138.607 
			173.982,138.248 		"/>
	</g>
	<g display="inline">
		<path fill="#682F8E" d="M176.834,130.916c0,0.736-0.597,1.334-1.333,1.334H22.919c-0.736,0-1.333-0.598-1.333-1.334v-22.668
			c0-0.736,0.597-1.332,1.333-1.332h152.582c0.736,0,1.333,0.596,1.333,1.332V130.916z"/>
		<path fill="#FFFFFF" stroke="#682F8E" stroke-width="0.25" stroke-miterlimit="10" d="M176.834,130.916
			c0,0.736-0.597,1.334-1.333,1.334H22.919c-0.736,0-1.333-0.598-1.333-1.334v-16.271h155.249V130.916z"/>
		<g>
			<path fill="#FFFFFF" d="M31.833,110.832c0-0.291-0.237-0.529-0.529-0.529h-6.391c-0.292,0-0.529,0.238-0.529,0.529l0,0
				c0,0.293,0.237,0.529,0.529,0.529h6.391C31.596,111.361,31.833,111.125,31.833,110.832L31.833,110.832z"/>
			<path fill="#FFFFFF" d="M124.25,110.832c0-0.291-0.237-0.529-0.529-0.529H34.896c-0.292,0-0.529,0.238-0.529,0.529l0,0
				c0,0.293,0.237,0.529,0.529,0.529h88.824C124.013,111.361,124.25,111.125,124.25,110.832L124.25,110.832z"/>
		</g>
		<polygon fill="#FFFFFF" points="172.198,111.363 170.413,109.582 170.055,109.941 172.195,112.084 174.341,109.941 
			173.982,109.582 		"/>
		<path fill="#682F8E" d="M114.267,118.471c0-0.293-0.237-0.529-0.529-0.529H24.913c-0.292,0-0.529,0.236-0.529,0.529l0,0
			c0,0.293,0.237,0.529,0.529,0.529h88.824C114.029,119,114.267,118.764,114.267,118.471L114.267,118.471z"/>
		<path fill="#682F8E" d="M72.342,121.779c0-0.293-0.237-0.529-0.529-0.529H24.913c-0.292,0-0.529,0.236-0.529,0.529l0,0
			c0,0.293,0.237,0.529,0.529,0.529h46.899C72.104,122.309,72.342,122.072,72.342,121.779L72.342,121.779z"/>
	</g>
	<g display="inline">
		<path fill="#682F8E" d="M176.834,153.084c0,0.736-0.597,1.332-1.333,1.332H22.919c-0.736,0-1.333-0.596-1.333-1.332v-5.168
			c0-0.736,0.597-1.334,1.333-1.334h152.582c0.736,0,1.333,0.598,1.333,1.334V153.084z"/>
		<g>
			<path fill="#FFFFFF" d="M31.833,150.5c0-0.293-0.237-0.529-0.529-0.529h-6.391c-0.292,0-0.529,0.236-0.529,0.529l0,0
				c0,0.293,0.237,0.529,0.529,0.529h6.391C31.596,151.029,31.833,150.793,31.833,150.5L31.833,150.5z"/>
			<path fill="#FFFFFF" d="M124.25,150.5c0-0.293-0.237-0.529-0.529-0.529H34.896c-0.292,0-0.529,0.236-0.529,0.529l0,0
				c0,0.293,0.237,0.529,0.529,0.529h88.824C124.013,151.029,124.25,150.793,124.25,150.5L124.25,150.5z"/>
		</g>
		<polygon fill="#FFFFFF" points="172.198,151.031 170.413,149.248 170.055,149.607 172.195,151.752 174.341,149.607 
			173.982,149.248 		"/>
	</g>
</g>
<path fill="#682F8E" d="M90.892,37.891c0-0.641-0.52-1.161-1.162-1.161H65.399c-0.641,0-1.161,0.52-1.161,1.161l0,0
	c0,0.642,0.52,1.161,1.161,1.161H89.73C90.372,39.052,90.892,38.533,90.892,37.891L90.892,37.891z"/>
<path fill="#682F8E" d="M90.892,46.588c0-0.641-0.52-1.161-1.162-1.161H69.25c-0.641,0-1.161,0.52-1.161,1.161l0,0
	c0,0.642,0.52,1.161,1.161,1.161h20.48C90.372,47.75,90.892,47.23,90.892,46.588L90.892,46.588z"/>
<path fill="#682F8E" d="M90.892,55.338c0-0.641-0.52-1.161-1.162-1.161H68.357c-0.641,0-1.161,0.52-1.161,1.161l0,0
	c0,0.642,0.52,1.161,1.161,1.161H89.73C90.372,56.5,90.892,55.98,90.892,55.338L90.892,55.338z"/>
<path fill="#D1D3D4" d="M62.786,9.55c0-1.309-1.061-2.37-2.37-2.37H10.754c-1.309,0-2.37,1.061-2.37,2.37l0,0
	c0,1.309,1.061,2.37,2.37,2.37h49.662C61.725,11.92,62.786,10.859,62.786,9.55L62.786,9.55z"/>
<path fill="#682F8E" d="M35.037,37.891c0-0.641-0.52-1.161-1.162-1.161H9.545c-0.641,0-1.161,0.52-1.161,1.161l0,0
	c0,0.642,0.52,1.161,1.161,1.161h24.331C34.517,39.052,35.037,38.533,35.037,37.891L35.037,37.891z"/>
<path fill="#D1D3D4" d="M90.892,20.194c0-0.292-0.237-0.529-0.529-0.529H8.913c-0.292,0-0.529,0.237-0.529,0.529l0,0
	c0,0.292,0.237,0.529,0.529,0.529h81.449C90.654,20.723,90.892,20.486,90.892,20.194L90.892,20.194z"/>
<path fill="#D1D3D4" d="M76.529,23.445c0-0.292-0.237-0.529-0.529-0.529H8.913c-0.292,0-0.529,0.237-0.529,0.529l0,0
	c0,0.292,0.237,0.529,0.529,0.529H76C76.292,23.974,76.529,23.737,76.529,23.445L76.529,23.445z"/>
<path fill="#D1D3D4" d="M67.196,30.445c0-0.292-0.237-0.529-0.529-0.529H8.913c-0.292,0-0.529,0.237-0.529,0.529l0,0
	c0,0.292,0.237,0.529,0.529,0.529h57.753C66.958,30.974,67.196,30.737,67.196,30.445L67.196,30.445z"/>
<path fill="#D1D3D4" d="M43.432,26.778c0-0.292-0.237-0.529-0.529-0.529H8.913c-0.292,0-0.529,0.237-0.529,0.529l0,0
	c0,0.292,0.237,0.529,0.529,0.529h33.989C43.194,27.308,43.432,27.071,43.432,26.778L43.432,26.778z"/>
<path fill="#D1D3D4" d="M191,74.916c0,1.104-0.896,2-2,2h-87c-1.104,0-2-0.896-2-2V9.18c0-1.104,0.896-2,2-2h87c1.104,0,2,0.896,2,2
	V74.916z"/>
<path fill="#682F8E" d="M35.037,46.588c0-0.641-0.52-1.161-1.162-1.161H9.545c-0.641,0-1.161,0.52-1.161,1.161l0,0
	c0,0.642,0.52,1.161,1.161,1.161h24.331C34.517,47.75,35.037,47.23,35.037,46.588L35.037,46.588z"/>
<path fill="#682F8E" d="M31.5,55.338c0-0.641-0.52-1.161-1.162-1.161H9.545c-0.641,0-1.161,0.52-1.161,1.161l0,0
	c0,0.642,0.52,1.161,1.161,1.161h20.793C30.98,56.5,31.5,55.98,31.5,55.338L31.5,55.338z"/>
<path fill="#D1D3D4" d="M46.333,74.916c0,1.104-0.896,2-2,2h-33.95c-1.104,0-2-0.896-2-2v-6.333c0-1.104,0.896-2,2-2h33.95
	c1.104,0,2,0.896,2,2V74.916z"/>
<path fill="#D1D3D4" d="M61.057,71.377l-1.203-1.477c0,0-0.234-0.285-0.421-0.386c-0.124-0.067-0.333-0.059-0.515-0.059h-7.322
	c-0.414,0-0.749,0.335-0.749,0.749v1.357v1.357c0,0.413,0.335,0.749,0.749,0.749h7.322c0.182,0,0.391,0.008,0.515-0.059
	c0.187-0.101,0.421-0.386,0.421-0.386l1.203-1.477c0,0,0.048-0.033,0.048-0.185S61.057,71.377,61.057,71.377z"/>
<path fill="#D1D3D4" d="M79.706,71.377l-1.203-1.477c0,0-0.234-0.285-0.421-0.386c-0.124-0.067-0.333-0.059-0.515-0.059H63.708
	c-0.414,0-0.749,0.335-0.749,0.749v1.357v1.357c0,0.413,0.335,0.749,0.749,0.749h13.858c0.182,0,0.391,0.008,0.515-0.059
	c0.187-0.101,0.421-0.386,0.421-0.386l1.203-1.477c0,0,0.048-0.033,0.048-0.185S79.706,71.377,79.706,71.377z"/>
<path fill="#D1D3D4" d="M94.713,71.377l-1.203-1.477c0,0-0.234-0.285-0.421-0.386c-0.124-0.067-0.333-0.059-0.515-0.059h-10.45
	c-0.414,0-0.749,0.335-0.749,0.749v1.357v1.357c0,0.413,0.335,0.749,0.749,0.749h10.45c0.182,0,0.391,0.008,0.515-0.059
	c0.187-0.101,0.421-0.386,0.421-0.386l1.203-1.477c0,0,0.048-0.033,0.048-0.185S94.713,71.377,94.713,71.377z"/>
<line fill="#939598" x1="8.384" y1="42.25" x2="90.892" y2="42.25"/>
<line fill="#939598" x1="8.384" y1="50.947" x2="90.892" y2="50.947"/>
<path display="none" fill="#682F8E" d="M25.667,85.916H9.384c-0.552,0-1,0.448-1,1v4c0,0.552,0.448,1,1,1h6.687
	c0,0.053,0.021,0.106,0.061,0.147l1.249,1.247c0.08,0.082,0.211,0.082,0.292,0l1.248-1.247c0.04-0.041,0.06-0.094,0.061-0.147h6.688
	c0.552,0,1-0.448,1-1v-4C26.667,86.364,26.219,85.916,25.667,85.916z"/>
<path fill="#682F8E" d="M70.357,85.916H58.134c-0.552,0-1,0.448-1,1v4c0,0.552,0.448,1,1,1h4.822c0,0.053,0.021,0.106,0.061,0.147
	l1.249,1.247c0.08,0.082,0.211,0.082,0.292,0l1.248-1.247c0.04-0.041,0.06-0.094,0.061-0.147h4.492c0.552,0,1-0.448,1-1v-4
	C71.357,86.364,70.909,85.916,70.357,85.916z"/>
</svg>
