<?xml version="1.0" encoding="utf-8"?>
<!-- Generator: Adobe Illustrator 16.0.0, SVG Export Plug-In . SVG Version: 6.00 Build 0)  -->
<!DOCTYPE svg PUBLIC "-//W3C//DTD SVG 1.1//EN" "http://www.w3.org/Graphics/SVG/1.1/DTD/svg11.dtd">
<svg version="1.1" id="Layer_1" xmlns="http://www.w3.org/2000/svg" xmlns:xlink="http://www.w3.org/1999/xlink" x="0px" y="0px"
	 width="141.75px" height="50px" viewBox="0 0 141.75 50" enable-background="new 0 0 141.75 50" xml:space="preserve">
<rect fill-rule="evenodd" clip-rule="evenodd" fill="#FFFFFF" width="50" height="50"/>
<path fill-rule="evenodd" clip-rule="evenodd" fill="#72C5CD" d="M15.834,24.762c-0.528,0.17-1.056,0.339-1.583,0.511
	c-0.412,0.133-0.826,0.263-1.236,0.403c-1.479,0.503-3.013-0.378-3.476-1.786c-0.052-0.156-0.09-0.316-0.114-0.48
	c-0.004-0.025,0.023-0.085-0.047-0.076c0-0.174,0-0.347,0-0.521c0.05-0.061,0.05-0.133,0.048-0.206
	c0.101-0.604,0.359-1.127,0.794-1.561c0.309-0.308,0.671-0.53,1.087-0.666c0.914-0.297,1.828-0.595,2.742-0.893
	c0.021-0.006,0.042-0.011,0.063-0.017c0.036,0.041,0.045,0.093,0.061,0.143c0.189,0.581,0.378,1.162,0.567,1.744
	c0.311,0.956,0.624,1.912,0.933,2.869C15.73,24.404,15.801,24.577,15.834,24.762z"/>
<path fill-rule="evenodd" clip-rule="evenodd" fill="#DFA22F" d="M27.369,9.379c-0.037,0.041,0.01,0.04,0.026,0.043
	c0.088,0.02,0.179,0.03,0.267,0.053c0.966,0.258,1.64,0.85,1.968,1.794c0.324,0.929,0.613,1.868,0.917,2.803
	c0.006,0.016,0.012,0.032,0.017,0.049l0.002,0c-0.054,0.017-0.108,0.032-0.162,0.049c-1.055,0.343-2.109,0.687-3.165,1.029
	c-0.655,0.213-1.311,0.425-1.967,0.637l-0.003,0.002c-0.25-0.774-0.504-1.549-0.752-2.324c-0.093-0.289-0.2-0.572-0.252-0.874
	c-0.219-1.26,0.474-2.528,1.654-3.024c0.208-0.088,0.425-0.15,0.648-0.187c0.025-0.004,0.053-0.006,0.076-0.016
	c0.019-0.008,0.019-0.025-0.002-0.036C26.884,9.379,27.126,9.379,27.369,9.379z"/>
<path fill-rule="evenodd" clip-rule="evenodd" fill="#3CB187" d="M24.766,34.197c0.255,0.791,0.513,1.583,0.768,2.374
	c0.075,0.23,0.162,0.459,0.215,0.695c0.211,0.955-0.047,1.785-0.707,2.493c-0.391,0.421-0.88,0.683-1.442,0.807
	c-0.059,0.013-0.059,0.014-0.083,0.055c-0.33,0-0.66,0-0.99,0c0.02-0.048-0.022-0.043-0.044-0.047
	c-0.102-0.021-0.203-0.046-0.302-0.079c-0.891-0.304-1.5-0.896-1.799-1.79c-0.31-0.927-0.606-1.859-0.908-2.79
	c0.033-0.031,0.078-0.038,0.118-0.052c1.674-0.544,3.349-1.088,5.023-1.632C24.664,34.216,24.711,34.189,24.766,34.197z"/>
<path fill-rule="evenodd" clip-rule="evenodd" fill="#CE1E5B" d="M40.621,27.525c-0.028-0.028-0.038,0.001-0.043,0.018
	c-0.012,0.046-0.021,0.093-0.032,0.139c-0.26,0.944-0.841,1.61-1.764,1.937c-0.939,0.332-1.894,0.621-2.841,0.929
	c-0.008,0.004-0.016,0.004-0.025,0.006c-0.018-0.02-0.027-0.043-0.035-0.068c-0.119-0.371-0.239-0.742-0.36-1.113
	c-0.224-0.688-0.446-1.375-0.67-2.063c-0.192-0.589-0.386-1.177-0.578-1.766c-0.03-0.091-0.062-0.181-0.06-0.278
	c0.494-0.162,0.986-0.325,1.481-0.485c0.448-0.146,0.896-0.299,1.347-0.436c1.535-0.464,3.123,0.443,3.508,1.999
	c0.011,0.046,0.021,0.092,0.036,0.137c0.006,0.02,0.021,0.024,0.036,0.005C40.621,26.831,40.621,27.179,40.621,27.525z"/>
<path fill-rule="evenodd" clip-rule="evenodd" fill="#72C5CD" d="M25.269,15.839l0.003-0.002c0.556,1.709,1.11,3.419,1.665,5.129
	c0.02,0.057,0.048,0.112,0.041,0.176c-0.021,0.005-0.043,0.01-0.063,0.017c-1.098,0.357-2.197,0.714-3.295,1.071
	c-0.823,0.267-1.646,0.533-2.469,0.799c-0.036-0.035-0.043-0.083-0.058-0.128c-0.1-0.305-0.199-0.61-0.298-0.916
	c-0.421-1.294-0.843-2.589-1.262-3.883c-0.039-0.119-0.09-0.235-0.104-0.361c1.165-0.378,2.33-0.756,3.495-1.134
	c0.762-0.247,1.523-0.495,2.285-0.743C25.229,15.855,25.249,15.847,25.269,15.839z"/>
<path fill-rule="evenodd" clip-rule="evenodd" fill="#248C73" d="M19.429,17.739c0.014,0.126,0.065,0.242,0.104,0.361
	c0.419,1.294,0.841,2.589,1.262,3.883c0.099,0.305,0.198,0.61,0.298,0.916c0.015,0.045,0.022,0.093,0.058,0.128
	c0.002,0.008,0,0.015-0.007,0.02c-0.053-0.003-0.102,0.014-0.152,0.03c-0.615,0.199-1.229,0.398-1.844,0.598
	c-0.875,0.285-1.749,0.571-2.623,0.855c-0.157,0.052-0.314,0.099-0.471,0.151c-0.069,0.023-0.145,0.031-0.198,0.09
	c-0.009,0.001-0.016-0.004-0.021-0.011c-0.033-0.185-0.104-0.357-0.161-0.535c-0.309-0.957-0.622-1.913-0.933-2.869
	c-0.189-0.582-0.378-1.163-0.567-1.744c-0.016-0.049-0.025-0.102-0.061-0.143c-0.003-0.007-0.001-0.013,0.005-0.017
	c0.134-0.023,0.26-0.067,0.388-0.109c0.661-0.214,1.32-0.428,1.98-0.643c0.932-0.304,1.863-0.608,2.795-0.913
	c0.045-0.015,0.093-0.024,0.128-0.06C19.417,17.729,19.423,17.732,19.429,17.739z"/>
<path fill-rule="evenodd" clip-rule="evenodd" fill="#3CB187" d="M19.408,17.73c-0.035,0.036-0.083,0.045-0.128,0.06
	c-0.932,0.305-1.863,0.609-2.795,0.913c-0.66,0.215-1.319,0.429-1.98,0.643c-0.127,0.042-0.254,0.086-0.388,0.109
	c-0.186-0.577-0.372-1.154-0.558-1.731c-0.113-0.351-0.227-0.701-0.342-1.05c-0.408-1.242,0.102-2.533,1.113-3.199
	c1.499-0.985,3.539-0.313,4.139,1.377c0.278,0.783,0.52,1.58,0.777,2.371C19.301,17.391,19.354,17.561,19.408,17.73z"/>
<path fill-rule="evenodd" clip-rule="evenodd" fill="#3CB187" d="M15.854,24.772c0.053-0.059,0.129-0.067,0.198-0.09
	c0.157-0.052,0.314-0.099,0.471-0.151c0.875-0.285,1.749-0.57,2.623-0.855c0.615-0.2,1.229-0.398,1.844-0.598
	c0.05-0.016,0.099-0.033,0.152-0.03c0.006,0.021,0.011,0.042,0.018,0.063c0.624,1.921,1.248,3.843,1.872,5.765
	c-0.035,0.036-0.084,0.043-0.128,0.058c-1.671,0.544-3.343,1.087-5.015,1.631c-0.049,0.016-0.096,0.042-0.151,0.029
	c-0.188-0.581-0.374-1.161-0.563-1.742c-0.432-1.33-0.864-2.66-1.296-3.991C15.87,24.832,15.863,24.802,15.854,24.772z"/>
<path fill-rule="evenodd" clip-rule="evenodd" fill="#CE1E5B" d="M17.732,30.616c0.038,0.035,0.043,0.084,0.058,0.129
	c0.542,1.663,1.082,3.325,1.623,4.988c0.018,0.057,0.047,0.112,0.039,0.176c-0.845,0.274-1.69,0.548-2.535,0.82
	c-0.223,0.072-0.442,0.155-0.674,0.194c-0.774,0.133-1.479-0.045-2.096-0.52c-0.8-0.614-1.176-1.44-1.117-2.449
	c0.065-1.098,0.838-2.079,1.884-2.422C15.853,31.228,16.792,30.923,17.732,30.616z"/>
<path fill-rule="evenodd" clip-rule="evenodd" fill="#DFA22F" d="M32.289,19.43c0.631,1.942,1.261,3.884,1.893,5.826
	c-0.045,0.031-0.095,0.043-0.145,0.059c-1.521,0.494-3.043,0.99-4.564,1.484c-0.193,0.062-0.384,0.136-0.584,0.179
	c-0.007-0.024-0.013-0.05-0.021-0.074c-0.277-0.856-0.556-1.711-0.835-2.567c-0.345-1.062-0.688-2.124-1.032-3.186
	c0.034-0.038,0.083-0.044,0.127-0.059c0.298-0.097,0.594-0.193,0.892-0.289c1.377-0.448,2.754-0.896,4.131-1.343
	C32.194,19.445,32.238,19.423,32.289,19.43z"/>
<path fill-rule="evenodd" clip-rule="evenodd" fill="#BB242A" d="M28.889,26.978c0.2-0.043,0.391-0.117,0.584-0.179
	c1.521-0.494,3.043-0.99,4.564-1.484c0.05-0.016,0.1-0.028,0.145-0.059c0.01,0.002,0.021,0.005,0.031,0.009
	c-0.002,0.097,0.029,0.187,0.06,0.278c0.192,0.589,0.386,1.177,0.578,1.766c0.224,0.688,0.446,1.375,0.67,2.063
	c0.121,0.371,0.241,0.742,0.36,1.113c0.008,0.025,0.018,0.049,0.035,0.068c0.002,0.008-0.002,0.015-0.008,0.019
	c-0.047,0.012-0.093,0.021-0.139,0.035c-1.656,0.537-3.313,1.076-4.969,1.614c-0.061,0.02-0.127,0.031-0.181,0.07
	c-0.008,0-0.016-0.002-0.021-0.007c0.001-0.049-0.013-0.094-0.027-0.139c-0.226-0.693-0.45-1.385-0.676-2.077
	c-0.313-0.965-0.626-1.93-0.938-2.894c-0.021-0.062-0.03-0.128-0.081-0.175C28.88,26.993,28.884,26.985,28.889,26.978z"/>
<path fill-rule="evenodd" clip-rule="evenodd" fill="#62803A" d="M32.289,19.43c-0.051-0.007-0.095,0.015-0.14,0.029
	c-1.377,0.447-2.754,0.895-4.131,1.343c-0.298,0.096-0.594,0.192-0.892,0.289c-0.044,0.015-0.093,0.021-0.127,0.059
	c-0.01,0-0.018-0.003-0.022-0.009c0.007-0.063-0.021-0.119-0.041-0.176c-0.555-1.71-1.109-3.419-1.665-5.129
	c0.656-0.212,1.312-0.424,1.967-0.637c1.056-0.342,2.11-0.686,3.165-1.029c0.054-0.017,0.108-0.033,0.162-0.049
	c0.003,0.013,0.006,0.026,0.01,0.038c0.557,1.714,1.114,3.429,1.671,5.143c0.013,0.037,0.02,0.076,0.048,0.106
	C32.296,19.417,32.294,19.424,32.289,19.43z"/>
<path fill-rule="evenodd" clip-rule="evenodd" fill="#72C5CD" d="M32.294,19.409c-0.028-0.03-0.035-0.069-0.048-0.106
	c-0.557-1.714-1.114-3.429-1.671-5.143c-0.004-0.012-0.007-0.025-0.01-0.038l-0.002,0c0.956-0.311,1.908-0.633,2.868-0.928
	c1.598-0.49,3.269,0.559,3.54,2.207c0.221,1.343-0.556,2.648-1.85,3.087c-0.799,0.271-1.605,0.523-2.408,0.785
	C32.574,19.318,32.434,19.363,32.294,19.409z"/>
<path fill-rule="evenodd" clip-rule="evenodd" fill="#CE1E5B" d="M28.876,27c0.051,0.047,0.061,0.113,0.081,0.175
	c0.313,0.964,0.626,1.929,0.938,2.894c0.226,0.692,0.45,1.384,0.676,2.077c0.015,0.045,0.028,0.09,0.027,0.139
	c-1.944,0.632-3.888,1.264-5.831,1.895c-0.079-0.169-0.124-0.35-0.183-0.526c-0.499-1.535-0.998-3.071-1.495-4.606
	c-0.018-0.053-0.046-0.104-0.036-0.163c0.025-0.007,0.05-0.013,0.075-0.021c1.462-0.475,2.924-0.95,4.387-1.425
	C27.968,27.29,28.422,27.146,28.876,27z"/>
<path fill-rule="evenodd" clip-rule="evenodd" fill="#DFA22F" d="M30.62,32.291c0.054-0.039,0.12-0.051,0.181-0.07
	c1.656-0.538,3.313-1.077,4.969-1.614c0.046-0.015,0.092-0.023,0.139-0.035c0.31,0.952,0.615,1.904,0.929,2.854
	c0.479,1.449-0.391,2.982-1.807,3.442c-1.463,0.476-3.026-0.321-3.503-1.784C31.224,34.153,30.923,33.222,30.62,32.291z"/>
<polygon fill-rule="evenodd" clip-rule="evenodd" fill="#392538" points="17.732,30.616 23.054,28.883 24.768,34.179 19.452,35.909 
	"/>
<g>
	<path fill-rule="evenodd" clip-rule="evenodd" d="M133.146,33.993c-0.892,0.769-2.009,1.047-3.092,1.394
		c-0.947,0.304-1.298,0.186-1.901-0.615c-1.819-2.418-3.63-4.841-5.444-7.262c-0.269-0.359-0.267-0.358-0.586-0.05
		c-0.663,0.644-1.323,1.29-1.995,1.927c-0.165,0.157-0.234,0.32-0.233,0.551c0.009,1.461,0.006,2.921,0.004,4.382
		c0,0.706-0.354,1.063-1.068,1.065c-0.894,0.005-1.788,0.005-2.681-0.001c-0.691-0.003-1.043-0.359-1.043-1.045
		c0-8.616,0-17.232,0-25.849c0-0.011,0-0.021,0-0.032c0.004-1.178,0.255-1.426,1.449-1.465c0.171-0.005,0.381,0.093,0.513-0.113
		c0.273,0,0.548,0,0.819,0c0.051,0.157,0.188,0.107,0.293,0.112c0.346,0.013,0.693,0,1.033,0.082c0.4,0.096,0.562,0.271,0.639,0.68
		c0.051,0.271,0.046,0.543,0.046,0.816c0,4.729,0,9.457,0.004,14.184c0,0.131-0.039,0.27,0.038,0.4
		c0.143-0.017,0.22-0.124,0.307-0.208c1.116-1.068,2.229-2.138,3.343-3.208c1.348-1.296,2.691-2.596,4.041-3.89
		c0.173-0.166,0.366-0.316,0.564-0.452c0.284-0.193,0.604-0.255,0.932-0.133c1.018,0.379,1.896,0.991,2.698,1.707
		c0.348,0.308,0.328,0.577,0.042,0.944c-0.121,0.156-0.26,0.302-0.403,0.44c-1.823,1.771-3.646,3.542-5.478,5.305
		c-0.179,0.172-0.203,0.283-0.042,0.488c0.965,1.232,1.914,2.476,2.868,3.716c1.319,1.715,2.636,3.433,3.962,5.142
		c0.125,0.16,0.152,0.396,0.372,0.482C133.146,33.656,133.146,33.824,133.146,33.993z"/>
	<path fill-rule="evenodd" clip-rule="evenodd" d="M71.671,6.88c0.051,0.158,0.187,0.108,0.291,0.112
		c0.337,0.014,0.674,0.001,1.002,0.096c0.407,0.118,0.577,0.32,0.599,0.743c0.012,0.23,0.011,0.462,0.011,0.693
		c0.001,8.606,0.001,17.213,0.001,25.819c-0.001,0.708-0.328,1.039-1.04,1.042c-0.893,0.004-1.786,0.005-2.679,0
		c-0.713-0.003-1.072-0.359-1.072-1.067c-0.002-8.638,0-17.276,0.002-25.914c0-0.177,0.024-0.356,0.049-0.533
		c0.065-0.469,0.258-0.677,0.723-0.798c0.269-0.07,0.541-0.067,0.814-0.079c0.105-0.005,0.242,0.043,0.291-0.114
		C70.999,6.88,71.334,6.88,71.671,6.88z"/>
	<path fill-rule="evenodd" clip-rule="evenodd" d="M58.447,15.256c2.392,0.056,4.678,0.584,6.858,1.57
		c0.685,0.31,0.844,0.67,0.577,1.367c-0.293,0.766-0.663,1.499-1.152,2.163c-0.299,0.404-0.595,0.498-1.076,0.334
		c-0.566-0.193-1.117-0.432-1.688-0.612c-1.146-0.363-2.314-0.618-3.53-0.523c-0.547,0.042-1.082,0.147-1.575,0.406
		c-1.137,0.6-1.185,1.801-0.107,2.504c0.706,0.461,1.506,0.69,2.297,0.934c1.335,0.41,2.697,0.743,3.969,1.334
		c1.213,0.564,2.297,1.297,2.918,2.532c1.146,2.277,0.672,5.532-2.218,7.199c-1.207,0.696-2.521,1.021-3.902,1.11
		c-2.84,0.185-5.493-0.527-8.053-1.68c-0.202-0.091-0.393-0.202-0.582-0.313c-0.406-0.237-0.561-0.532-0.42-0.979
		c0.271-0.867,0.687-1.67,1.227-2.401c0.302-0.409,0.725-0.364,1.144-0.203c0.637,0.243,1.267,0.508,1.918,0.719
		c1.193,0.385,2.405,0.69,3.663,0.725c0.844,0.023,1.683-0.081,2.387-0.636c0.652-0.515,0.714-1.4,0.119-1.986
		c-0.539-0.532-1.235-0.787-1.936-1.016c-1.139-0.37-2.289-0.698-3.428-1.071c-1.132-0.373-2.215-0.857-3.149-1.618
		c-1.407-1.149-1.942-2.664-1.74-4.428c0.315-2.748,2.04-4.266,4.554-5.036C56.472,15.359,57.451,15.24,58.447,15.256z"/>
	<path fill-rule="evenodd" clip-rule="evenodd" d="M95.476,25.135c0.016-2.658,0.902-5.249,3.138-7.271
		c1.344-1.214,2.935-1.94,4.693-2.313c2.935-0.622,5.744-0.27,8.403,1.136c1.013,0.534,1.125,0.924,0.563,1.909
		c-0.314,0.547-0.652,1.079-1.031,1.583c-0.541,0.718-0.801,0.786-1.599,0.395c-1.169-0.572-2.394-0.945-3.7-0.881
		c-2.176,0.105-3.927,0.963-4.913,3.012c-1.016,2.11-0.703,5.422,1.149,7.153c0.988,0.924,2.163,1.391,3.495,1.483
		c1.432,0.101,2.769-0.26,4.044-0.892c0.205-0.103,0.407-0.218,0.617-0.313c0.425-0.19,0.68-0.156,0.999,0.178
		c0.584,0.611,1.054,1.31,1.416,2.072c0.254,0.538,0.155,0.865-0.343,1.224c-1.373,0.988-2.921,1.566-4.579,1.842
		c-2.521,0.417-4.949,0.07-7.222-1.097c-2.837-1.457-4.419-3.849-4.976-6.957C95.517,26.745,95.491,26.084,95.476,25.135z"/>
	<path fill-rule="evenodd" clip-rule="evenodd" d="M93.172,23.559c-0.001-0.483-0.012-0.964-0.051-1.447
		c-0.251-3.096-2.277-5.555-5.284-6.397c-1.704-0.478-3.43-0.585-5.178-0.319c-1.935,0.294-3.74,0.951-5.367,2.057
		c-0.582,0.396-0.661,0.733-0.347,1.371c0.312,0.634,0.709,1.216,1.146,1.768c0.562,0.708,0.851,0.76,1.639,0.313
		c0.668-0.38,1.366-0.692,2.1-0.926c1.486-0.473,2.975-0.528,4.451,0.009c1.167,0.424,1.923,1.232,2.069,2.501
		c0.058,0.508,0.024,1.028,0.027,1.542c0.002,0.216-0.14,0.131-0.24,0.095c-0.96-0.354-1.949-0.574-2.969-0.681
		c-1.8-0.189-3.568-0.077-5.265,0.593c-2.504,0.99-4.114,3.063-4.008,5.879c0.083,2.138,1.055,3.744,2.929,4.784
		c1.009,0.56,2.105,0.806,3.253,0.892c1.573,0.115,3.047-0.19,4.436-0.935c0.698-0.375,1.311-0.862,1.924-1.499
		c0,0.418,0.021,0.743-0.005,1.063c-0.068,0.834,0.458,1.222,1.207,1.215c0.777-0.009,1.555,0,2.332-0.004
		c0.838-0.005,1.201-0.375,1.201-1.22C93.172,30.66,93.172,27.109,93.172,23.559z M87.927,29.808
		c-1.118,1.252-2.504,1.94-4.182,2.052c-0.54,0.036-1.071,0.02-1.588-0.144c-0.835-0.264-1.472-0.758-1.635-1.659
		c-0.172-0.94,0.181-1.714,0.921-2.305c0.767-0.611,1.672-0.857,2.628-0.943c0.251-0.022,0.504-0.003,0.757-0.003
		c1.114-0.032,2.189,0.183,3.249,0.513c0.227,0.07,0.324,0.182,0.307,0.426c-0.019,0.271-0.033,0.55,0.002,0.817
		C88.454,29.068,88.247,29.448,87.927,29.808z"/>
</g>
</svg>
