<?xml version="1.0" encoding="utf-8"?>
<!-- Generator: Adobe Illustrator 16.0.0, SVG Export Plug-In . SVG Version: 6.00 Build 0)  -->
<!DOCTYPE svg PUBLIC "-//W3C//DTD SVG 1.1//EN" "http://www.w3.org/Graphics/SVG/1.1/DTD/svg11.dtd">
<svg version="1.1" id="Layer_1" xmlns="http://www.w3.org/2000/svg" xmlns:xlink="http://www.w3.org/1999/xlink" x="0px" y="0px"
	 width="50px" height="50px" viewBox="0 0 50 50" enable-background="new 0 0 50 50" xml:space="preserve">
<rect fill-rule="evenodd" clip-rule="evenodd" fill="#FFFFFF" width="50" height="50"/>
<path fill-rule="evenodd" clip-rule="evenodd" fill="#72C5CD" d="M15.834,24.762c-0.528,0.17-1.056,0.339-1.583,0.511
	c-0.412,0.133-0.826,0.263-1.236,0.403c-1.479,0.503-3.013-0.378-3.476-1.786c-0.052-0.156-0.09-0.316-0.114-0.48
	c-0.004-0.025,0.023-0.085-0.047-0.076c0-0.174,0-0.347,0-0.521c0.05-0.061,0.05-0.133,0.048-0.206
	c0.101-0.604,0.359-1.127,0.794-1.561c0.309-0.308,0.671-0.53,1.087-0.666c0.914-0.297,1.828-0.595,2.742-0.893
	c0.021-0.006,0.042-0.011,0.063-0.017c0.036,0.041,0.045,0.093,0.061,0.143c0.189,0.581,0.378,1.162,0.567,1.744
	c0.311,0.956,0.624,1.912,0.933,2.869C15.73,24.404,15.801,24.577,15.834,24.762z"/>
<path fill-rule="evenodd" clip-rule="evenodd" fill="#DFA22F" d="M27.369,9.379c-0.037,0.041,0.01,0.04,0.026,0.043
	c0.088,0.02,0.179,0.03,0.267,0.053c0.966,0.258,1.64,0.85,1.968,1.794c0.324,0.929,0.613,1.868,0.917,2.803
	c0.006,0.016,0.012,0.032,0.017,0.049l0.002,0c-0.054,0.017-0.108,0.032-0.162,0.049c-1.055,0.343-2.109,0.687-3.165,1.029
	c-0.655,0.213-1.311,0.425-1.967,0.637l-0.003,0.002c-0.25-0.774-0.504-1.549-0.752-2.324c-0.093-0.289-0.2-0.572-0.252-0.874
	c-0.219-1.26,0.474-2.528,1.654-3.024c0.208-0.088,0.425-0.15,0.648-0.187c0.025-0.004,0.053-0.006,0.076-0.016
	c0.019-0.008,0.019-0.025-0.002-0.036C26.884,9.379,27.126,9.379,27.369,9.379z"/>
<path fill-rule="evenodd" clip-rule="evenodd" fill="#3CB187" d="M24.766,34.197c0.255,0.791,0.513,1.583,0.768,2.374
	c0.075,0.23,0.162,0.459,0.215,0.695c0.211,0.955-0.047,1.785-0.707,2.493c-0.391,0.421-0.88,0.683-1.442,0.807
	c-0.059,0.013-0.059,0.014-0.083,0.055c-0.33,0-0.66,0-0.99,0c0.02-0.048-0.022-0.043-0.044-0.047
	c-0.102-0.021-0.203-0.046-0.302-0.079c-0.891-0.304-1.5-0.896-1.799-1.79c-0.31-0.927-0.606-1.859-0.908-2.79
	c0.033-0.031,0.078-0.038,0.118-0.052c1.674-0.544,3.349-1.088,5.023-1.632C24.664,34.216,24.711,34.189,24.766,34.197z"/>
<path fill-rule="evenodd" clip-rule="evenodd" fill="#CE1E5B" d="M40.621,27.525c-0.028-0.028-0.038,0.001-0.043,0.018
	c-0.012,0.046-0.021,0.093-0.032,0.139c-0.26,0.944-0.841,1.61-1.764,1.937c-0.939,0.332-1.894,0.621-2.841,0.929
	c-0.008,0.004-0.016,0.004-0.025,0.006c-0.018-0.02-0.027-0.043-0.035-0.068c-0.119-0.371-0.239-0.742-0.36-1.113
	c-0.224-0.688-0.446-1.375-0.67-2.063c-0.192-0.589-0.386-1.177-0.578-1.766c-0.03-0.091-0.062-0.181-0.06-0.278
	c0.494-0.162,0.986-0.325,1.481-0.485c0.448-0.146,0.896-0.299,1.347-0.436c1.535-0.464,3.123,0.443,3.508,1.999
	c0.011,0.046,0.021,0.092,0.036,0.137c0.006,0.02,0.021,0.024,0.036,0.005C40.621,26.831,40.621,27.179,40.621,27.525z"/>
<path fill-rule="evenodd" clip-rule="evenodd" fill="#72C5CD" d="M25.269,15.839l0.003-0.002c0.556,1.709,1.11,3.419,1.665,5.129
	c0.02,0.057,0.048,0.112,0.041,0.176c-0.021,0.005-0.043,0.01-0.063,0.017c-1.098,0.357-2.197,0.714-3.295,1.071
	c-0.823,0.267-1.646,0.533-2.469,0.799c-0.036-0.035-0.043-0.083-0.058-0.128c-0.1-0.305-0.199-0.61-0.298-0.916
	c-0.421-1.294-0.843-2.589-1.262-3.883c-0.039-0.119-0.09-0.235-0.104-0.361c1.165-0.378,2.33-0.756,3.495-1.134
	c0.762-0.247,1.523-0.495,2.285-0.743C25.229,15.855,25.249,15.847,25.269,15.839z"/>
<path fill-rule="evenodd" clip-rule="evenodd" fill="#248C73" d="M19.429,17.739c0.014,0.126,0.065,0.242,0.104,0.361
	c0.419,1.294,0.841,2.589,1.262,3.883c0.099,0.305,0.198,0.61,0.298,0.916c0.015,0.045,0.022,0.093,0.058,0.128
	c0.002,0.008,0,0.015-0.007,0.02c-0.053-0.003-0.102,0.014-0.152,0.03c-0.615,0.199-1.229,0.398-1.844,0.598
	c-0.875,0.285-1.749,0.571-2.623,0.855c-0.157,0.052-0.314,0.099-0.471,0.151c-0.069,0.023-0.145,0.031-0.198,0.09
	c-0.009,0.001-0.016-0.004-0.021-0.011c-0.033-0.185-0.104-0.357-0.161-0.535c-0.309-0.957-0.622-1.913-0.933-2.869
	c-0.189-0.582-0.378-1.163-0.567-1.744c-0.016-0.049-0.025-0.102-0.061-0.143c-0.003-0.007-0.001-0.013,0.005-0.017
	c0.134-0.023,0.26-0.067,0.388-0.109c0.661-0.214,1.32-0.428,1.98-0.643c0.932-0.304,1.863-0.608,2.795-0.913
	c0.045-0.015,0.093-0.024,0.128-0.06C19.417,17.729,19.423,17.732,19.429,17.739z"/>
<path fill-rule="evenodd" clip-rule="evenodd" fill="#3CB187" d="M19.408,17.73c-0.035,0.036-0.083,0.045-0.128,0.06
	c-0.932,0.305-1.863,0.609-2.795,0.913c-0.66,0.215-1.319,0.429-1.98,0.643c-0.127,0.042-0.254,0.086-0.388,0.109
	c-0.186-0.577-0.372-1.154-0.558-1.731c-0.113-0.351-0.227-0.701-0.342-1.05c-0.408-1.242,0.102-2.533,1.113-3.199
	c1.499-0.985,3.539-0.313,4.139,1.377c0.278,0.783,0.52,1.58,0.777,2.371C19.301,17.391,19.354,17.561,19.408,17.73z"/>
<path fill-rule="evenodd" clip-rule="evenodd" fill="#3CB187" d="M15.854,24.772c0.053-0.059,0.129-0.067,0.198-0.09
	c0.157-0.052,0.314-0.099,0.471-0.151c0.875-0.285,1.749-0.57,2.623-0.855c0.615-0.2,1.229-0.398,1.844-0.598
	c0.05-0.016,0.099-0.033,0.152-0.03c0.006,0.021,0.011,0.042,0.018,0.063c0.624,1.921,1.248,3.843,1.872,5.765
	c-0.035,0.036-0.084,0.043-0.128,0.058c-1.671,0.544-3.343,1.087-5.015,1.631c-0.049,0.016-0.096,0.042-0.151,0.029
	c-0.188-0.581-0.374-1.161-0.563-1.742c-0.432-1.33-0.864-2.66-1.296-3.991C15.87,24.832,15.863,24.802,15.854,24.772z"/>
<path fill-rule="evenodd" clip-rule="evenodd" fill="#CE1E5B" d="M17.732,30.616c0.038,0.035,0.043,0.084,0.058,0.129
	c0.542,1.663,1.082,3.325,1.623,4.988c0.018,0.057,0.047,0.112,0.039,0.176c-0.845,0.274-1.69,0.548-2.535,0.82
	c-0.223,0.072-0.442,0.155-0.674,0.194c-0.774,0.133-1.479-0.045-2.096-0.52c-0.8-0.614-1.176-1.44-1.117-2.449
	c0.065-1.098,0.838-2.079,1.884-2.422C15.853,31.228,16.792,30.923,17.732,30.616z"/>
<path fill-rule="evenodd" clip-rule="evenodd" fill="#DFA22F" d="M32.289,19.43c0.631,1.942,1.261,3.884,1.893,5.826
	c-0.045,0.031-0.095,0.043-0.145,0.059c-1.521,0.494-3.043,0.99-4.564,1.484c-0.193,0.062-0.384,0.136-0.584,0.179
	c-0.007-0.024-0.013-0.05-0.021-0.074c-0.277-0.856-0.556-1.711-0.835-2.567c-0.345-1.062-0.688-2.124-1.032-3.186
	c0.034-0.038,0.083-0.044,0.127-0.059c0.298-0.097,0.594-0.193,0.892-0.289c1.377-0.448,2.754-0.896,4.131-1.343
	C32.194,19.445,32.238,19.423,32.289,19.43z"/>
<path fill-rule="evenodd" clip-rule="evenodd" fill="#BB242A" d="M28.889,26.978c0.2-0.043,0.391-0.117,0.584-0.179
	c1.521-0.494,3.043-0.99,4.564-1.484c0.05-0.016,0.1-0.028,0.145-0.059c0.01,0.002,0.021,0.005,0.031,0.009
	c-0.002,0.097,0.029,0.187,0.06,0.278c0.192,0.589,0.386,1.177,0.578,1.766c0.224,0.688,0.446,1.375,0.67,2.063
	c0.121,0.371,0.241,0.742,0.36,1.113c0.008,0.025,0.018,0.049,0.035,0.068c0.002,0.008-0.002,0.015-0.008,0.019
	c-0.047,0.012-0.093,0.021-0.139,0.035c-1.656,0.537-3.313,1.076-4.969,1.614c-0.061,0.02-0.127,0.031-0.181,0.07
	c-0.008,0-0.016-0.002-0.021-0.007c0.001-0.049-0.013-0.094-0.027-0.139c-0.226-0.693-0.45-1.385-0.676-2.077
	c-0.313-0.965-0.626-1.93-0.938-2.894c-0.021-0.062-0.03-0.128-0.081-0.175C28.88,26.993,28.884,26.985,28.889,26.978z"/>
<path fill-rule="evenodd" clip-rule="evenodd" fill="#62803A" d="M32.289,19.43c-0.051-0.007-0.095,0.015-0.14,0.029
	c-1.377,0.447-2.754,0.895-4.131,1.343c-0.298,0.096-0.594,0.192-0.892,0.289c-0.044,0.015-0.093,0.021-0.127,0.059
	c-0.01,0-0.018-0.003-0.022-0.009c0.007-0.063-0.021-0.119-0.041-0.176c-0.555-1.71-1.109-3.419-1.665-5.129
	c0.656-0.212,1.312-0.424,1.967-0.637c1.056-0.342,2.11-0.686,3.165-1.029c0.054-0.017,0.108-0.033,0.162-0.049
	c0.003,0.013,0.006,0.026,0.01,0.038c0.557,1.714,1.114,3.429,1.671,5.143c0.013,0.037,0.02,0.076,0.048,0.106
	C32.296,19.417,32.294,19.424,32.289,19.43z"/>
<path fill-rule="evenodd" clip-rule="evenodd" fill="#72C5CD" d="M32.294,19.409c-0.028-0.03-0.035-0.069-0.048-0.106
	c-0.557-1.714-1.114-3.429-1.671-5.143c-0.004-0.012-0.007-0.025-0.01-0.038l-0.002,0c0.956-0.311,1.908-0.633,2.868-0.928
	c1.598-0.49,3.269,0.559,3.54,2.207c0.221,1.343-0.556,2.648-1.85,3.087c-0.799,0.271-1.605,0.523-2.408,0.785
	C32.574,19.318,32.434,19.363,32.294,19.409z"/>
<path fill-rule="evenodd" clip-rule="evenodd" fill="#CE1E5B" d="M28.876,27c0.051,0.047,0.061,0.113,0.081,0.175
	c0.313,0.964,0.626,1.929,0.938,2.894c0.226,0.692,0.45,1.384,0.676,2.077c0.015,0.045,0.028,0.09,0.027,0.139
	c-1.944,0.632-3.888,1.264-5.831,1.895c-0.079-0.169-0.124-0.35-0.183-0.526c-0.499-1.535-0.998-3.071-1.495-4.606
	c-0.018-0.053-0.046-0.104-0.036-0.163c0.025-0.007,0.05-0.013,0.075-0.021c1.462-0.475,2.924-0.95,4.387-1.425
	C27.968,27.29,28.422,27.146,28.876,27z"/>
<path fill-rule="evenodd" clip-rule="evenodd" fill="#DFA22F" d="M30.62,32.291c0.054-0.039,0.12-0.051,0.181-0.07
	c1.656-0.538,3.313-1.077,4.969-1.614c0.046-0.015,0.092-0.023,0.139-0.035c0.31,0.952,0.615,1.904,0.929,2.854
	c0.479,1.449-0.391,2.982-1.807,3.442c-1.463,0.476-3.026-0.321-3.503-1.784C31.224,34.153,30.923,33.222,30.62,32.291z"/>
<polygon fill-rule="evenodd" clip-rule="evenodd" fill="#392538" points="17.732,30.616 23.054,28.883 24.768,34.179 19.452,35.909 
	"/>
</svg>
