<svg xmlns="http://www.w3.org/2000/svg" xmlns:xlink="http://www.w3.org/1999/xlink" viewBox="0 0 798.66 713.53"><defs><style>.cls-1{isolation:isolate;}.cls-2{opacity:0.57;fill:url(#linear-gradient);}.cls-2,.cls-30,.cls-31,.cls-32{mix-blend-mode:overlay;}.cls-3{opacity:0.15;}.cls-10,.cls-11,.cls-3,.cls-41,.cls-49{mix-blend-mode:multiply;}.cls-4{fill:url(#linear-gradient-2);}.cls-5{fill:url(#linear-gradient-3);}.cls-6{fill:#2e383b;}.cls-7{fill:url(#linear-gradient-4);}.cls-8{fill:url(#linear-gradient-5);}.cls-9{fill:url(#linear-gradient-6);}.cls-10{opacity:0.05;}.cls-11{opacity:0.1;fill:url(#ÕÓ_È_Ó·_ÁÂ_ËÂÌÚ_2);}.cls-12{fill:url(#linear-gradient-7);}.cls-13{fill:url(#linear-gradient-8);}.cls-14{fill:url(#linear-gradient-9);}.cls-15{fill:url(#linear-gradient-10);}.cls-16{fill:#e6ebed;}.cls-17{fill:#586770;}.cls-18{fill:url(#linear-gradient-11);}.cls-19{fill:url(#linear-gradient-12);}.cls-20{fill:url(#linear-gradient-13);}.cls-21{fill:url(#linear-gradient-14);}.cls-22{fill:url(#linear-gradient-15);}.cls-23{fill:url(#linear-gradient-16);}.cls-24{fill:#151f22;}.cls-25{fill:#212b2e;}.cls-26{fill:url(#linear-gradient-17);}.cls-27{fill:url(#linear-gradient-18);}.cls-28{fill:url(#linear-gradient-19);}.cls-29{fill:url(#linear-gradient-20);}.cls-30,.cls-31{fill:#f0f;}.cls-30,.cls-33,.cls-50,.cls-51,.cls-52,.cls-53{opacity:0.3;}.cls-32{fill:#bf24ff;}.cls-34{fill:#b4d6e8;}.cls-35,.cls-40,.cls-42,.cls-43,.cls-44,.cls-50,.cls-58{fill:#a9d0e5;}.cls-36{opacity:0.25;}.cls-37{fill:#a895df;}.cls-38{fill:url(#linear-gradient-21);}.cls-39{fill:#fff;}.cls-40{opacity:0.7;}.cls-41,.cls-42{opacity:0.2;}.cls-43{opacity:0.6;}.cls-44{opacity:0.8;}.cls-45{fill:url(#linear-gradient-22);}.cls-46{fill:url(#linear-gradient-23);}.cls-47{fill:#5d0da6;}.cls-48{fill:url(#linear-gradient-24);}.cls-49{fill:#65158d;}.cls-51,.cls-52,.cls-53,.cls-54{mix-blend-mode:screen;}.cls-51{fill:url(#linear-gradient-25);}.cls-52{fill:url(#linear-gradient-26);}.cls-53{fill:url(#linear-gradient-27);}.cls-55{fill:#0a208f;}.cls-55,.cls-58,.cls-59{opacity:0.4;}.cls-56{fill:url(#linear-gradient-28);}.cls-57{fill:url(#linear-gradient-29);}.cls-60{fill:#1d0066;}.cls-61{fill:#d4dbdf;}.cls-62{fill:#290449;}.cls-63{fill:#d9a782;}.cls-64{fill:#3f0063;}.cls-65{fill:#550489;}.cls-66{fill:url(#linear-gradient-30);}.cls-67{fill:url(#linear-gradient-31);}.cls-68{fill:#ffcda8;}.cls-69{fill:#6d2d10;}.cls-70{fill:#8c165f;}.cls-71{opacity:0.5;}.cls-72{fill:url(#linear-gradient-32);}.cls-73{fill:url(#linear-gradient-33);}.cls-74{fill:#e1e8ec;}.cls-75{fill:#949b9f;}</style><linearGradient id="linear-gradient" x1="691.07" y1="42.26" x2="326.26" y2="240.21" gradientUnits="userSpaceOnUse"><stop offset="0" stop-color="#fff"/><stop offset="1" stop-color="#ff80ff"/></linearGradient><linearGradient id="linear-gradient-2" x1="602.79" y1="289.32" x2="617.85" y2="289.32" gradientUnits="userSpaceOnUse"><stop offset="0" stop-color="#e6ebed"/><stop offset="1" stop-color="#d5dee3"/></linearGradient><linearGradient id="linear-gradient-3" x1="587.64" y1="322.31" x2="607.83" y2="322.31" xlink:href="#linear-gradient-2"/><linearGradient id="linear-gradient-4" x1="601.52" y1="353.93" x2="651.8" y2="353.93" xlink:href="#linear-gradient-2"/><linearGradient id="linear-gradient-5" x1="619.57" y1="439.8" x2="656.92" y2="439.8" xlink:href="#linear-gradient-2"/><linearGradient id="linear-gradient-6" x1="596.43" y1="504.37" x2="654.55" y2="504.37" xlink:href="#linear-gradient-2"/><linearGradient id="ÕÓ_È_Ó·_ÁÂ_ËÂÌÚ_2" x1="616.76" y1="373" x2="633.83" y2="349.34" gradientUnits="userSpaceOnUse"><stop offset="0" stop-color="#fff"/><stop offset="1"/></linearGradient><linearGradient id="linear-gradient-7" x1="613.33" y1="329.67" x2="670.27" y2="329.67" xlink:href="#linear-gradient-2"/><linearGradient id="linear-gradient-8" x1="670.57" y1="472.6" x2="710.89" y2="472.6" xlink:href="#linear-gradient-2"/><linearGradient id="linear-gradient-9" x1="645.46" y1="369.91" x2="691.25" y2="369.91" xlink:href="#linear-gradient-2"/><linearGradient id="linear-gradient-10" x1="677.04" y1="241.74" x2="715.34" y2="241.74" xlink:href="#linear-gradient-2"/><linearGradient id="linear-gradient-11" x1="661.88" y1="548.68" x2="710.03" y2="548.68" xlink:href="#linear-gradient-2"/><linearGradient id="linear-gradient-12" x1="700.03" y1="533.95" x2="710.89" y2="533.95" xlink:href="#linear-gradient-2"/><linearGradient id="linear-gradient-13" x1="643.69" y1="495.1" x2="654.55" y2="495.1" xlink:href="#linear-gradient-2"/><linearGradient id="linear-gradient-14" x1="696.25" y1="320.9" x2="722.37" y2="320.9" xlink:href="#linear-gradient-2"/><linearGradient id="linear-gradient-15" x1="698.32" y1="381.39" x2="724.52" y2="381.39" xlink:href="#linear-gradient-2"/><linearGradient id="linear-gradient-16" x1="609.09" y1="208.19" x2="681.18" y2="244.24" xlink:href="#linear-gradient-2"/><linearGradient id="linear-gradient-17" x1="603.48" y1="195.95" x2="625.53" y2="195.95" xlink:href="#linear-gradient-2"/><linearGradient id="linear-gradient-18" x1="656.96" y1="150.52" x2="673.98" y2="150.52" gradientUnits="userSpaceOnUse"><stop offset="0" stop-color="#575e62"/><stop offset="1" stop-color="#2f3b42"/></linearGradient><linearGradient id="linear-gradient-19" x1="661.87" y1="153.67" x2="671.7" y2="153.67" xlink:href="#linear-gradient-2"/><linearGradient id="linear-gradient-20" x1="618.98" y1="147.95" x2="665" y2="147.95" xlink:href="#linear-gradient-2"/><linearGradient id="linear-gradient-21" x1="120.23" y1="225.31" x2="576.48" y2="225.31" gradientUnits="userSpaceOnUse"><stop offset="0" stop-color="#fe9fee"/><stop offset="1" stop-color="#e33ce3"/></linearGradient><linearGradient id="linear-gradient-22" x1="179.65" y1="173.82" x2="280.85" y2="173.82" gradientUnits="userSpaceOnUse"><stop offset="0" stop-color="#f532ff"/><stop offset="1" stop-color="#a232ff"/></linearGradient><linearGradient id="linear-gradient-23" x1="260.26" y1="181.75" x2="280.85" y2="181.75" xlink:href="#linear-gradient-22"/><linearGradient id="linear-gradient-24" x1="420.25" y1="303.78" x2="533.48" y2="303.78" xlink:href="#linear-gradient-22"/><linearGradient id="linear-gradient-25" x1="313.87" y1="369.56" x2="313.87" y2="468.81" gradientTransform="matrix(0.87, 0.5, 0, 1, 41.58, -154.45)" gradientUnits="userSpaceOnUse"><stop offset="0" stop-color="#a9d0e5"/><stop offset="1"/></linearGradient><linearGradient id="linear-gradient-26" x1="313.87" y1="369.56" x2="313.87" y2="468.81" xlink:href="#linear-gradient-25"/><linearGradient id="linear-gradient-27" x1="313.87" y1="387.55" x2="313.87" y2="488.09" xlink:href="#linear-gradient-25"/><linearGradient id="linear-gradient-28" x1="472.85" y1="481.41" x2="538.61" y2="481.41" xlink:href="#linear-gradient-21"/><linearGradient id="linear-gradient-29" x1="497.96" y1="586.89" x2="539.38" y2="586.89" xlink:href="#linear-gradient-21"/><linearGradient id="linear-gradient-30" x1="149.95" y1="446.63" x2="244.32" y2="446.63" gradientUnits="userSpaceOnUse"><stop offset="0" stop-color="#b333da"/><stop offset="1" stop-color="#750ed5"/></linearGradient><linearGradient id="linear-gradient-31" x1="142.02" y1="430.96" x2="167.16" y2="430.96" xlink:href="#linear-gradient-30"/><linearGradient id="linear-gradient-32" x1="208.32" y1="425.81" x2="293.7" y2="425.81" xlink:href="#linear-gradient-30"/><linearGradient id="linear-gradient-33" x1="214.15" y1="465.67" x2="241.1" y2="465.67" xlink:href="#linear-gradient-30"/></defs><title>smoothflow_illustration_automation_01</title><g class="cls-1"><g id="Layer_1" data-name="Layer 1"><polygon class="cls-2" points="150.73 141.92 614.03 72.1 496.3 341.47 150.73 141.92"/><path class="cls-3" d="M702.64,505.8c36.14,20.87,43.6,50.39,16.67,65.93S641.25,583,605.1,562.11s-43.6-50.39-16.67-65.94S666.49,484.93,702.64,505.8Z" transform="translate(-21.09 -61.18)"/><path class="cls-4" d="M614.86,275.37l-12.07,20.89,9.31,7,5.75-7C616.76,289,615.75,281.9,614.86,275.37Z" transform="translate(-21.09 -61.18)"/><path class="cls-5" d="M598.61,302s-9.32,12.23-10.48,19.8-.15,16.88,2.18,17.61-.14-11.5,1.6-12.37,2.05,16.15,5.39,15.57-1-11.06-.3-15.28,2.92-5,2.92-5l1.6,8.8,6.25-16S609.08,302,598.61,302Z" transform="translate(-21.09 -61.18)"/><path class="cls-6" d="M604.61,297.63l-3.08,4.81A7.72,7.72,0,0,1,606,306l4-4.31Z" transform="translate(-21.09 -61.18)"/><path class="cls-6" d="M687.94,196.15c-5,1.53-10.83,5.07-14.76,13-6.49,13.13-5.16,30.91,4.16,41.12,0,0,6.79-3.34,11.56-19.25,3.74-12.46,6.68-19.73,2.27-32.42C690.64,197.11,687.94,196.15,687.94,196.15Z" transform="translate(-21.09 -61.18)"/><path class="cls-6" d="M637.36,194.73c24.15,9.23,36.3-8.53,36.3-8.53s-9.71,2.51-16.12,1.48-13-4.47-13.06-7.32-5.31-4.16-5.31-4.16H635.3S622,188.85,637.36,194.73Z" transform="translate(-21.09 -61.18)"/><path class="cls-7" d="M614.57,395.45a27.23,27.23,0,0,0,8.53,2.73c9.2,1.26,17.74,1.1,27.41-3.35,3.18-19.89-.08-48.64-3.75-60.49C641.88,318.59,628.39,309,612.82,309c-6.05,0-14.89,13-9.77,41.61C605.72,365.56,609,382.59,614.57,395.45Z" transform="translate(-21.09 -61.18)"/><path class="cls-8" d="M633.62,475c8.73,2.67,14.6,2.18,18.28,1,.61-4.66,3.51-24.26,4.53-39.13.54-7.95,1.54-18.7-2.93-25.85-4.61-7.37-26.58-8.4-30.47-8.39-8.49,0,1,20,3.63,29.18C630.65,445.53,633.16,471,633.62,475Z" transform="translate(-21.09 -61.18)"/><path class="cls-9" d="M631.35,495.31c-.67-2.59-2.92-4.82-5.28-6.53-6.25,4.83-13.75,10-21.93,16.19-9.49,7.24-9.95,14.34-2.89,14.89a40.16,40.16,0,0,0,21.43-4.77c6.66-3.81,11.58-6.69,21.33-8.6,7.47-1.46,10.25-5.85,10.54-10.31C641.45,502.36,632.8,501,631.35,495.31Z" transform="translate(-21.09 -61.18)"/><path class="cls-10" d="M613.42,309c-6.78,24,1.49,61.05,9.68,89.16,9.2,1.26,17.74,1.1,27.41-3.35,3.18-19.89-.08-48.64-3.75-60.49C641.94,318.8,628.74,309.27,613.42,309Z" transform="translate(-21.09 -61.18)"/><path class="cls-11" d="M613.42,309c-6.78,24,1.49,61.05,9.68,89.16,9.2,1.26,17.74,1.1,27.41-3.35,3.18-19.89-.08-48.64-3.75-60.49C641.94,318.8,628.74,309.27,613.42,309Z" transform="translate(-21.09 -61.18)"/><path class="cls-10" d="M624.43,402.68c.76,2.5,1.5,4.93,2.23,7.24,7.89,25.19,9.21,54.48,9.41,65.74,7.38,1.87,12.51,1.39,15.83.36.61-4.66,3.51-24.26,4.53-39.13.54-7.95,1.54-18.7-2.93-25.85C649.29,404.31,630.61,402.87,624.43,402.68Z" transform="translate(-21.09 -61.18)"/><path class="cls-6" d="M623.1,398.18a26.45,26.45,0,0,1-2.92-.6l1.53,5.28a4.06,4.06,0,0,1,1.32-.21c2.92,0,16.06.57,24.36,4a51.41,51.41,0,0,1-1.22-10.08C638.22,399.29,630.9,399.25,623.1,398.18Z" transform="translate(-21.09 -61.18)"/><path class="cls-6" d="M650.15,482.52v-6.06a30.3,30.3,0,0,1-12.92-.51c-1.58,7.19-6.05,13.42-7.89,15.76a9.23,9.23,0,0,1,2,3.6c1.38,5.37,9.23,6.88,21.2,1.76,0-3.52.06-12.37,0-13.6C652.45,481.94,650.15,482.52,650.15,482.52Z" transform="translate(-21.09 -61.18)"/><path class="cls-12" d="M613.33,306.86s23,17.74,56.14,4.75c0,0,1.79,6.79,0,9.29-5.36,7.48-15.34,23.1-20.89,31.58C648.58,352.48,623.1,350.73,613.33,306.86Z" transform="translate(-21.09 -61.18)"/><path class="cls-6" d="M643.92,351.65a21.1,21.1,0,0,0,4.66.83c5.55-8.48,15.53-24.1,20.89-31.58,1.23-1.71.78-5.43.37-7.61C651.41,317.34,645,343.37,643.92,351.65Z" transform="translate(-21.09 -61.18)"/><path class="cls-13" d="M689.29,513.92c4,1.4,10,2.42,18,.92.18-8.48.63-20.64,1.79-27.85,1.9-11.88,3.83-25.7-2.35-37.83s-14.54-20.42-26.43-19.47-12.36,8.79-4,27.34C682.33,470.66,687.16,499.54,689.29,513.92Z" transform="translate(-21.09 -61.18)"/><path class="cls-14" d="M661.8,420c1.68,2.65,5.81,7.77,12.83,6.83s12.19-4.6,16.62-10c.07-11.38-.88-24.22-1-34.85-.34-20.4,3.72-63-13.72-68.78-11.24-3.75-34,23.89-30.69,55.06C647.58,384.9,652.86,406,661.8,420Z" transform="translate(-21.09 -61.18)"/><path class="cls-15" d="M705.69,283.34c5.33-.46,8.89-2.1,9.46-7.64.85-8.31-1.3-25.1-3.73-36.63-6.35-30.15-14.43-42.55-23.94-38.24-18.82,8.53-7.77,42.7-1,63,2.11,6.34,3.79,11.47,5.28,15.62C693,282.78,699,283.92,705.69,283.34Z" transform="translate(-21.09 -61.18)"/><path class="cls-16" d="M691.64,435.84a13,13,0,0,1,4,11c-.64,3.68-3.49,4.72-6.36,2.32a12.94,12.94,0,0,1-4-11C685.92,434.48,688.77,433.44,691.64,435.84Z" transform="translate(-21.09 -61.18)"/><path class="cls-17" d="M690.7,436.14a4.47,4.47,0,0,0-3.43-1.25,4.35,4.35,0,0,0-2,3.28,12.94,12.94,0,0,0,4,11,4.49,4.49,0,0,0,3.43,1.26,4.37,4.37,0,0,0,2-3.28A13,13,0,0,0,690.7,436.14Z" transform="translate(-21.09 -61.18)"/><path class="cls-10" d="M688.45,480.58c-1.85-12.54-9.08-34.2-14.5-49.12-5.31,3.3-4.17,11.22,2.27,25.57,6.11,13.63,10.94,42.51,13.07,56.89a27.39,27.39,0,0,0,3.32.93C691.55,505,689.93,490.58,688.45,480.58Z" transform="translate(-21.09 -61.18)"/><path class="cls-16" d="M683.56,330.77a15.63,15.63,0,0,1-2.27,14c-2.86,3.51-6.47,2.92-8.08-1.31a15.67,15.67,0,0,1,2.28-14C678.34,326,682,326.54,683.56,330.77Z" transform="translate(-21.09 -61.18)"/><path class="cls-17" d="M682.13,330.77c-.77-2-2-3.21-3.41-3.51a5.78,5.78,0,0,0-3.23,2.2,15.67,15.67,0,0,0-2.28,14c.77,2,2,3.22,3.41,3.52a5.9,5.9,0,0,0,3.24-2.21A15.66,15.66,0,0,0,682.13,330.77Z" transform="translate(-21.09 -61.18)"/><path class="cls-10" d="M667.82,425.72c-9.05-27.9-12.34-73.35-9.12-102.29a63.56,63.56,0,0,0-12.91,44.85c1.79,16.62,7.07,37.67,16,51.72A15.89,15.89,0,0,0,667.82,425.72Z" transform="translate(-21.09 -61.18)"/><path class="cls-18" d="M693.75,534.46c-2-3-5.6-4-8.7-4.27-3.18,4.63-8,11.39-11.39,15.06-5.52,6-18.13,16.41-7.9,20.22a27.07,27.07,0,0,0,30.91-8.8c7.89-10,13.73-15.21,13.34-21.43C703.55,541.39,697,539.5,693.75,534.46Z" transform="translate(-21.09 -61.18)"/><path class="cls-6" d="M708.57,530.55l-.75-9.63-2.1.65c-.2-2.36-.39-4.59-.53-6.41a35.44,35.44,0,0,1-12.87-.38,49.85,49.85,0,0,1-2.89,16.37,8.68,8.68,0,0,1,4.32,3.31c2.8,4.32,8,6.31,13.5,2.92-.19-1.47-.42-3.61-.66-6Z" transform="translate(-21.09 -61.18)"/><path class="cls-19" d="M710.89,530.81a12,12,0,0,1-5.43,9.42c-3,1.73-5.43.32-5.43-3.14a12,12,0,0,1,5.43-9.41C708.46,526,710.89,527.35,710.89,530.81Z" transform="translate(-21.09 -61.18)"/><path class="cls-20" d="M654.55,492a12,12,0,0,1-5.43,9.41c-3,1.73-5.43.33-5.43-3.14a12,12,0,0,1,5.43-9.41C652.12,487.09,654.55,488.5,654.55,492Z" transform="translate(-21.09 -61.18)"/><path class="cls-6" d="M680.26,429.69a20.76,20.76,0,0,1,12.94,3.14,103.75,103.75,0,0,1-5.62-12.11,23.29,23.29,0,0,1-13,6.11,11.74,11.74,0,0,1-5-.38l1.87,7.55C672.87,431.42,675.73,430.05,680.26,429.69Z" transform="translate(-21.09 -61.18)"/><path class="cls-21" d="M706.18,342.34c.9,3.64,4.22,13,6,13.68s8.83.87,9.91-4.95-1.3-40-2-46.23C717.44,279.28,710.07,286,708,287c-4.72,2.24-10.37,8.92-11.3,13.14C694.2,311.16,703.57,331.8,706.18,342.34Z" transform="translate(-21.09 -61.18)"/><path class="cls-22" d="M707,365.06c-2.3.7-4.11,4-4.66,5.63-1.69,5.07-5.79,16.4-3.14,17.37s7.6-12.78,9.65-12.78,4,9.64,2,13.74S703.1,396.74,705,398s12.15-2.54,15.29-6,4.22-11.46,4.22-19.54a36.89,36.89,0,0,0-1-7.78C715,366.49,710.88,365.93,707,365.06Z" transform="translate(-21.09 -61.18)"/><path class="cls-6" d="M720.27,354.44a7.7,7.7,0,0,1-4.18,1.79c.17,3.13-.05,6.9-1.53,9.62a39.8,39.8,0,0,0,4.78-.45A69.34,69.34,0,0,0,720.27,354.44Z" transform="translate(-21.09 -61.18)"/><path class="cls-6" d="M713.53,356.29,710,365.62c.48.07,1,.12,1.5.16l3.12-9.45A10.21,10.21,0,0,1,713.53,356.29Z" transform="translate(-21.09 -61.18)"/><path class="cls-6" d="M708.84,375.28a1,1,0,0,1,.64.32,17.67,17.67,0,0,0-5.23-8.39,12.87,12.87,0,0,0-.81,1.17,16.36,16.36,0,0,1,4.63,7.36A1.24,1.24,0,0,1,708.84,375.28Z" transform="translate(-21.09 -61.18)"/><path class="cls-6" d="M723,386.33a17.66,17.66,0,0,1-11.42-.08,9.69,9.69,0,0,1-.25,1.4,18.5,18.5,0,0,0,6,1,19.74,19.74,0,0,0,5.1-.69C722.67,387.44,722.85,386.91,723,386.33Z" transform="translate(-21.09 -61.18)"/><path class="cls-6" d="M708,287c1-.5,3.34-2.36,5.74-1.1l-.55-5.29c-1.66,1.74-4.23,2.46-7.46,2.74a31.63,31.63,0,0,1-7.41-.15l3.65,8.48A21.52,21.52,0,0,1,708,287Z" transform="translate(-21.09 -61.18)"/><path class="cls-23" d="M673.18,209.17c3.93-7.95,9.73-11.49,14.76-13l-14.28-10s-12.15,17.76-36.3,8.53c-15.39-5.88-2.06-18.53-2.06-18.53h-8.24S606.18,193,600.59,227.09a100.92,100.92,0,0,0-.37,30.94c4.52-2.53,10-4.1,16-2.65,13.62,3.27,28.12,29.5,42,30.45a16,16,0,0,0,9.36-2.15,48.85,48.85,0,0,1,3-14.83c1.7-4.72,4.11-11.32,6.77-18.56C668,240.08,666.69,222.3,673.18,209.17Z" transform="translate(-21.09 -61.18)"/><path class="cls-10" d="M617.25,255.66c13.33,4.24,27.47,29.25,41,30.17a16,16,0,0,0,9.36-2.15,48.85,48.85,0,0,1,3-14.83c1.7-4.72,4.11-11.32,6.77-18.56-9.32-10.21-10.65-28-4.16-41.12,3.93-7.95,9.73-11.49,14.76-13l-14.28-10s-12.15,17.76-36.3,8.53c-.42-.16-.82-.33-1.19-.5-7,9.52-17.33,27.89-18.7,54.62C617.35,251.23,617.28,253.49,617.25,255.66Z" transform="translate(-21.09 -61.18)"/><path class="cls-24" d="M658.37,285.83h-.15c-13.83-.95-28.33-27.18-42-30.45a19.91,19.91,0,0,0-7.45-.33c1.74,13.76,4.63,35.38,8,55.93a67.81,67.81,0,0,0,44.57,3.25A84.5,84.5,0,0,1,658.37,285.83Z" transform="translate(-21.09 -61.18)"/><path class="cls-6" d="M658.22,285.83c-13-.89-26.53-24-39.4-29.58l-1.57-.39,1.65,18.74c18.19,12.35,42.52,16,42.52,16l-1.7-4.76Q659,285.88,658.22,285.83Z" transform="translate(-21.09 -61.18)"/><path class="cls-6" d="M616.27,255.38a19.91,19.91,0,0,0-7.45-.33l-1.06,23.62,11.14-4.07-1.65-18.94C616.92,255.56,616.6,255.46,616.27,255.38Z" transform="translate(-21.09 -61.18)"/><polygon class="cls-25" points="589.56 216.43 589.11 226.57 597.8 222.34 597.8 213.41 589.56 216.43"/><path class="cls-25" d="M657.81,290c-7.43-1.52-25-5.88-38.91-15.35v8.92c18.19,12.35,42.52,16,42.52,16l-3.15-8.83Z" transform="translate(-21.09 -61.18)"/><path class="cls-26" d="M625.53,177.57c-3.33-.61-8-.63-11,2.79-4,4.58-10.9,16.61-11.07,34.29C609.8,193.75,621.39,181.46,625.53,177.57Z" transform="translate(-21.09 -61.18)"/><path class="cls-24" d="M650.86,173.53a60.57,60.57,0,0,1-13.28,5.71,16.36,16.36,0,0,0,3.52,1.46c1.5.19,13.66-3.17,13.66-3.17l4.93-14.41-4.05,2A23.62,23.62,0,0,1,650.86,173.53Z" transform="translate(-21.09 -61.18)"/><path class="cls-24" d="M643.26,196.52s0,0,0-.05l11.07-28.08a1.4,1.4,0,1,0-2.61-1l-11.06,28.08a1.33,1.33,0,0,0-.07.38C641.52,196.09,642.4,196.32,643.26,196.52Z" transform="translate(-21.09 -61.18)"/><path class="cls-24" d="M646.61,197.11l15.9-34.91a.7.7,0,1,0-1.27-.58l-16.07,35.27C645.65,197,646.13,197.05,646.61,197.11Z" transform="translate(-21.09 -61.18)"/><path class="cls-24" d="M655.15,197.07l11.94-38.86a1.4,1.4,0,0,0-2.67-.82L652.3,196.84a1.44,1.44,0,0,0,0,.5C653.25,197.3,654.22,197.2,655.15,197.07Z" transform="translate(-21.09 -61.18)"/><path class="cls-6" d="M661.87,168.12a10.88,10.88,0,0,1-4.91,8.51c-2.71,1.57-4.91.3-4.91-2.84a10.88,10.88,0,0,1,4.91-8.51C659.67,163.72,661.87,165,661.87,168.12Z" transform="translate(-21.09 -61.18)"/><path class="cls-6" d="M665,118.35c-7.8-5.89-18.61-3.45-23.9-1.69a38,38,0,0,1,6.94,2.66c12.48,6.23,21,21,15,24s-5,13-7.22,21.34a21.1,21.1,0,0,1-3,6.35l8.16-4.61s8.49-14.1,11.25-22.74S675.72,126.42,665,118.35Z" transform="translate(-21.09 -61.18)"/><path class="cls-27" d="M659.67,146.68c-1.62,3.07-2.06,7.42-2.71,11.87,6.81-2,14.86-5.16,14.86-5.16l2.16-10.9C669.08,145.57,663.62,146.18,659.67,146.68Z" transform="translate(-21.09 -61.18)"/><path class="cls-28" d="M671.7,150.84a10.84,10.84,0,0,1-4.91,8.5c-2.72,1.57-4.92.3-4.92-2.83a10.89,10.89,0,0,1,4.92-8.51C669.5,146.43,671.7,147.7,671.7,150.84Z" transform="translate(-21.09 -61.18)"/><path class="cls-29" d="M655.81,164.61c2.19-8.32,1.2-18.38,7.22-21.34s-2.51-17.72-15-24a40.37,40.37,0,0,0-12.12-3.77,33.17,33.17,0,0,0-4,2.54c-8.4,6.24-11.69,19.28-11.92,22s1.14,4,1.14,4.54c0,1.58-1.25,4.08-2,7.82s2,12.94,3.06,16.46-.79,7.14,3.52,10.21,15.1.13,25.16-5.6A23.2,23.2,0,0,0,655.81,164.61Z" transform="translate(-21.09 -61.18)"/><path class="cls-3" d="M624.31,165.73c.06-1.92-1.06-2.3-2.74-3.48s3.48-6.72,5.47-12.62c1.46-4.32-4-7.6-7-9.06,0,2.39,1.14,3.53,1.14,4.07,0,1.58-1.25,4.08-2,7.82s2,12.94,3.06,16.46-.79,7.14,3.52,10.21a4.44,4.44,0,0,0,.57.32A49.8,49.8,0,0,1,624.31,165.73Z" transform="translate(-21.09 -61.18)"/><path class="cls-6" d="M663.08,174.28a6.11,6.11,0,0,1-2.77,4.79c-1.53.89-2.77.17-2.77-1.6a6.11,6.11,0,0,1,2.77-4.79C661.84,171.8,663.08,172.51,663.08,174.28Z" transform="translate(-21.09 -61.18)"/><path class="cls-30" d="M657.87,150.67c0,3,2.11,4.21,4.7,2.71a10.4,10.4,0,0,0,4.71-8.14c0-3-2.11-4.22-4.71-2.72A10.42,10.42,0,0,0,657.87,150.67Z" transform="translate(-21.09 -61.18)"/><path class="cls-30" d="M658.91,150.06c0,2.33,1.64,3.28,3.66,2.12a8.11,8.11,0,0,0,3.66-6.34c0-2.33-1.64-3.28-3.66-2.11A8.09,8.09,0,0,0,658.91,150.06Z" transform="translate(-21.09 -61.18)"/><path class="cls-30" d="M659.4,149.79c0,2,1.42,2.84,3.17,1.83a7,7,0,0,0,3.18-5.5c0-2-1.42-2.85-3.18-1.84A7,7,0,0,0,659.4,149.79Z" transform="translate(-21.09 -61.18)"/><path class="cls-31" d="M659.87,149.51c0,1.73,1.21,2.42,2.7,1.56a6,6,0,0,0,2.71-4.68c0-1.72-1.21-2.42-2.71-1.56A6,6,0,0,0,659.87,149.51Z" transform="translate(-21.09 -61.18)"/><path class="cls-31" d="M660.6,149.09c0,1.26.89,1.77,2,1.14a4.37,4.37,0,0,0,2-3.42c0-1.25-.89-1.76-2-1.13A4.33,4.33,0,0,0,660.6,149.09Z" transform="translate(-21.09 -61.18)"/><path class="cls-31" d="M661.17,148.76c0,.9.63,1.26,1.4.82a3.11,3.11,0,0,0,1.41-2.44c0-.9-.63-1.26-1.41-.81A3.12,3.12,0,0,0,661.17,148.76Z" transform="translate(-21.09 -61.18)"/><path class="cls-30" d="M665.71,145.48c0,1.71,1.2,2.4,2.68,1.55a5.9,5.9,0,0,0,2.67-4.64c0-1.7-1.19-2.4-2.67-1.54A5.91,5.91,0,0,0,665.71,145.48Z" transform="translate(-21.09 -61.18)"/><path class="cls-30" d="M666.3,145.14c0,1.33.94,1.87,2.09,1.2a4.59,4.59,0,0,0,2.08-3.6c0-1.33-.93-1.87-2.08-1.21A4.62,4.62,0,0,0,666.3,145.14Z" transform="translate(-21.09 -61.18)"/><path class="cls-30" d="M666.58,145c0,1.16.81,1.62,1.81,1.05a4,4,0,0,0,1.81-3.14c0-1.15-.81-1.62-1.81-1A4,4,0,0,0,666.58,145Z" transform="translate(-21.09 -61.18)"/><path class="cls-31" d="M666.85,144.83c0,1,.69,1.38,1.54.88a3.4,3.4,0,0,0,1.54-2.66c0-1-.7-1.38-1.54-.89A3.41,3.41,0,0,0,666.85,144.83Z" transform="translate(-21.09 -61.18)"/><path class="cls-31" d="M667.26,144.59c0,.71.51,1,1.13.64a2.45,2.45,0,0,0,1.12-1.94c0-.72-.5-1-1.12-.65A2.5,2.5,0,0,0,667.26,144.59Z" transform="translate(-21.09 -61.18)"/><path class="cls-31" d="M667.59,144.4c0,.51.35.72.8.46a1.76,1.76,0,0,0,.8-1.38c0-.51-.36-.72-.8-.47A1.76,1.76,0,0,0,667.59,144.4Z" transform="translate(-21.09 -61.18)"/><path class="cls-30" d="M658.06,159.06c0,.85.6,1.2,1.34.77a3,3,0,0,0,1.34-2.32c0-.86-.6-1.2-1.34-.77A2.94,2.94,0,0,0,658.06,159.06Z" transform="translate(-21.09 -61.18)"/><path class="cls-30" d="M658.36,158.88c0,.67.46.94,1,.61a2.34,2.34,0,0,0,1-1.81c0-.66-.47-.93-1-.6A2.28,2.28,0,0,0,658.36,158.88Z" transform="translate(-21.09 -61.18)"/><path class="cls-30" d="M658.49,158.8c0,.58.41.82.91.53a2,2,0,0,0,.9-1.57c0-.58-.4-.81-.9-.52A2,2,0,0,0,658.49,158.8Z" transform="translate(-21.09 -61.18)"/><path class="cls-31" d="M658.63,158.73c0,.49.34.69.77.44a1.7,1.7,0,0,0,.77-1.33c0-.49-.35-.69-.77-.45A1.71,1.71,0,0,0,658.63,158.73Z" transform="translate(-21.09 -61.18)"/><path class="cls-31" d="M658.84,158.61c0,.36.25.5.56.32a1.23,1.23,0,0,0,.56-1c0-.36-.25-.51-.56-.33A1.25,1.25,0,0,0,658.84,158.61Z" transform="translate(-21.09 -61.18)"/><path class="cls-31" d="M659,158.51c0,.26.18.36.4.24a.9.9,0,0,0,.4-.7c0-.25-.18-.36-.4-.23A.89.89,0,0,0,659,158.51Z" transform="translate(-21.09 -61.18)"/><path class="cls-30" d="M659.83,162.52c0,.85.6,1.2,1.34.77a3,3,0,0,0,1.34-2.32c0-.86-.6-1.2-1.34-.77A2.94,2.94,0,0,0,659.83,162.52Z" transform="translate(-21.09 -61.18)"/><path class="cls-30" d="M660.12,162.35c0,.66.47.93,1,.6a2.33,2.33,0,0,0,1-1.81c0-.66-.47-.93-1-.6A2.3,2.3,0,0,0,660.12,162.35Z" transform="translate(-21.09 -61.18)"/><path class="cls-30" d="M660.26,162.27c0,.57.41.81.91.52a2,2,0,0,0,.9-1.57c0-.58-.4-.81-.9-.52A2,2,0,0,0,660.26,162.27Z" transform="translate(-21.09 -61.18)"/><path class="cls-31" d="M660.4,162.19c0,.49.34.69.77.44a1.7,1.7,0,0,0,.77-1.33c0-.49-.35-.69-.77-.45A1.71,1.71,0,0,0,660.4,162.19Z" transform="translate(-21.09 -61.18)"/><path class="cls-31" d="M660.61,162.07c0,.36.25.5.56.32a1.23,1.23,0,0,0,.56-1c0-.36-.25-.51-.56-.33A1.25,1.25,0,0,0,660.61,162.07Z" transform="translate(-21.09 -61.18)"/><path class="cls-31" d="M660.77,162c0,.26.18.36.4.24a.9.9,0,0,0,.4-.7c0-.25-.18-.36-.4-.23A.89.89,0,0,0,660.77,162Z" transform="translate(-21.09 -61.18)"/><path class="cls-30" d="M665.92,140.65c0,.85.6,1.2,1.34.77a3,3,0,0,0,1.34-2.32c0-.86-.6-1.2-1.34-.77A2.94,2.94,0,0,0,665.92,140.65Z" transform="translate(-21.09 -61.18)"/><path class="cls-30" d="M666.22,140.47c0,.67.47.94,1,.61a2.31,2.31,0,0,0,1-1.81c0-.66-.47-.93-1-.6A2.31,2.31,0,0,0,666.22,140.47Z" transform="translate(-21.09 -61.18)"/><path class="cls-30" d="M666.36,140.4c0,.57.4.81.9.52a2,2,0,0,0,.91-1.57c0-.58-.41-.81-.91-.52A2,2,0,0,0,666.36,140.4Z" transform="translate(-21.09 -61.18)"/><path class="cls-31" d="M666.49,140.32c0,.49.35.69.77.44a1.68,1.68,0,0,0,.77-1.33c0-.49-.34-.69-.77-.45A1.74,1.74,0,0,0,666.49,140.32Z" transform="translate(-21.09 -61.18)"/><path class="cls-31" d="M666.7,140.2c0,.36.25.5.56.32a1.24,1.24,0,0,0,.57-1c0-.36-.26-.51-.57-.33A1.25,1.25,0,0,0,666.7,140.2Z" transform="translate(-21.09 -61.18)"/><path class="cls-31" d="M666.86,140.1c0,.26.18.36.4.24a.9.9,0,0,0,.4-.7c0-.25-.18-.36-.4-.23A.89.89,0,0,0,666.86,140.1Z" transform="translate(-21.09 -61.18)"/><path class="cls-30" d="M669.19,139c0,1.34.94,1.88,2.1,1.21a4.66,4.66,0,0,0,2.11-3.64c0-1.35-.95-1.89-2.11-1.22A4.66,4.66,0,0,0,669.19,139Z" transform="translate(-21.09 -61.18)"/><path class="cls-30" d="M669.65,138.7c0,1,.74,1.47,1.64.94a3.63,3.63,0,0,0,1.64-2.83c0-1.05-.74-1.47-1.64-.95A3.63,3.63,0,0,0,669.65,138.7Z" transform="translate(-21.09 -61.18)"/><path class="cls-30" d="M669.87,138.57c0,.91.64,1.28,1.42.82a3.11,3.11,0,0,0,1.42-2.46c0-.91-.63-1.27-1.42-.82A3.16,3.16,0,0,0,669.87,138.57Z" transform="translate(-21.09 -61.18)"/><path class="cls-31" d="M670.08,138.45c0,.77.54,1.08,1.21.7a2.69,2.69,0,0,0,1.21-2.1c0-.77-.54-1.08-1.21-.7A2.69,2.69,0,0,0,670.08,138.45Z" transform="translate(-21.09 -61.18)"/><path class="cls-31" d="M670.41,138.26c0,.56.39.79.88.51a1.93,1.93,0,0,0,.88-1.53c0-.56-.39-.79-.88-.51A2,2,0,0,0,670.41,138.26Z" transform="translate(-21.09 -61.18)"/><path class="cls-31" d="M670.66,138.12c0,.4.28.56.63.36a1.39,1.39,0,0,0,.63-1.09c0-.4-.28-.57-.63-.37A1.4,1.4,0,0,0,670.66,138.12Z" transform="translate(-21.09 -61.18)"/><path class="cls-32" d="M722.48,388c1.47-4.07,2-9.79,2-15.58a36.89,36.89,0,0,0-1-7.78c-1.54.34-2.94.6-4.22.8a69.34,69.34,0,0,0,.93-11h0a5.86,5.86,0,0,0,1.83-3.38c1.09-5.83-1.3-40-2-46.23-1.37-13-4-17.65-6.43-18.95h0l-.55-5.29h0a8,8,0,0,0,2-4.91c.85-8.31-1.3-25.1-3.73-36.63-5.41-25.68-12.07-38.47-19.8-39-.15-.47-.29-.93-.45-1.41-.53-1.51-3.23-2.47-3.23-2.47l-14.28-10s-9.23,2.38-15.64,1.54l2.76-9a6.19,6.19,0,0,0,2.3-4.46,2.22,2.22,0,0,0-.47-1.5l4.13-13.42,0,0a10.83,10.83,0,0,0,4.38-5.69l.65-.26,2.16-10.9c-.56.35-1.13.66-1.7.95,2.71-8.58,3.37-17.07-7.28-25.09-7.8-5.89-18.61-3.45-23.9-1.69a41.61,41.61,0,0,0-5.18-1.11,33.17,33.17,0,0,0-4,2.54c-8.4,6.24-11.69,19.28-11.92,22a7.23,7.23,0,0,0,1.08,4.28h0a.61.61,0,0,1,.06.25c0,1.58-1.25,4.08-2,7.82s2,12.94,3.06,16.46c.83,2.85-.21,5.78,1.67,8.42-3.09-.29-6.77.14-9.3,3-4,4.58-10.9,16.61-11.07,34.29a96.36,96.36,0,0,0-2.89,12.44,100.92,100.92,0,0,0-.37,30.94,24.62,24.62,0,0,1,8.6-3l-1.06,23.62,4-1.46h0l-1.11.4-.24,5.46-7.62,13.19,1.82,1.37-3.06,4.79a10.07,10.07,0,0,0-2.94-.42s-9.32,12.23-10.48,19.8-.15,16.88,2.18,17.61-.14-11.5,1.6-12.37,2.05,16.15,5.39,15.57-1-11.06-.3-15.28,2.92-5,2.92-5l1.6,8.8.11-.3a85.1,85.1,0,0,0,1.42,19.8c2.67,14.95,6,32,11.52,44.84a28.56,28.56,0,0,0,5.61,2.13l1.53,5.28c-6.07,2.14,2.44,20.37,4.95,29,4,13.7,6.5,39.19,7,43.16.85.26,1.66.47,2.45.67h0c.8.2,1.57.37,2.32.52l-1.18-.24c-1.58,7.19-6.05,13.42-7.89,15.76.24.27.46.56.67.85a17.49,17.49,0,0,0-3.94-3.78c-6.25,4.83-13.75,10-21.93,16.19-9.49,7.24-9.95,14.34-2.89,14.89a40.16,40.16,0,0,0,21.43-4.77c6.66-3.81,11.58-6.69,21.33-8.6,7.47-1.46,10.25-5.85,10.54-10.31-.44.21-.87.39-1.31.58a10.73,10.73,0,0,0,1.31-4.8c0-1.94-.77-3.2-2-3.66,0-2.34,0-4.3,0-4.83-.09-1.53-2.39-1-2.39-1v-6.06l-.42.08h0c.26-.05.53-.09.77-.15.49-.11,1-.23,1.39-.37.61-4.66,3.51-24.26,4.53-39.13.54-7.95,1.54-18.7-2.93-25.85a6,6,0,0,0-.47-.65c0-.07-.11-.13-.17-.2a4.86,4.86,0,0,0-.38-.41,2.39,2.39,0,0,0-.23-.22,4.48,4.48,0,0,0-.4-.36l-.28-.23-.43-.33-.31-.21-.48-.31-.33-.2-.52-.29-.35-.18-.58-.29-.35-.16-.64-.28-.19-.08a51.5,51.5,0,0,1-1.22-10.08h0c.84-.29,1.69-.6,2.56-1,.59-.24,1.19-.51,1.8-.78l.18-1.24c2.7,9.63,6.39,19,11.11,26.41.12.19.25.39.4.6a1,1,0,0,0,.12.17c.11.17.23.33.36.5l.15.2.45.55.13.16a15.47,15.47,0,0,0,1.45,1.49l0,0a10.22,10.22,0,0,0,.79.66l.15.12c.26.19.52.38.8.56l.16.1a12.11,12.11,0,0,0,2.84,1.31l1.87,7.55h0a7.1,7.1,0,0,0-.65,1.85l-.06.25a9.21,9.21,0,0,0-.16,1.09.86.86,0,0,0,0,.16,15.17,15.17,0,0,0,0,2.51c0,.1,0,.18,0,.28,0,.37.1.77.17,1.16s.08.51.12.77.15.75.24,1.14.17.7.26,1.05.17.7.28,1.08c.2.7.43,1.43.68,2.18.09.29.21.6.31.9.2.57.4,1.14.62,1.73l.39,1c.25.63.5,1.27.77,1.93.13.3.25.61.39.92.41,1,.84,2,1.31,3,6.11,13.63,10.94,42.51,13.07,56.89a29,29,0,0,0,3.05.87h0a49.85,49.85,0,0,1-2.89,16.37,16.11,16.11,0,0,0-4.38-1c-3.18,4.63-8,11.39-11.39,15.06-5.52,6-18.13,16.41-7.9,20.22a27.07,27.07,0,0,0,30.91-8.8c7.89-10,13.73-15.21,13.34-21.43-.14.14-.29.25-.43.38a10.74,10.74,0,0,0,1.31-4.81c0-2.26-1-3.62-2.6-3.82l-.47-6.07-2.1.65c-.2-2.36-.39-4.59-.53-6.41h-.05c.69-.1,1.38-.19,2.11-.33.18-8.48.63-20.64,1.79-27.85,1.9-11.88,3.83-25.7-2.35-37.83-3.65-7.16-8.07-13-13.51-16.34h0a103.75,103.75,0,0,1-5.62-12.11c-.47.42-.94.82-1.43,1.2a34.38,34.38,0,0,0,5.1-5.07c.07-11.38-.88-24.22-1-34.85-.34-20.4,3.72-63-13.72-68.78a9.22,9.22,0,0,0-6.53.68c-.22-1.33-.48-2.29-.48-2.29a71.44,71.44,0,0,1-8.05,2.61A78,78,0,0,1,658.58,299c1.8.35,2.84.51,2.84.51l-3.15-8.83,0,0V290c2,.4,3.18.58,3.18.58l-1.7-4.76h0a15.89,15.89,0,0,0,7.86-2.18,48.85,48.85,0,0,1,3-14.83c1.7-4.72,4.11-11.32,6.77-18.56a13.76,13.76,0,0,0,3.84-3.49c1.68,6.13,3.62,12,5.3,17.05,2.11,6.34,3.79,11.47,5.28,15.62.72,2,3.19,3.2,6.52,3.72l3.65,8.48c-2.6,2.75-4.73,6-5.27,8.46-2.46,11,6.91,31.67,9.52,42.21.9,3.64,4.22,13,6,13.68a6.36,6.36,0,0,0,1.35.27h0L710,365.62c-1.08-.14-2.08-.34-3-.56-2.3.7-4.11,4-4.66,5.63-1.69,5.07-5.79,16.4-3.14,17.37,2.37.86,6.54-9.94,8.88-12.32h0a2.9,2.9,0,0,1,.4-.34h0a.64.64,0,0,1,.35-.12.82.82,0,0,1,.33.09,1.55,1.55,0,0,1,.31.23h0c1.4,1.31,2.55,6.66,2.11,10.65h0a11.48,11.48,0,0,1-.24,1.39,7.2,7.2,0,0,1-.46,1.38c-1.93,4.1-7.79,7.72-5.88,8.93s12.15-2.54,15.29-6a12.18,12.18,0,0,0,2.18-4Zm-96.91,14.76h0Zm2.69.16h0ZM645.7,406l.13,0Zm-3.44-1,.12,0Zm-7.31-1.4h0Zm-3.57-.43.17,0Zm-5.24-4.62-.39,0Zm2.9.22h0Zm19-214.39,2.22-5.64,3.6-1-3.54,7.77A21.09,21.09,0,0,1,648.06,184.37Zm-2.33-1.72a3.51,3.51,0,0,1-1.25-2.29,1.2,1.2,0,0,0,0-.2c.78-.18,1.62-.37,2.49-.59Zm5.9,3.43,4.07-8.93a5.26,5.26,0,0,0,1.26-.52,8.38,8.38,0,0,0,.81-.56,4.66,4.66,0,0,0-.23,1.4,2.42,2.42,0,0,0,.32,1.28l-2.6,8.46A31.34,31.34,0,0,1,651.63,186.08Zm10-19.56a2.92,2.92,0,0,0-.32-.69l1.13-1.94ZM643.77,177l.8-.34Zm1.74-.76.93-.44Zm1.77-.85,1.11-.56Zm-4.82,2.15h0l.29-.11Zm-17.77.79,0,0Zm-6.35,7.2.18-.22Zm1.4-1.75.18-.22Zm2.68-3.08a1.54,1.54,0,0,1,.17-.19A1.54,1.54,0,0,0,622.42,180.74ZM612.3,254.86c-.5,0-1,0-1.48,0C611.31,254.85,611.8,254.84,612.3,254.86Zm-.25-59.94.16-.28ZM614.22,255c-.37,0-.74-.07-1.11-.1C613.48,254.94,613.85,255,614.22,255Zm1-65.14.21-.31Zm1.64-2.34,0,0Zm26-70.34-.12,0Zm3.5,1.34-.4-.17Zm-1.73-.71-.3-.11Zm-39.84,92.85-.12.36Zm5.82-13.18-.06.11ZM609,200.58v0Zm-1.42,3c-.05.1-.09.21-.14.31C607.5,203.83,607.54,203.72,607.59,203.62Zm2.91,51.26c-.56,0-1.12.09-1.67.17C609.38,255,609.94,254.91,610.5,254.88Zm-2.77,56.92A14.25,14.25,0,0,0,606,306l4-4.3-4.53-3.41,6.61,5,2.94-3.59q.72,4.62,1.47,9.24a31.22,31.22,0,0,1-3.18-2.05c.17.75.35,1.45.52,2.18-.34,0-.69,0-1,0C611.21,309,609.42,309.92,607.73,311.8Zm15.37,86.38c-.63-.09-1.23-.21-1.83-.35C621.87,398,622.47,398.09,623.1,398.18Zm.67,4.48h0Zm17.59,74,.16,0-.85-.11.3,0Zm6.7.11-.54.06.33,0Zm-4.15,23h0c-.36.07-.7.12-1,.16C643.22,499.92,643.56,499.85,643.91,499.79Zm2.44-22.88h0Zm-3-.05-.48,0,.41,0ZM630,492.61a8.34,8.34,0,0,1,1.31,2.7A8.34,8.34,0,0,0,630,492.61Zm1.65,3.68c0,.11.12.21.18.32C631.81,496.5,631.74,496.4,631.69,496.29Zm.51.88a3.3,3.3,0,0,0,.28.35A3.3,3.3,0,0,1,632.2,497.17Zm.65.78c.12.12.26.23.39.34C633.11,498.18,633,498.07,632.85,498Zm4.84,2.12c-.28,0-.56-.08-.83-.13C637.13,500,637.41,500,637.69,500.07Zm-1.32-.25-.72-.2Zm-1.18-.38-.61-.26Zm-1.05-.51c-.17-.1-.34-.2-.49-.31C633.8,498.73,634,498.83,634.14,498.93Zm4.05,1.21c.3,0,.62.05.95.06C638.81,500.18,638.49,500.17,638.19,500.14Zm1.45.07,1.07,0Zm2.77-.18-1.21.12Zm-5-101.47h0ZM700.24,539a8.8,8.8,0,0,1-2.2-.69A8.8,8.8,0,0,0,700.24,539ZM673.14,432a4.32,4.32,0,0,0-.5.45A4.32,4.32,0,0,1,673.14,432Zm3.8-5.63c-.75.17-1.51.32-2.31.43C675.43,426.72,676.19,426.57,676.94,426.4ZM674.7,431a6.83,6.83,0,0,0-1.09.65A7.66,7.66,0,0,1,674.7,431Zm.41-.17a9.21,9.21,0,0,1,1-.38A9.21,9.21,0,0,0,675.11,430.84Zm1.58-.55c.36-.1.74-.19,1.13-.26C677.43,430.1,677.05,430.19,676.69,430.29Zm1.69-.37c.6-.1,1.22-.18,1.88-.23s1.35-.07,2-.07c-.66,0-1.33,0-2,.07S679,429.82,678.38,429.92Zm16.88,85.37-.27,0Zm-10.2-85.45c.31,0,.61.09.91.15C685.67,429.93,685.37,429.88,685.06,429.84Zm-2.08-.19c.4,0,.8,0,1.19.08C683.78,429.69,683.38,429.67,683,429.65Zm-.66-5.24c.43-.23.85-.46,1.27-.71C683.17,424,682.75,424.18,682.32,424.41Zm-2.48,1.12c.65-.25,1.29-.52,1.91-.82C681.13,425,680.49,425.28,679.84,425.53Zm-2.23.69c.54-.14,1-.29,1.56-.46C678.66,425.93,678.15,426.08,677.61,426.22Zm-4.32.72h0Zm-2.53-.21h0Zm1.45,6.22a6,6,0,0,0-.36.52A6,6,0,0,1,672.21,433Zm-.3-6.06h0ZM694,515.1l-.69-.12Zm-1.07,18.27-.21-.19Zm-2.2-1.65-.06,0Zm1.17.75a1,1,0,0,0-.17-.12A1,1,0,0,1,691.86,532.47Zm3.16,3.61.29.29Zm-.67-.78.23.27Zm2.16,2.09.4.27Zm-.77-.61.35.29Zm2-21.26.45,0Zm0,22.64-.46-.26Zm5.31-22.76.29,0ZM687,430.2l.59.16Zm-2.59-7c.33-.22.65-.44,1-.67C685,422.75,684.72,423,684.39,423.19ZM658.78,314.85c.78-.17,1.55-.34,2.33-.55C660.33,314.5,659.55,314.69,658.78,314.85Zm60.61,40.25-.16.09Zm-2.2.92h0Zm-4.72-74.8,0,0Zm-3.37,1.57-.18,0Zm-1,.22-.25.05Zm-1.07.18-.26,0Zm-5.26.29h0Zm2.1,0h0Zm1.09,5.43-.17.13Zm1.37-1,.22-.14Zm2-1.15c-.16.1-.31.18-.43.24C708.08,286.93,708.23,286.85,708.39,286.75Zm1.67,78.88c.48.06,1,.11,1.48.15l3.12-9.45h0a10.33,10.33,0,0,0,1.43-.1c.17,3.13-.05,6.9-1.53,9.62A27.31,27.31,0,0,1,710.06,365.63Zm9.26-.23-1.15.16Zm-1.3.18-1,.11Zm-1.23.13-.86.07Zm-1.16.09-.66,0Z" transform="translate(-21.09 -61.18)"/><g class="cls-33"><path class="cls-34" d="M138.58,707s-5.68-3.12-15.3-9.22a304,304,0,0,1-37.86-28.27c-14.67-13-30.63-29.91-43.22-51.28a157.88,157.88,0,0,1-15.34-34.95,135.5,135.5,0,0,1,0-78.34,158.57,158.57,0,0,1,15.37-34.91c12.6-21.35,28.55-38.28,43.21-51.23A305.41,305.41,0,0,1,123.3,390.6c9.6-6.08,15.3-9.16,15.28-9.19s-5.75,3.25-15.42,9.54a307.72,307.72,0,0,0-37.84,28.94C70.75,433.07,55,450.17,42.8,471.44A157.51,157.51,0,0,0,28,506a135.56,135.56,0,0,0-.05,76.41A157.93,157.93,0,0,0,42.74,616.9C55,638.18,70.69,655.31,85.27,668.5a306.88,306.88,0,0,0,37.87,29C132.82,703.78,138.6,707,138.58,707Z" transform="translate(-21.09 -61.18)"/></g><g class="cls-33"><path class="cls-34" d="M770.57,433.72s1.88,1.93,5.26,5.7a207.59,207.59,0,0,1,13.74,17.11,174.9,174.9,0,0,1,17.17,29.52,144.66,144.66,0,0,1,12.08,42.67,135.84,135.84,0,0,1-4.08,52.38c-5,18.14-14,36.21-26,52.83s-27.22,31.92-44.14,45.46a348.35,348.35,0,0,1-55.24,35.74C650.09,735.75,608,749.73,568,758.81a648.6,648.6,0,0,1-110.59,15,690.54,690.54,0,0,1-78.51-.5c-18.86-1.23-29.55-2.58-29.55-2.53s10.92,1.25,30.07,2.34a697.1,697.1,0,0,0,79.3-.06,655.78,655.78,0,0,0,110.5-15.73c39.7-9.26,81.15-23.28,119.43-43.43A351,351,0,0,0,742.93,679c16.72-13.24,31.78-28.17,43.93-44.54s21.32-34.13,26.55-52.1a135.65,135.65,0,0,0,4.88-52.24,144.18,144.18,0,0,0-11.55-43,175.26,175.26,0,0,0-17-30,208.65,208.65,0,0,0-13.8-17.5C772.48,435.71,770.56,433.73,770.57,433.72Z" transform="translate(-21.09 -61.18)"/></g><g class="cls-33"><path class="cls-34" d="M240,660.64s-3.64-2-9.8-5.9a195.36,195.36,0,0,1-24.24-18.1,137.44,137.44,0,0,1-27.67-32.83,101.2,101.2,0,0,1-9.83-22.38,86.74,86.74,0,0,1,0-50.16,100.6,100.6,0,0,1,9.84-22.36A137.45,137.45,0,0,1,206,476.11,195.93,195.93,0,0,1,230.17,458c6.15-3.89,9.8-5.87,9.79-5.89s-3.69,2.08-9.88,6.11a197,197,0,0,0-24.22,18.54c-9.33,8.43-19.4,19.38-27.23,33a100.85,100.85,0,0,0-9.49,22.1,86.86,86.86,0,0,0,0,48.92,101.19,101.19,0,0,0,9.48,22.12c7.83,13.62,17.9,24.59,27.23,33a197.15,197.15,0,0,0,24.25,18.55C236.27,658.56,240,660.62,240,660.64Z" transform="translate(-21.09 -61.18)"/></g><g class="cls-33"><path class="cls-34" d="M644.63,485.64s1.2,1.23,3.36,3.65a132.08,132.08,0,0,1,8.8,11,111.33,111.33,0,0,1,11,18.9,92.25,92.25,0,0,1,7.74,27.32A87,87,0,0,1,672.91,580a105.52,105.52,0,0,1-16.69,33.82A151.74,151.74,0,0,1,628,642.94a222.05,222.05,0,0,1-35.37,22.88c-25.11,13.21-52.05,22.16-77.66,28a414.59,414.59,0,0,1-70.81,9.62,439.44,439.44,0,0,1-50.27-.32c-12.08-.79-18.92-1.65-18.92-1.62s7,.8,19.25,1.5a446.89,446.89,0,0,0,50.78,0,420,420,0,0,0,70.75-10.07c25.42-5.93,52-14.9,76.47-27.81a224.37,224.37,0,0,0,34.74-22.35,153.94,153.94,0,0,0,28.14-28.52,106.38,106.38,0,0,0,17-33.36,86.84,86.84,0,0,0,3.13-33.45,92.28,92.28,0,0,0-7.4-27.56,111.38,111.38,0,0,0-10.92-19.22A134,134,0,0,0,648,489.38C645.85,486.91,644.62,485.64,644.63,485.64Z" transform="translate(-21.09 -61.18)"/></g><g class="cls-33"><path class="cls-35" d="M87.29,596.56s-2-3.81-4.64-10.84a122.06,122.06,0,0,1-7.21-30.33,117.52,117.52,0,0,1,3.93-44.1c4.41-15.77,12.47-31.63,23-45.77a203.73,203.73,0,0,1,35.73-36.77,282.47,282.47,0,0,1,36.67-24.95c11.23-6.44,20.9-11.14,27.71-14.28s10.78-4.75,10.77-4.77-4,1.75-10.86,5.05-16.55,8.22-27.74,14.86A289.38,289.38,0,0,0,138.34,430a207.42,207.42,0,0,0-34.9,36.31c-10.2,13.74-18.25,29.19-22.8,44.7a118.08,118.08,0,0,0-4.56,43.75,122.43,122.43,0,0,0,6.71,30.66C85.36,592.63,87.33,596.54,87.29,596.56Z" transform="translate(-21.09 -61.18)"/></g><g class="cls-33"><path class="cls-35" d="M763.07,569.81s-.42,2-1.42,5.83a130.61,130.61,0,0,1-5.51,16.05A145.29,145.29,0,0,1,743.75,615a180,180,0,0,1-21.48,26.81c-17.48,18.24-41.53,36-69.68,50.73s-60.23,26.7-93.41,35.05a551.25,551.25,0,0,1-98.63,15.25,595.65,595.65,0,0,1-86.33-.7A561.29,561.29,0,0,1,314.06,734c-14.35-2.76-22.42-4.82-22.43-4.79s8.27,2,22.86,4.65a573.1,573.1,0,0,0,60.83,7.66,605.53,605.53,0,0,0,86.32.07,561.75,561.75,0,0,0,97.21-15.35c32.41-8.15,64.15-19.69,92.17-34.2s52.28-31.87,70-50A182,182,0,0,0,743,615.39,145.16,145.16,0,0,0,755.79,592a130,130,0,0,0,5.77-16.23C762.62,571.89,763.05,569.81,763.07,569.81Z" transform="translate(-21.09 -61.18)"/></g><g class="cls-36"><path class="cls-35" d="M563.89,329.19c6.92,4,12.59,13.81,12.59,21.8V727.63c0,8-5.67,11.26-12.59,7.26L132.81,486c-6.92-4-12.58-13.81-12.59-21.8V87.58c0-8,5.67-11.26,12.59-7.26Z" transform="translate(-21.09 -61.18)"/></g><polygon class="cls-37" points="410.55 476.53 174.4 340.19 174.4 162.69 410.55 299.03 410.55 476.53"/><path class="cls-38" d="M563.89,329.19,132.82,80.32c-6.92-4-12.59-.73-12.59,7.26v21L576.48,372V351C576.48,343,570.81,333.19,563.89,329.19Z" transform="translate(-21.09 -61.18)"/><path class="cls-39" d="M152.59,110.71c0,4.3-3,6-6.74,3.89a14.9,14.9,0,0,1-6.74-11.67c0-4.3,3-6,6.74-3.89A14.91,14.91,0,0,1,152.59,110.71Z" transform="translate(-21.09 -61.18)"/><path class="cls-39" d="M176.29,124.4c0,4.29-3,6-6.74,3.89a14.91,14.91,0,0,1-6.74-11.68c0-4.29,3-6,6.74-3.89A14.91,14.91,0,0,1,176.29,124.4Z" transform="translate(-21.09 -61.18)"/><path class="cls-39" d="M200,138.08c0,4.3-3,6-6.74,3.89a14.9,14.9,0,0,1-6.74-11.67c0-4.3,3-6,6.74-3.89A14.87,14.87,0,0,1,200,138.08Z" transform="translate(-21.09 -61.18)"/><path class="cls-40" d="M574,324.16,142.88,75.28c-3.59-2.07-6.85-2.19-9.15-.7l-9.8,4.87c2.28-1.31,5.43-1.13,8.89.87L563.89,329.19c6.92,4,12.59,13.81,12.59,21.8V727.63c0,4.18-1.57,7.06-4.05,8.29h0l9.47-4.77c2.82-1,4.63-4,4.63-8.57V346C586.54,338,580.88,328.15,574,324.16Z" transform="translate(-21.09 -61.18)"/><path class="cls-41" d="M591.33,311.76,160.26,62.89c-6.92-4-12.59-.73-12.59,7.27v7.89L574,324.16c6.92,4,12.58,13.81,12.58,21.8V714.7l4.79,2.77c6.92,4,12.58.72,12.58-7.27V333.57C603.92,325.57,598.25,315.76,591.33,311.76Z" transform="translate(-21.09 -61.18)"/><polygon class="cls-35" points="410.55 287.82 297.33 222.46 297.33 177.8 410.55 243.17 410.55 287.82"/><polygon class="cls-42" points="287.62 502.13 174.4 436.76 174.4 351.39 287.62 416.76 287.62 502.13"/><polygon class="cls-41" points="182.38 347.18 182.38 356 287.62 416.76 287.62 493.31 295.6 497.92 295.6 412.55 182.38 347.18"/><polygon class="cls-42" points="410.55 573.1 297.32 507.74 297.33 422.36 410.55 487.73 410.55 573.1"/><polygon class="cls-41" points="305.31 418.15 305.31 426.97 410.55 487.73 410.55 564.28 418.53 568.89 418.53 483.52 305.31 418.15"/><polygon class="cls-35" points="533.48 358.8 420.25 293.43 420.26 248.77 533.48 314.14 533.48 358.8"/><polygon class="cls-42" points="533.48 644.08 420.25 578.71 420.26 304.63 533.48 370 533.48 644.08"/><polygon class="cls-41" points="428.24 300.42 428.24 309.24 533.48 370 533.48 635.25 541.46 639.86 541.46 365.79 428.24 300.42"/><polygon class="cls-42" points="164.69 430.51 114.25 401.39 114.25 72.1 164.69 101.23 164.69 430.51"/><polygon class="cls-41" points="122.23 67.89 122.23 76.71 164.69 101.23 164.69 421.69 172.67 426.3 172.68 97.01 122.23 67.89"/><polygon class="cls-43" points="150.73 157.91 121.36 140.95 121.36 138.45 150.73 155.41 150.73 157.91"/><polygon class="cls-43" points="150.73 167.04 121.36 150.08 121.36 147.58 150.73 164.54 150.73 167.04"/><polygon class="cls-43" points="150.73 272.36 121.36 255.4 121.36 252.9 150.73 269.86 150.73 272.36"/><polygon class="cls-43" points="150.73 281.49 121.36 264.53 121.36 262.03 150.73 278.99 150.73 281.49"/><polygon class="cls-43" points="150.73 176.16 121.36 159.21 121.36 156.71 150.73 173.66 150.73 176.16"/><polygon class="cls-43" points="150.73 185.29 121.36 168.33 121.36 165.83 150.73 182.79 150.73 185.29"/><polygon class="cls-43" points="133.96 184.73 121.36 177.46 121.36 174.96 133.96 182.23 133.96 184.73"/><polygon class="cls-43" points="150.73 323.21 121.36 306.25 121.36 303.75 150.73 320.71 150.73 323.21"/><polygon class="cls-43" points="133.96 322.65 121.36 315.38 121.36 312.88 133.96 320.15 133.96 322.65"/><polygon class="cls-43" points="150.73 218.17 121.36 201.21 121.36 198.71 150.73 215.67 150.73 218.17"/><polygon class="cls-43" points="150.73 227.29 121.36 210.33 121.36 207.83 150.73 224.79 150.73 227.29"/><polygon class="cls-43" points="133.96 226.73 121.36 219.46 121.36 216.96 133.96 224.23 133.96 226.73"/><polygon class="cls-44" points="287.62 216.85 174.4 151.49 174.4 106.83 287.62 172.2 287.62 216.85"/><polygon class="cls-41" points="182.38 102.61 182.38 111.44 287.62 172.2 287.62 208.03 295.6 212.64 295.6 167.98 182.38 102.61"/><polygon class="cls-45" points="280.85 205.71 179.65 147.29 179.65 141.92 280.85 200.34 280.85 205.71"/><polygon class="cls-39" points="236.23 179.95 179.65 147.29 179.65 141.92 236.23 174.58 236.23 179.95"/><polygon class="cls-46" points="270.55 172.84 260.26 178.78 280.85 190.66 270.55 172.84"/><polygon class="cls-39" points="230.65 150.87 179.65 121.42 179.65 118.92 230.65 148.37 230.65 150.87"/><polygon class="cls-39" points="230.64 156.7 179.65 127.26 179.65 124.76 230.65 154.2 230.64 156.7"/><polygon class="cls-39" points="211.11 151.26 179.65 133.09 179.65 130.59 211.11 148.75 211.11 151.26"/><polygon class="cls-47" points="410.55 287.82 297.33 222.46 297.33 177.8 410.55 243.17 410.55 287.82"/><polygon class="cls-41" points="305.31 173.58 305.31 182.41 410.55 243.17 410.55 279 418.53 283.61 418.53 238.95 305.31 173.58"/><polygon class="cls-37" points="403.77 276.68 302.58 218.26 302.58 212.89 403.78 271.31 403.77 276.68"/><polygon class="cls-39" points="359.16 250.93 302.58 218.26 302.58 212.89 359.16 245.56 359.16 250.93"/><polygon class="cls-37" points="393.48 255.69 403.78 249.75 383.19 237.86 393.48 255.69"/><polygon class="cls-39" points="353.57 221.84 302.58 192.4 302.58 189.89 353.57 219.34 353.57 221.84"/><polygon class="cls-39" points="353.57 227.67 302.58 198.23 302.58 195.73 353.57 225.17 353.57 227.67"/><polygon class="cls-39" points="334.03 222.23 302.58 204.06 302.58 201.56 334.03 219.72 334.03 222.23"/><polygon class="cls-48" points="533.48 358.8 420.25 293.43 420.26 248.77 533.48 314.14 533.48 358.8"/><polygon class="cls-41" points="428.24 244.56 428.24 253.38 533.48 314.14 533.48 349.97 541.46 354.58 541.46 309.92 428.24 244.56"/><polygon class="cls-49" points="526.7 347.65 425.51 289.23 425.5 283.86 526.71 342.29 526.7 347.65"/><polygon class="cls-39" points="482.09 321.9 425.51 289.23 425.5 283.86 482.09 316.53 482.09 321.9"/><polygon class="cls-49" points="516.41 314.78 506.12 320.72 526.71 332.61 516.41 314.78"/><polygon class="cls-39" points="476.5 292.81 425.51 263.37 425.51 260.87 476.5 290.31 476.5 292.81"/><polygon class="cls-39" points="476.5 298.64 425.5 269.2 425.5 266.7 476.5 296.14 476.5 298.64"/><polygon class="cls-39" points="456.96 293.2 425.5 275.04 425.5 272.53 456.96 290.7 456.96 293.2"/><path class="cls-50" d="M176.44,187.17c0,10.86-7.62,15.26-17,9.83s-17-18.63-17-29.49,7.62-15.27,17-9.84S176.44,176.31,176.44,187.17Z" transform="translate(-21.09 -61.18)"/><path class="cls-35" d="M166,175.56c0,4.18-2.94,5.88-6.57,3.79A14.51,14.51,0,0,1,152.86,168c0-4.18,2.93-5.88,6.55-3.79A14.51,14.51,0,0,1,166,175.56Z" transform="translate(-21.09 -61.18)"/><path class="cls-35" d="M164.48,182.51l0,0-5,2.92-5-8.74h0a6.69,6.69,0,0,0-6.49,2.85c2.64,5.57,6.83,10.6,11.55,13.33s8.92,2.53,11.56,0A32.08,32.08,0,0,0,164.48,182.51Z" transform="translate(-21.09 -61.18)"/><path class="cls-51" d="M195.49,331.23s3.83-5.09,15.64,4.22c13.75,10.83,18,48.91,28.47,55s13-14.54,19.09-11,7.58,8.49,18.73,14.93,41.47-13.13,58.56-3.26,28.53,56.63,34.63,60.15,9.81-5.18,15.6-1.84,8.62,13.93,15.46,17.88,18.58-19.65,23.18-17a16.17,16.17,0,0,1,6.43,7.31v80L195.49,401.47Z" transform="translate(-21.09 -61.18)"/><path class="cls-52" d="M431.28,478.9c-12-6.95-22.44-56.93-29.8-61.18s-14.88,26.7-44.8,9.42c-17.28-10-29.12-38.8-46.57-48.87-30.56-17.64-27.2,26.61-45.44,16.07-7.84-4.52-12.16-19.95-27-28.54-18.41-10.63-26.81,3.9-42.14-22.66v58.33L431.28,537.6Z" transform="translate(-21.09 -61.18)"/><path class="cls-53" d="M195.49,308.12C216,320,235.12,359.64,249.72,368.07s10.64-8.68,25.9.13,34.58,54.69,54.12,66,29-21.8,37.21-17.05,15.81,60,24.7,65.09,4.51-11,19.59-2.32,20,26.65,20,26.65V537.6L195.49,401.47Z" transform="translate(-21.09 -61.18)"/><g class="cls-54"><path class="cls-39" d="M403.33,467.93a3.54,3.54,0,0,1-1.78-.47c-3.61-2.09-6.09-5.95-8.48-9.68-2.19-3.41-4.25-6.62-7-8.2s-5-.36-7.37.93-5,2.75-8.23.9c-2.35-1.35-5.37-8.7-9.2-18-6.25-15.19-14.8-36-25.43-42.14-9.37-5.41-22.91-1.85-34.85,1.29-10,2.63-18.65,4.9-23.71,2a53.25,53.25,0,0,1-12.4-9.68,29.54,29.54,0,0,0-6.33-5.25c-2.43-1.41-4.33,1.47-6.52,4.79-2.86,4.36-6.43,9.79-12.57,6.24-5.09-2.94-8.73-13.31-12.58-24.3-4.13-11.75-8.8-25.07-15.91-30.68-6.42-5.05-10.41-5.79-12.63-5.51a4.12,4.12,0,0,0-2.68,1.24l-.38-.29a4.47,4.47,0,0,1,3-1.42c2.31-.3,6.44.43,13,5.61,7.23,5.69,11.72,18.5,16.07,30.89,3.82,10.9,7.43,21.2,12.36,24,5.75,3.32,9-1.68,11.95-6.09,2.22-3.38,4.33-6.57,7.15-4.94a29.92,29.92,0,0,1,6.42,5.32,52.85,52.85,0,0,0,12.31,9.61c4.89,2.83,13.86.47,23.35-2,12-3.16,25.67-6.75,35.21-1.24,10.77,6.22,19.36,27.11,25.63,42.37,3.64,8.86,6.79,16.5,9,17.78,3,1.71,5.3.44,7.77-.9s4.85-2.65,7.83-.93,4.92,4.89,7.14,8.35c2.36,3.69,4.81,7.5,8.32,9.53s8.8-4.06,13.41-9.46c4-4.74,7.51-8.84,9.77-7.54a16.53,16.53,0,0,1,6.53,7.44l-.44.17a16.1,16.1,0,0,0-6.33-7.19c-1.91-1.11-5.43,3-9.17,7.43C411.51,462.64,407,467.93,403.33,467.93Z" transform="translate(-21.09 -61.18)"/></g><g class="cls-54"><path class="cls-39" d="M431.16,479.1c-6.83-3.94-13.07-21.39-18.58-36.79-4.15-11.61-8.06-22.57-11.22-24.39-2.28-1.31-4.63,1-7.89,4.3-6.68,6.68-16.75,16.77-36.91,5.13-8.66-5-16.07-14.86-23.24-24.4S318.69,383.5,310,378.48c-17-9.85-23.39-.26-29,8.21-4.28,6.46-8.32,12.56-16.46,7.86-3.35-1.93-6-5.78-9.15-10.25C251,378.05,246.08,371,237.51,366c-6.86-4-12.4-4.41-17.29-4.81-8.21-.67-15.29-1.24-24.94-17.95l.42-.23c9.51,16.48,16.15,17,24.56,17.71,4.94.4,10.53.85,17.49,4.86,8.66,5,13.86,12.46,18,18.44,3.08,4.42,5.74,8.23,9,10.11,7.75,4.48,11.49-1.17,15.82-7.72,5.71-8.63,12.18-18.42,29.62-8.36,8.79,5.07,16.25,15,23.47,24.61s14.52,19.31,23.1,24.27c19.84,11.45,29.76,1.52,36.33-5.05,3.28-3.29,5.87-5.88,8.47-4.38,3.3,1.91,7.07,12.44,11.43,24.64,5.48,15.32,11.69,32.68,18.37,36.54Z" transform="translate(-21.09 -61.18)"/></g><g class="cls-54"><path class="cls-39" d="M431.05,506.6c-.05-.18-5.12-18-19.93-26.51-8.34-4.81-10.57-1.89-12.52.68-1.56,2.05-3,4-7.07,1.65-4.61-2.67-8.85-18.44-12.94-33.7-3.84-14.31-7.81-29.11-11.76-31.39-3.07-1.77-6.36,2.06-10.52,6.91-6.54,7.61-14.66,17.08-26.69,10.14-10.42-6-20.6-21.55-30.44-36.57-8.52-13-16.57-25.3-23.68-29.4-7.57-4.38-10.22-2.33-13-.16s-5.52,4.28-12.88,0c-6.72-3.88-14.46-14.43-22.65-25.6-9.6-13.1-20.49-27.95-31.58-34.35l.24-.42c11.18,6.46,22.1,21.35,31.73,34.49,8.16,11.13,15.86,21.64,22.5,25.47,7.08,4.09,9.64,2.1,12.35,0s5.7-4.42,13.55.11c7.21,4.16,15.29,16.5,23.84,29.55,9.81,15,19.95,30.46,30.28,36.42,11.67,6.74,19.66-2.56,26.09-10,4.14-4.82,7.72-9,11.12-7,4.12,2.38,7.94,16.61,12,31.68s8.28,30.84,12.72,33.4c3.69,2.13,4.9.52,6.45-1.51,2-2.6,4.42-5.84,13.14-.81,15,8.65,20.1,26.61,20.15,26.79Z" transform="translate(-21.09 -61.18)"/></g><path class="cls-55" d="M463.67,459.22c0-21.38,15-30.05,33.53-19.36h0v-9.1c-13.73-7.92-25.44-7.8-33.51.37-13.44,13.6-9.34,45.88,9.16,72.09l4.64-4.7C469.12,486.65,463.67,472.1,463.67,459.22Z" transform="translate(-21.09 -61.18)"/><path class="cls-56" d="M497.2,430.76v9.1c18.51,10.7,33.53,36.7,33.53,58.08s-15,30-33.53,19.35c-7.37-4.25-14.18-10.93-19.71-18.77l-4.64,4.7c7.41,10.48,15.2,17.9,24.35,23.18,22.87,13.21,41.41,2.5,41.41-23.91S520.07,444,497.2,430.76Z" transform="translate(-21.09 -61.18)"/><path class="cls-35" d="M478.5,474V462q0-7.68,5.28-4.64a9.51,9.51,0,0,1,2.35,1.91,9.2,9.2,0,0,1,1.57,2.42,13,13,0,0,1,.84,2.59,12.8,12.8,0,0,1,.27,2.62v.4l-1.93-1.11a16.16,16.16,0,0,0-.25-2.75,6.38,6.38,0,0,0-.66-1.95,5,5,0,0,0-1-1.32,7.68,7.68,0,0,0-1.39-1,3.39,3.39,0,0,0-1.29-.49,1.14,1.14,0,0,0-.93.33,2.73,2.73,0,0,0-.61,1.41,15.19,15.19,0,0,0-.19,2.72v5.11a7.61,7.61,0,0,1,3.34,1.22,9.85,9.85,0,0,1,2.49,2,10,10,0,0,1,1.69,2.64,14.37,14.37,0,0,1,.93,3,16.36,16.36,0,0,1,.31,3.25,12.33,12.33,0,0,1-.32,3,4.4,4.4,0,0,1-1,2,2.13,2.13,0,0,1-1.73.71,5.56,5.56,0,0,1-2.54-.87,9.43,9.43,0,0,1-4-4.39A16.46,16.46,0,0,1,478.5,474Zm2.07-3.85v4.87a24.68,24.68,0,0,0,.13,2.74,12.24,12.24,0,0,0,.37,2.05,5.64,5.64,0,0,0,.65,1.51,5.84,5.84,0,0,0,.89,1.09,6.39,6.39,0,0,0,1.17.84c1.21.7,2.09.76,2.65.18s.83-2,.83-4.24a12.7,12.7,0,0,0-.8-5,6,6,0,0,0-2.55-2.79,13.12,13.12,0,0,0-1.93-.93A3,3,0,0,0,480.57,470.19Z" transform="translate(-21.09 -61.18)"/><path class="cls-35" d="M491.86,481.61V470.28a15.77,15.77,0,0,1,.17-2.52,6.56,6.56,0,0,1,.57-1.92,2.83,2.83,0,0,1,1-1.2,2.41,2.41,0,0,1,1.58-.23,6,6,0,0,1,2.2.84A10.22,10.22,0,0,1,501.2,469a11.72,11.72,0,0,1,1,2.39,14,14,0,0,1,.58,2.59,21.19,21.19,0,0,1,.17,2.71V488q0,8.25-5.56,5.05T491.86,481.61Zm9.05,5.76V475c0-3.87-1.16-6.47-3.49-7.82s-3.5-.08-3.5,3.78v12.39q0,5.82,3.5,7.83C499.75,492.51,500.91,491.24,500.91,487.37Z" transform="translate(-21.09 -61.18)"/><path class="cls-35" d="M505.28,478.55v-3.67c0-3.4,1-4.5,3.08-3.32s3.07,3.47,3.07,6.87v3.67c0,3.5-1,4.65-3.07,3.47S505.28,482.05,505.28,478.55Zm4.56,2.58v-3.58c0-2.36-.5-3.83-1.48-4.4s-1.49.33-1.49,2.69v3.58q0,3.72,1.49,4.57C509.34,484.56,509.84,483.61,509.84,481.13Zm-1.18,18,7.5-22.69,1.69,1-7.52,22.69Zm6.49-1.07V494.4q0-5.08,3.07-3.32T521.3,498v3.67q0,5.25-3.07,3.47C516.18,503.91,515.16,501.57,515.15,498.07Zm4.56,2.58v-3.57c0-2.37-.49-3.84-1.48-4.41s-1.48.33-1.48,2.69v3.58q0,3.72,1.48,4.57T519.71,500.65Z" transform="translate(-21.09 -61.18)"/><path class="cls-55" d="M529.85,622.42c-4.37,13-17,16.94-31.89,8.34-18.52-10.69-33.53-36.69-33.53-58.07s15-30.05,33.53-19.36h0v-9.11c-18.3-10.56-33.73-6.52-39.39,10.3-7.06,21,4.84,54.9,26.59,75.61s45.12,20.47,52.19-.57Z" transform="translate(-21.09 -61.18)"/><path class="cls-57" d="M498,544.22v9.11C516.47,564,531.48,590,531.48,611.4a34.65,34.65,0,0,1-1.63,11l7.5,7.14a40.86,40.86,0,0,0,2-13.61C539.38,589.54,520.83,557.43,498,544.22Z" transform="translate(-21.09 -61.18)"/><path class="cls-35" d="M478.72,587.29v-.41l1.93,1.12a16.26,16.26,0,0,0,.25,2.75,6.51,6.51,0,0,0,.69,2,5.14,5.14,0,0,0,1,1.34,7.52,7.52,0,0,0,1.45,1,3.69,3.69,0,0,0,1.34.53,1.24,1.24,0,0,0,1-.31,2.54,2.54,0,0,0,.63-1.39,15.05,15.05,0,0,0,.2-2.72,15.67,15.67,0,0,0-.17-2.46,11.41,11.41,0,0,0-.55-2.18,6.74,6.74,0,0,0-1.09-1.94,7.24,7.24,0,0,0-1.67-1.54v-2c1.31.7,2.21.79,2.72.3s.76-1.71.76-3.63a9.33,9.33,0,0,0-.77-4.16,6,6,0,0,0-2.37-2.46c-1.07-.61-1.89-.68-2.47-.2s-.9,1.63-1,3.42l-1.94-1.13v-.39a8.65,8.65,0,0,1,.28-2.35,3.66,3.66,0,0,1,.9-1.61,2.1,2.1,0,0,1,1.69-.54,6.07,6.07,0,0,1,2.55.91,10,10,0,0,1,3.46,3.36,12,12,0,0,1,1.54,4.23,13.7,13.7,0,0,1,.17,2.13,6.06,6.06,0,0,1-.9,3.74,2.08,2.08,0,0,1-2.3.79,12.26,12.26,0,0,1,3.2,8.89q0,7.68-5.41,4.55a9.79,9.79,0,0,1-2-1.53,10,10,0,0,1-1.48-1.84,11.24,11.24,0,0,1-1-2,11.85,11.85,0,0,1-.55-2.12A13.07,13.07,0,0,1,478.72,587.29Z" transform="translate(-21.09 -61.18)"/><path class="cls-35" d="M492,593.31V582a17.07,17.07,0,0,1,.17-2.53,6.27,6.27,0,0,1,.58-1.92,2.71,2.71,0,0,1,1-1.19,2.38,2.38,0,0,1,1.59-.24,6.39,6.39,0,0,1,2.19.84,10.32,10.32,0,0,1,2.2,1.7,9.81,9.81,0,0,1,1.58,2.07,11.65,11.65,0,0,1,1,2.38,15.24,15.24,0,0,1,.57,2.59,19.76,19.76,0,0,1,.17,2.72v11.33c0,5.5-1.85,7.19-5.56,5S492,598.82,492,593.31Zm9.06,5.77v-12.4q0-5.79-3.5-7.81c-2.33-1.34-3.49-.09-3.49,3.78V595q0,5.81,3.49,7.83T501,599.08Z" transform="translate(-21.09 -61.18)"/><path class="cls-35" d="M505.4,590.26v-3.68c0-3.39,1-4.5,3.08-3.31s3.07,3.47,3.07,6.86v3.67q0,5.25-3.07,3.48T505.4,590.26Zm4.56,2.58v-3.58c0-2.37-.5-3.84-1.48-4.41s-1.49.33-1.49,2.7v3.58q0,3.71,1.49,4.56C509.46,596.26,510,595.31,510,592.84Zm-1.18,18,7.5-22.7,1.69,1-7.52,22.69Zm6.5-1.07V606.1c0-3.39,1-4.5,3.07-3.31s3.07,3.47,3.07,6.86v3.68c0,3.5-1,4.65-3.07,3.47S515.28,613.28,515.28,609.78Zm4.55,2.58v-3.58c0-2.37-.49-3.84-1.48-4.41s-1.48.33-1.48,2.7v3.58q0,3.71,1.48,4.56T519.83,612.36Z" transform="translate(-21.09 -61.18)"/><polygon class="cls-58" points="267.92 455.43 207.47 420.53 207.47 418.03 267.92 452.93 267.92 455.43"/><polygon class="cls-58" points="267.92 464.56 207.47 429.66 207.47 427.16 267.92 462.06 267.92 464.56"/><polygon class="cls-58" points="241.05 458.17 207.47 438.78 207.47 436.28 241.05 455.67 241.05 458.17"/><polygon class="cls-58" points="267.92 419.39 207.47 384.49 207.47 381.99 267.92 416.89 267.92 419.39"/><polygon class="cls-58" points="267.92 428.51 207.47 393.61 207.47 391.11 267.92 426.01 267.92 428.51"/><polygon class="cls-58" points="241.06 422.13 207.47 402.74 207.47 400.24 241.05 419.63 241.06 422.13"/><path class="cls-58" d="M222.62,450.11c0,6.29-4.42,8.84-9.86,5.69S202.9,445,202.9,438.73s4.42-8.83,9.86-5.69S222.62,443.83,222.62,450.11Z" transform="translate(-21.09 -61.18)"/><path class="cls-58" d="M222.62,486.16c0,6.28-4.42,8.83-9.86,5.69s-9.86-10.79-9.86-17.07,4.42-8.84,9.86-5.7S222.62,479.87,222.62,486.16Z" transform="translate(-21.09 -61.18)"/><g class="cls-59"><polygon class="cls-35" points="390.9 504.31 346.24 478.52 346.24 476.92 390.9 502.71 390.9 504.31"/><polygon class="cls-35" points="398.66 512.36 346.24 482.09 346.24 480.5 398.66 510.76 398.66 512.36"/><polygon class="cls-35" points="382.4 506.38 346.24 485.5 346.24 483.9 382.4 504.78 382.4 506.38"/></g><g class="cls-59"><polygon class="cls-35" points="390.9 535.37 346.24 509.58 346.24 507.99 390.9 533.78 390.9 535.37"/><polygon class="cls-35" points="398.66 543.43 346.24 513.16 346.24 511.56 398.66 541.83 398.66 543.43"/><polygon class="cls-35" points="382.4 537.44 346.24 516.56 346.24 514.96 382.4 535.84 382.4 537.44"/></g><path class="cls-58" d="M326.52,502.26s5.47-3.06,12.81,1.18,10.95,18.36,23.19,25.42v16.73l-36-20.79Z" transform="translate(-21.09 -61.18)"/><path class="cls-35" d="M362.52,526.17c-7-4-11.13-10.26-14.8-15.75-2.82-4.22-5.25-7.86-8.39-9.67-7.17-4.14-12.62-1.2-12.67-1.17l-.28-.49c.05,0,5.61-3,12.95,1.2,3.28,1.89,5.76,5.6,8.63,9.91,3.63,5.42,7.73,11.57,14.56,15.51Z" transform="translate(-21.09 -61.18)"/><path class="cls-58" d="M342.54,546.42a6.33,6.33,0,0,0-2.87-5l-10.42-6c-1.59-.91-2.87-.17-2.87,1.66a6.34,6.34,0,0,0,2.87,5l10.42,6C341.25,549,342.54,548.24,342.54,546.42Z" transform="translate(-21.09 -61.18)"/><path class="cls-35" d="M339.67,547a4.19,4.19,0,0,1-1.9-3.29c0-1.21.85-1.7,1.9-1.09a4.2,4.2,0,0,1,1.9,3.28C341.57,547.07,340.72,547.56,339.67,547Z" transform="translate(-21.09 -61.18)"/><path class="cls-58" d="M349.37,558a6.32,6.32,0,0,0-2.87-5l-17.25-10c-1.59-.92-2.87-.18-2.87,1.65a6.32,6.32,0,0,0,2.87,5l17.25,10C348.09,560.57,349.37,559.83,349.37,558Z" transform="translate(-21.09 -61.18)"/><path class="cls-35" d="M346.5,558.53a4.17,4.17,0,0,1-1.9-3.28c0-1.22.85-1.71,1.9-1.1a4.19,4.19,0,0,1,1.9,3.29C348.4,558.65,347.55,559.14,346.5,558.53Z" transform="translate(-21.09 -61.18)"/><path class="cls-58" d="M355.23,569a6.38,6.38,0,0,0-2.87-5L329.25,550.7c-1.59-.91-2.87-.17-2.87,1.66a6.34,6.34,0,0,0,2.87,5l23.11,13.34C353.94,571.59,355.23,570.84,355.23,569Z" transform="translate(-21.09 -61.18)"/><path class="cls-35" d="M352.36,569.55a4.19,4.19,0,0,1-1.9-3.29c0-1.21.85-1.7,1.9-1.09a4.17,4.17,0,0,1,1.9,3.29C354.26,569.67,353.41,570.16,352.36,569.55Z" transform="translate(-21.09 -61.18)"/><path class="cls-58" d="M343.51,569.89a6.32,6.32,0,0,0-2.87-5l-11.39-6.58c-1.59-.91-2.87-.17-2.87,1.66a6.34,6.34,0,0,0,2.87,5l11.39,6.58C342.23,572.46,343.51,571.72,343.51,569.89Z" transform="translate(-21.09 -61.18)"/><path class="cls-35" d="M340.64,570.42a4.17,4.17,0,0,1-1.9-3.29c0-1.21.85-1.7,1.9-1.09a4.19,4.19,0,0,1,1.9,3.29C342.54,570.54,341.69,571,340.64,570.42Z" transform="translate(-21.09 -61.18)"/><path class="cls-35" d="M337,335.09a4.72,4.72,0,0,1-2.36-.72,11.35,11.35,0,0,1-5.13-8.88c0-2.32,1.18-3.82,3-3.82a4.75,4.75,0,0,1,2.36.72,11.35,11.35,0,0,1,5.13,8.88C340,333.59,338.8,335.09,337,335.09Zm-4.48-12.94c-1.56,0-2.53,1.28-2.53,3.34a10.83,10.83,0,0,0,4.89,8.47,4.31,4.31,0,0,0,2.12.65c1.56,0,2.53-1.28,2.53-3.34a10.83,10.83,0,0,0-4.89-8.47A4.31,4.31,0,0,0,332.5,322.15Z" transform="translate(-21.09 -61.18)"/><rect class="cls-35" x="314.15" y="273.22" width="0.48" height="56.39"/><path class="cls-35" d="M259.5,310a4.77,4.77,0,0,1-2.35-.71,11.36,11.36,0,0,1-5.13-8.89c0-2.32,1.18-3.81,3-3.81a4.83,4.83,0,0,1,2.36.71,11.38,11.38,0,0,1,5.12,8.89C262.51,308.47,261.33,310,259.5,310ZM255,297c-1.56,0-2.53,1.28-2.53,3.34a10.79,10.79,0,0,0,4.89,8.47,4.2,4.2,0,0,0,2.11.66c1.57,0,2.54-1.28,2.54-3.34a10.82,10.82,0,0,0-4.89-8.47A4.23,4.23,0,0,0,255,297Z" transform="translate(-21.09 -61.18)"/><rect class="cls-35" x="236.67" y="248.1" width="0.48" height="69.89"/><path class="cls-35" d="M402,387.43a4.77,4.77,0,0,1-2.35-.71,11.36,11.36,0,0,1-5.13-8.89c0-2.32,1.18-3.82,3-3.82a4.85,4.85,0,0,1,2.36.72,11.37,11.37,0,0,1,5.13,8.88C405,385.93,403.81,387.43,402,387.43Zm-4.47-12.94c-1.56,0-2.53,1.28-2.53,3.34a10.83,10.83,0,0,0,4.89,8.47A4.31,4.31,0,0,0,402,387c1.57,0,2.54-1.28,2.54-3.34a10.83,10.83,0,0,0-4.89-8.47A4.31,4.31,0,0,0,397.51,374.49Z" transform="translate(-21.09 -61.18)"/><rect class="cls-35" x="379.15" y="325.56" width="0.48" height="30.9"/><path class="cls-35" d="M367.56,377.88a4.8,4.8,0,0,1-2.36-.71,11.35,11.35,0,0,1-5.13-8.89c0-2.31,1.18-3.81,3-3.81a4.83,4.83,0,0,1,2.36.71,11.36,11.36,0,0,1,5.13,8.89C370.57,376.39,369.38,377.88,367.56,377.88Zm-4.48-12.94c-1.56,0-2.53,1.28-2.53,3.34a10.83,10.83,0,0,0,4.89,8.48,4.31,4.31,0,0,0,2.12.65c1.56,0,2.53-1.28,2.53-3.34a10.79,10.79,0,0,0-4.89-8.47A4.23,4.23,0,0,0,363.08,364.94Z" transform="translate(-21.09 -61.18)"/><rect class="cls-35" x="344.73" y="316.01" width="0.48" height="39.91"/><path class="cls-35" d="M215.9,299.59a4.72,4.72,0,0,1-2.36-.72,11.35,11.35,0,0,1-5.13-8.88c0-2.32,1.18-3.82,3-3.82a4.72,4.72,0,0,1,2.36.72,11.35,11.35,0,0,1,5.13,8.88C218.91,298.09,217.73,299.59,215.9,299.59Zm-4.48-12.94c-1.56,0-2.53,1.28-2.53,3.34a10.83,10.83,0,0,0,4.89,8.47,4.31,4.31,0,0,0,2.12.65c1.56,0,2.53-1.28,2.53-3.34a10.83,10.83,0,0,0-4.89-8.47A4.31,4.31,0,0,0,211.42,286.65Z" transform="translate(-21.09 -61.18)"/><rect class="cls-35" x="193.07" y="237.72" width="0.48" height="39.91"/><path class="cls-60" d="M171.81,705.57s.63,17.58,1.88,19.46,9.82,3.48,18.75-4.91,17.18-16.65,19.59-19.07,3.53-12.54,0-14.14-13.88-.63-14.59-.36S171.81,705.57,171.81,705.57Z" transform="translate(-21.09 -61.18)"/><path class="cls-61" d="M212.85,687.51c.32,3.56-.2,8.73-1.94,11-2.58,3.4-15.17,15.16-20,18.67a13.43,13.43,0,0,1-13.11,1.86,7.79,7.79,0,0,0-5.17-.28c.28,3,.64,5.58,1.08,6.24,1.25,1.87,9.82,3.48,18.75-4.91s17.18-16.65,19.59-19.07C214.23,698.86,215.35,690.22,212.85,687.51Z" transform="translate(-21.09 -61.18)"/><path class="cls-62" d="M162.24,491.39S158,506.28,158,513.68c-.11,12.13,6.19,19.14,6.19,19.14s1.94,26.32,4.48,39.78,4.64,25.72,3.59,29.91-9.87,23.93-9,38.89,12.36,44.27,9.25,66.55l18.39-11.36s1.46-30.22,1.46-44,1.71-31,5.15-41.28,8.07-72.23,8.07-72.23l-5.08-28.57Z" transform="translate(-21.09 -61.18)"/><path class="cls-63" d="M200.83,690.54l3.4-6.8-17.67-6.46s-2.07,5.15-3.92,7,.1,19.14,6.29,20.2,14.35-4.31,14.35-4.31S202.17,692.93,200.83,690.54Z" transform="translate(-21.09 -61.18)"/><path class="cls-64" d="M250.16,536.87c-3.53-19.65-9.51-33.94-9.78-37.58l-56.47-3.11a43.33,43.33,0,0,0-3.08,27.26c3.2,15.7,20.9,22.57,20.9,22.57s10.89,28.4,13.29,32.43,6.67,12,6.67,12S210,607.91,206.07,616.85s-10.32,32.38-13.72,41.44-7.94,19.91-7.94,19.91,6.17,9.44,20,12.34c0,0,23.68-47,31.74-63.23s17.38-35.77,17.5-43.08S253.68,556.52,250.16,536.87Z" transform="translate(-21.09 -61.18)"/><path class="cls-65" d="M250.16,536.87c-3.53-19.65-9.51-33.94-9.78-37.58l-11.49-.63c2.91,9,10.13,32.53,13.52,52.58,4.31,25.44,4.92,41,3.49,43.08s-18,16.41-29.08,40c-6.78,14.37-16.13,36.82-22.52,52.45a35.79,35.79,0,0,0,10.14,3.77s23.68-47,31.74-63.23,17.38-35.77,17.5-43.08S253.68,556.52,250.16,536.87Z" transform="translate(-21.09 -61.18)"/><path class="cls-66" d="M170.4,366.74s-7.64-.59-12.64,2.74-9.75,10.85-7,21,18.54,38.92,20.81,50.21,3.07,18.54.47,22.82c-3.67,6.06-10.58,26.16-10.58,26.16s-5.11,22.95,20.93,34.48,49.62-22.23,54.56-23.42a21,21,0,0,1,4.16-.71s-3-13.56-4.75-17.72-4.52-17-3.81-23.18,11.3-34.95,11.77-36.14-12.25-24.89-15.07-27.71S207.58,372.22,170.4,366.74Z" transform="translate(-21.09 -61.18)"/><path class="cls-67" d="M167.16,468s-6.09-25.32-6.07-28.21c0-1.77,2.28-10.09,4-16.29-5.48-12.31-12.61-26.48-14.37-33a21.17,21.17,0,0,1-.58-8.75c-1.87,5.32-3.82,12.11-4.18,17.22-.63,9.06-4.53,38.92-3.9,46s2.7,13.23,8.84,23.81,7,11.46,7,11.46S165.52,479.68,167.16,468Z" transform="translate(-21.09 -61.18)"/><path class="cls-63" d="M161.45,489.67s4.59-13.35,8.28-21.57h-2.59c-1.56,10.72-8.09,11.95-9.06,12.08a72.63,72.63,0,0,0,3.21,10.47C161.37,490,161.45,489.67,161.45,489.67Z" transform="translate(-21.09 -61.18)"/><path class="cls-68" d="M284.11,346c1,0,1.77.52,1.68,2.85s.28,6.8.28,6.8,2.45,1,3.17,2.43l.72,1.46s2.64-.53,3.38,1.52l1.26,3.45s2.85,2.24,3,3.78-1.91,9-2.19,11.32-5.27,21.82-5.5,25-6.51,34.46-12.73,48.62c-1.33,3.05-5.64,9.51-9.67,9.19s-8.38-21.43-4.83-29.66,16.38-40.15,16.81-42.26.27-5.49,0-5.59-5.15-8.56-5.54-11.75-2.79-8.56-2.4-9.16,3.94-1.24,6.18,3.09c0,0,1-6,1.76-9.06S281.4,346,284.11,346Z" transform="translate(-21.09 -61.18)"/><path class="cls-63" d="M296.42,366.17a95.11,95.11,0,0,1-4,17.05,41.75,41.75,0,0,1-4,8L274,405.1c0,.14-.1.28-.16.42,1.61-.09,9.81-.57,16.16-1.1.38-3.68,5.21-22.56,5.48-24.86s2.38-9.79,2.19-11.32A4.46,4.46,0,0,0,296.42,366.17Z" transform="translate(-21.09 -61.18)"/><path class="cls-68" d="M200.54,389.88s-1.37-13.78.49-19,3.62-6.1,5.91-6.73c1.79-.49,5.52.41,9.37-8.06s2.14-12,2.71-15.52,1.54-6.08.81-9.49S217.48,315,207.27,311s-22.45-2.75-29,1.38-11.51,13.38-11.1,22.77,5.75,15.08,6.07,21.48-3.32,14.43-7,19.53,4.6,11.8,10.15,14.13C188.82,395.53,200.54,389.88,200.54,389.88Z" transform="translate(-21.09 -61.18)"/><path class="cls-63" d="M206.2,355.89a120.56,120.56,0,0,1-.79-12.86l-11.29,9.19s1.78,23.67-4.62,34.22a6.29,6.29,0,0,0-.52,6.05,32.41,32.41,0,0,0,11.56-2.61s-1.37-13.78.49-19,3.62-6.1,5.91-6.73a13,13,0,0,0,3.79-1A11.2,11.2,0,0,1,206.2,355.89Z" transform="translate(-21.09 -61.18)"/><path class="cls-69" d="M209.92,387.29c-3.57-18.52-10.34-31.82-4-38.73l1.46-2.34c.14,0,1,2.53,3,1.89,1.05-.33,2.2-6,3.31-9.32.27-.79.66-1.81,1.1-2.92a97.13,97.13,0,0,1-8,8l-.58-.57s9.49-8.55,12.61-15.36c0,0-6.65,9-10.86,11.55s-9.24,5.54-6.87,18.19c1.87,10,8.43,26.6,8.48,37.95A20.21,20.21,0,0,0,209.92,387.29Z" transform="translate(-21.09 -61.18)"/><path class="cls-70" d="M214.48,311.66c-4.1-4.61-11.09-9.62-26.48-7.39-7.42,1.07-13.22,7-16,11.22-3.17,4.72-6,11.4-4.69,24.55s1,24.31-7.21,33.13c-4.56,4.91-6.38,18.39-1.73,26.33a24.27,24.27,0,0,1-.22-17.14l.08-.2c0,.06-.05.13-.08.2a25.23,25.23,0,0,0,2.23,19.79,11.23,11.23,0,0,0,3.22,2.29c11.4,5.35,26,9.11,29.17,8.69,2.5-.34,5.85-2.21,8.94-5.08a30,30,0,0,1-3.54,4c6.59-3.18,9.78-11,11.06-15.13a40.9,40.9,0,0,1-2.35,9.25s4.14-7.32,4.19-13.05-3.15-14.95-3.15-14.95h0c-3.47-13.81-7.21-23.92-1.95-29.64l1.46-2.34c.14,0,1,2.53,3,1.89,1.05-.33,2.2-6,3.31-9.32.27-.79.66-1.81,1.1-2.92C227.56,324.45,214.48,311.66,214.48,311.66Z" transform="translate(-21.09 -61.18)"/><path class="cls-69" d="M218.07,329.16c-2.67,4.91-7.65,6.28-13.31,12.06s-5,19-1,31A75.31,75.31,0,0,1,207.84,394a52.54,52.54,0,0,0-5.66-19s5,12.53,2.91,21.25-9.69,13-9.69,13c2.79-3.2,5.13-9.46,5.13-9.46-4.49,7.86-10.26,9.95-10.26,9.95a38.07,38.07,0,0,0,8.34-34.45c1.92,31.52-17.86,33.48-17.86,33.48l1.49-3.15c-1.05,1.23-3.59,3.33-5.43,2.19s-3.32-5.16-3.32-5.16v4.37c-2-1-4.54-5.51-4.54-5.51v3.68c-6.79-9.15-2-29-2-29-6,15.51-1.6,27.32-1.6,27.32-5.25-4.45-5.25-14.95-5.25-14.95a15.65,15.65,0,0,0,0,7.69c-1.13-2.53-3-9.26,2.54-19.67s5.95-17.05,5.95-17.05a39.49,39.49,0,0,1-2.93,7.34,36.42,36.42,0,0,0,2.12-19.58h0c.37,10-1.08,18.7-7.73,25.84-4.56,4.91-6.38,18.39-1.73,26.33a24.27,24.27,0,0,1-.22-17.14l.08-.2c0,.06-.05.13-.08.2a25.23,25.23,0,0,0,2.23,19.79,11.23,11.23,0,0,0,3.22,2.29c11.4,5.35,26,9.11,29.17,8.69,2.5-.34,5.85-2.21,8.94-5.08a30,30,0,0,1-3.54,4c6.59-3.18,9.78-11,11.06-15.13a40.9,40.9,0,0,1-2.35,9.25s4.14-7.32,4.19-13.05-3.15-14.95-3.15-14.95h0c-3.47-13.81-7.21-23.92-1.95-29.64l1.46-2.34c.14,0,1,2.53,3,1.89,1.05-.33,2.2-6,3.31-9.32.27-.79.66-1.81,1.1-2.92l-4.1,2.17A26.55,26.55,0,0,0,218.07,329.16Z" transform="translate(-21.09 -61.18)"/><path class="cls-68" d="M207.44,356.56c-.35.62-4.66,1.15-4.22-6.32s5.37-9.41,5.45-4A41.81,41.81,0,0,1,207.44,356.56Z" transform="translate(-21.09 -61.18)"/><path class="cls-69" d="M188,304.27c-7.42,1.07-13.22,7-16,11.22-3.17,4.72-6,11.4-4.69,24.55.26,2.58.45,5.08.53,7.5a58.24,58.24,0,0,1,1.78,5.81c1.07,5.16-.62,17.42-.62,17.42,1.34-3.38,2-11.55,2-11.55,1.24,4.62-1.24,20.31-1.24,20.31,3-5.58,5.34-18.9,4-37.16s10.24-30.29,14.75-33.39a23.83,23.83,0,0,1,16.65-3.71C201,303.81,195.47,303.19,188,304.27Z" transform="translate(-21.09 -61.18)"/><g class="cls-71"><path class="cls-69" d="M184.54,322.42a14.49,14.49,0,0,0-1.84,2.3,24.14,24.14,0,0,0-3.22,7,26.87,26.87,0,0,0-.89,5.12,44,44,0,0,0,0,5.84c.23,4.07.54,8.44.68,12.84.33,8.79-.09,17.56-1.72,23.88a29.6,29.6,0,0,1-2.76,7.32,17.63,17.63,0,0,1-1.62,2.47,17.4,17.4,0,0,0,1.56-2.56,31.16,31.16,0,0,0,2.53-7.43,65.8,65.8,0,0,0,1.34-11c.2-4,.16-8.36,0-12.66s-.41-8.61-.58-12.68a44.45,44.45,0,0,1,0-5.9,26.65,26.65,0,0,1,1-5.2,23.82,23.82,0,0,1,3.46-7.11A14.26,14.26,0,0,1,184.54,322.42Z" transform="translate(-21.09 -61.18)"/></g><path class="cls-69" d="M182.69,396.5a85.44,85.44,0,0,0,3.08-9.63,69.09,69.09,0,0,0,1.89-10.22,38.07,38.07,0,0,0,.14-5.87c-.14-2-.44-4-.66-6.08-1-8.2-1.79-16.35-1.59-22.46a31.06,31.06,0,0,1,.9-7.29,9.45,9.45,0,0,1,1.05-2.57,9.4,9.4,0,0,0-1,2.64,32.1,32.1,0,0,0-.67,7.35c0,6.12,1,14.22,1.92,22.25.22,2,.5,4,.63,6a36.2,36.2,0,0,1-.2,5.92,62.45,62.45,0,0,1-2.1,10.27A76.46,76.46,0,0,1,182.69,396.5Z" transform="translate(-21.09 -61.18)"/><path class="cls-69" d="M203.89,312a15.44,15.44,0,0,0-5.55,1.52,21.63,21.63,0,0,0-5,3.21,27.08,27.08,0,0,0-4.57,5.09,43,43,0,0,0-5.47,11.56c-1,3.33-1.47,5.62-1.49,5.61a57.34,57.34,0,0,1,1.19-5.77,37.94,37.94,0,0,1,5.23-11.78,24.8,24.8,0,0,1,4.69-5.08,20.65,20.65,0,0,1,5.2-3.11A14.73,14.73,0,0,1,203.89,312Z" transform="translate(-21.09 -61.18)"/><g class="cls-71"><path class="cls-69" d="M209.69,318.52a17.51,17.51,0,0,0-2.85,1.43,24.75,24.75,0,0,0-6.35,5.52,26.66,26.66,0,0,0-5.18,10.68,34.89,34.89,0,0,0-.9,6.72c-.11,2.32-.15,4.69-.1,7.07.07,4.76.55,9.48.76,13.91a56.07,56.07,0,0,1-.62,12.07,68.77,68.77,0,0,1-1.92,8.27c-.58,1.95-1,3.06-.95,3.06s.34-1.14.87-3.14a73.47,73.47,0,0,0,1.7-8.39,59.53,59.53,0,0,0,.36-12c-.27-4.39-.79-9.07-.85-13.76,0-2.35,0-4.7.11-7a34.11,34.11,0,0,1,1-6.77,26.34,26.34,0,0,1,5.41-10.8,24.12,24.12,0,0,1,6.59-5.49A17.17,17.17,0,0,1,209.69,318.52Z" transform="translate(-21.09 -61.18)"/></g><path class="cls-72" d="M293.7,391.13s-8.28,40.55-12.36,52.8-8.46,19.22-12.7,19.57-17.57-9.61-27.72-17S209.16,428,208.36,414.76s10-22.5,17.21-20.41S243.11,411.77,245.8,415s16.92,15.63,16.92,15.63,5.38-12.74,6.87-16,9.56-25.71,9.56-25.71,2.33-1.19,7.39-.53S293.7,391.13,293.7,391.13Z" transform="translate(-21.09 -61.18)"/><path class="cls-73" d="M232.54,459.12c.29-2.51,2.21-8.73,4.41-15.33-7.08-4.7-16.66-10.57-22.75-17.29l0,.22s7.91,8,10.2,15.8-2.26,25,1.22,36.59c1.86,6.17,4.4,16.36,6.18,25.74,2.41-2.29,4.19-3.88,5.19-4.12a21,21,0,0,1,4.16-.71s-3-13.56-4.75-17.72S231.83,465.3,232.54,459.12Z" transform="translate(-21.09 -61.18)"/><path class="cls-60" d="M182.71,681.55a80.82,80.82,0,0,0-8,9c-4,5.29-7.94,13.24-7,15.47s10,8.12,15.81,11.07,21.07,10.27,24.55,10.36,11.25-4.91,12-8.66-.85-8.71-4.11-10.27a47.35,47.35,0,0,0-8.66-2.68s-2-8.3-2.23-10.53-4.28-4.76-4.28-4.76l.76,7.66s-6.67.84-9.33-.13S191.54,686.55,182.71,681.55Z" transform="translate(-21.09 -61.18)"/><path class="cls-74" d="M220.11,718.78a11.31,11.31,0,0,0-.42-5.51c-.26,8.88-5.94,10.54-8.6,11-2.85.45-12.23-4.73-17.13-8.74s-8.49-1.79-11.79-3.93-4.65-4.91-7.06-9.74a9.31,9.31,0,0,0-4.59-4.62c-2,3.81-3.34,7.43-2.73,8.82,1,2.23,10,8.12,15.81,11.07s21.07,10.27,24.55,10.36S219.4,722.53,220.11,718.78Z" transform="translate(-21.09 -61.18)"/><path class="cls-75" d="M192.4,698.11a8.32,8.32,0,0,0,5.59,1.81c3.63-.07,5.42-.27,5.9-1.92a18,18,0,0,0,.21-4.68,16.55,16.55,0,0,0-3.27-2.78l.76,7.66S195.14,699,192.4,698.11Z" transform="translate(-21.09 -61.18)"/></g></g></svg>