<svg id="Layer_1" data-name="Layer 1" xmlns="http://www.w3.org/2000/svg" xmlns:xlink="http://www.w3.org/1999/xlink" viewBox="0 0 578.17 426.22"><defs><style>.cls-1{fill:url(#linear-gradient);}.cls-2{fill:#38cec3;}.cls-3{fill:url(#linear-gradient-2);}.cls-4{fill:url(#linear-gradient-3);}.cls-5{fill:url(#linear-gradient-4);}.cls-6{fill:url(#linear-gradient-5);}.cls-7{fill:#898989;}.cls-8{fill:#fff;}.cls-9{fill:url(#linear-gradient-6);}.cls-10{fill:url(#linear-gradient-7);}.cls-11{fill:url(#linear-gradient-8);}.cls-12{fill:url(#linear-gradient-9);}.cls-13{fill:#ff4d4d;}.cls-14{fill:url(#linear-gradient-10);}.cls-15{fill:url(#linear-gradient-11);}.cls-16{fill:url(#linear-gradient-12);}.cls-17{fill:url(#linear-gradient-13);}.cls-18{fill:url(#linear-gradient-14);}.cls-19{fill:url(#linear-gradient-15);}.cls-20{fill:#236696;}.cls-21{fill:#1d0066;}.cls-22{fill:#340059;}.cls-23{fill:url(#linear-gradient-16);}.cls-24{fill:url(#linear-gradient-17);}.cls-25{fill:#3f0063;}.cls-26{fill:url(#linear-gradient-18);}.cls-27{fill:url(#linear-gradient-19);}.cls-28{fill:url(#linear-gradient-20);}.cls-29{fill:#111314;}.cls-30{fill:#ffcca7;}.cls-31{fill:#f7f7f7;}.cls-32{fill:url(#linear-gradient-21);}.cls-33{fill:url(#linear-gradient-22);}.cls-34{fill:url(#linear-gradient-23);}.cls-35{fill:url(#linear-gradient-24);}.cls-36{fill:#722382;}.cls-37{fill:url(#linear-gradient-25);}.cls-38{fill:url(#linear-gradient-26);}.cls-39{fill:url(#linear-gradient-27);}.cls-40{fill:url(#linear-gradient-28);}.cls-41{fill:url(#linear-gradient-29);}.cls-42{fill:url(#linear-gradient-30);}.cls-43{fill:url(#linear-gradient-31);}.cls-44{fill:#926822;}.cls-45{fill:url(#linear-gradient-32);}.cls-46{fill:url(#linear-gradient-33);}.cls-47{fill:url(#linear-gradient-34);}.cls-48{fill:#b5802a;}.cls-49{fill:#eee2b0;}.cls-50{fill:url(#linear-gradient-35);}.cls-51{fill:url(#linear-gradient-36);}.cls-52{fill:url(#linear-gradient-37);}.cls-53{fill:url(#linear-gradient-38);}.cls-54{fill:url(#linear-gradient-39);}.cls-55{fill:url(#linear-gradient-40);}.cls-56{fill:url(#linear-gradient-41);}.cls-57{fill:#5d0da6;}.cls-58{fill:url(#linear-gradient-42);}.cls-59{fill:url(#linear-gradient-43);}.cls-60{fill:#ffe8d9;}.cls-61{fill:url(#linear-gradient-44);}.cls-62{fill:url(#linear-gradient-45);}.cls-63{fill:#8c165f;}.cls-64{fill:url(#linear-gradient-46);}.cls-65{fill:url(#linear-gradient-47);}.cls-66{fill:url(#linear-gradient-48);}.cls-67{fill:url(#linear-gradient-49);}.cls-68{fill:#604be0;opacity:0.5;isolation:isolate;}.cls-69{fill:url(#linear-gradient-50);}.cls-70{fill:url(#linear-gradient-51);}</style><linearGradient id="linear-gradient" x1="-546.39" y1="661.33" x2="-545.39" y2="661.33" gradientTransform="matrix(41.02, 0, 0, -37.15, 22945.45, 24878.55)" gradientUnits="userSpaceOnUse"><stop offset="0" stop-color="#d13cff"/><stop offset="1" stop-color="#7e20d5"/></linearGradient><linearGradient id="linear-gradient-2" x1="-545.51" y1="635.15" x2="-543.87" y2="635.15" gradientTransform="matrix(50.08, 0, 0, -48.38, 27728.51, 31091.18)" xlink:href="#linear-gradient"/><linearGradient id="linear-gradient-3" x1="-539" y1="632.33" x2="-540.95" y2="632.93" gradientTransform="matrix(131.34, 0, 0, -49.8, 71456.27, 31918.54)" xlink:href="#linear-gradient"/><linearGradient id="linear-gradient-4" x1="-540.63" y1="588.92" x2="-539.63" y2="588.92" gradientTransform="matrix(131.09, 0, 0, -103.72, 71449.01, 61467.63)" xlink:href="#linear-gradient"/><linearGradient id="linear-gradient-5" x1="-539.28" y1="574.81" x2="-538.28" y2="574.81" gradientTransform="matrix(269.69, 0, 0, -159.31, 145879.85, 91916.06)" gradientUnits="userSpaceOnUse"><stop offset="0" stop-color="#fe9fee"/><stop offset="1" stop-color="#e33ce3"/></linearGradient><linearGradient id="linear-gradient-6" x1="-545.83" y1="636.34" x2="-544.21" y2="637.42" gradientTransform="matrix(47.49, 0, 0, -47.34, 26386.26, 30387.61)" xlink:href="#linear-gradient"/><linearGradient id="linear-gradient-7" x1="-539.62" y1="632.73" x2="-540.61" y2="632.65" gradientTransform="matrix(131.22, 0, 0, -49.79, 71341.32, 31780.79)" xlink:href="#linear-gradient"/><linearGradient id="linear-gradient-8" x1="-539.22" y1="574.87" x2="-538.23" y2="574.71" gradientTransform="matrix(276.15, 0, 0, -159.45, 149175.46, 91851.77)" xlink:href="#linear-gradient-5"/><linearGradient id="linear-gradient-9" x1="-539.92" y1="588.87" x2="-538.92" y2="588.87" gradientTransform="matrix(179.37, 0, 0, -103.85, 96977.62, 61483.07)" xlink:href="#linear-gradient"/><linearGradient id="linear-gradient-10" x1="-540.62" y1="632.68" x2="-539.62" y2="632.68" gradientTransform="matrix(131.47, 0, 0, -49.8, 71347.61, 31815.7)" xlink:href="#linear-gradient"/><linearGradient id="linear-gradient-11" x1="-539.28" y1="574.79" x2="-538.28" y2="574.79" gradientTransform="matrix(269.79, 0, 0, -159.44, 145622.93, 91931.24)" xlink:href="#linear-gradient-5"/><linearGradient id="linear-gradient-12" x1="-539.24" y1="592.71" x2="-538.24" y2="592.71" gradientTransform="matrix(276.27, 0, 0, -94.82, 149184.68, 56701.7)" xlink:href="#linear-gradient"/><linearGradient id="linear-gradient-13" x1="-546.06" y1="664.97" x2="-545.05" y2="664.97" gradientTransform="matrix(42.7, 0, 0, -35.99, 23668.67, 24357.64)" xlink:href="#linear-gradient"/><linearGradient id="linear-gradient-14" x1="-546.39" y1="660.94" x2="-545.39" y2="660.94" gradientTransform="matrix(41.02, 0, 0, -37.28, 22625.05, 25066.75)" xlink:href="#linear-gradient"/><linearGradient id="linear-gradient-15" x1="-539.25" y1="575.31" x2="-538.25" y2="575.31" gradientTransform="matrix(276.14, 0, 0, -156.35, 149115.43, 90403.69)" xlink:href="#linear-gradient-5"/><linearGradient id="linear-gradient-16" x1="-553.78" y1="836.08" x2="-552.78" y2="836.08" gradientTransform="matrix(21.8, 0, 0, -14.58, 12475.51, 12621.51)" xlink:href="#linear-gradient"/><linearGradient id="linear-gradient-17" x1="-557.5" y1="667.47" x2="-558.14" y2="668.56" gradientTransform="matrix(16.9, 0, 0, -35.02, 9858.23, 23845.98)" gradientUnits="userSpaceOnUse"><stop offset="0.12" stop-color="#4b00d4"/><stop offset="1" stop-color="#c557e9"/></linearGradient><linearGradient id="linear-gradient-18" x1="-547.53" y1="635.13" x2="-546.54" y2="635.13" gradientTransform="matrix(36.08, 0, 0, -48.39, 20147.55, 31184.04)" xlink:href="#linear-gradient-17"/><linearGradient id="linear-gradient-19" x1="-544.26" y1="795.68" x2="-545.28" y2="795.43" gradientTransform="matrix(47.36, 0, 0, -16.96, 26230.57, 13979.62)" xlink:href="#linear-gradient-5"/><linearGradient id="linear-gradient-20" x1="-545.25" y1="717.62" x2="-544.25" y2="717.62" gradientTransform="matrix(47.46, 0, 0, -24.79, 26283.51, 18264.96)" xlink:href="#linear-gradient-5"/><linearGradient id="linear-gradient-21" x1="-759.45" y1="2259.33" x2="-758.45" y2="2259.33" gradientTransform="matrix(1.55, 0, 0, -2.45, 1594.62, 6009.11)" xlink:href="#linear-gradient-17"/><linearGradient id="linear-gradient-22" x1="-550.62" y1="652.8" x2="-551.4" y2="653.65" gradientTransform="matrix(25.66, 0, 0, -40.01, 14538.96, 26592.71)" xlink:href="#linear-gradient-17"/><linearGradient id="linear-gradient-23" x1="-558.77" y1="800.44" x2="-557.77" y2="800.44" gradientTransform="matrix(16.56, 0, 0, -16.64, 9662.05, 13755.45)" xlink:href="#linear-gradient"/><linearGradient id="linear-gradient-24" x1="-591.76" y1="905.68" x2="-590.77" y2="905.68" gradientTransform="matrix(6.4, 0, 0, -11.74, 4205.19, 11069.22)" xlink:href="#linear-gradient"/><linearGradient id="linear-gradient-25" x1="-557.08" y1="792.34" x2="-556.07" y2="792.34" gradientTransform="matrix(18.04, 0, 0, -17.19, 10449.71, 14058.73)" xlink:href="#linear-gradient"/><linearGradient id="linear-gradient-26" x1="-550.52" y1="669.01" x2="-549.46" y2="669.16" gradientTransform="matrix(27.44, 0, 0, -34.77, 15531.31, 23733.19)" xlink:href="#linear-gradient-5"/><linearGradient id="linear-gradient-27" x1="-549.35" y1="670" x2="-550.59" y2="669.68" gradientTransform="matrix(27.3, 0, 0, -34.56, 15460.44, 23619.07)" gradientUnits="userSpaceOnUse"><stop offset="0" stop-color="#c100ff"/><stop offset="1" stop-color="#6e00ff"/></linearGradient><linearGradient id="linear-gradient-28" x1="-560.76" y1="654.22" x2="-559.73" y2="654.96" gradientTransform="matrix(15.09, 0, 0, -39.54, 8968.41, 26158.38)" xlink:href="#linear-gradient-17"/><linearGradient id="linear-gradient-29" x1="-629.6" y1="1435.34" x2="-628.59" y2="1435.34" gradientTransform="matrix(3.76, 0, 0, -4.73, 2869.75, 7038.29)" xlink:href="#linear-gradient-5"/><linearGradient id="linear-gradient-30" x1="-677.56" y1="901.71" x2="-676.53" y2="901.71" gradientTransform="matrix(2.46, 0, 0, -11.87, 2173.2, 10966.24)" xlink:href="#linear-gradient-5"/><linearGradient id="linear-gradient-31" x1="-644.35" y1="882.21" x2="-643.33" y2="882.21" gradientTransform="matrix(3.23, 0, 0, -12.56, 2584.69, 11346.51)" xlink:href="#linear-gradient-5"/><linearGradient id="linear-gradient-32" x1="-779.03" y1="1753.68" x2="-778.09" y2="1753.68" gradientTransform="matrix(1.43, 0, 0, -3.48, 1613.56, 6363.88)" xlink:href="#linear-gradient-27"/><linearGradient id="linear-gradient-33" x1="-693.82" y1="1680.11" x2="-692.86" y2="1680.11" gradientTransform="matrix(2.21, 0, 0, -3.7, 2032.23, 6487.86)" xlink:href="#linear-gradient-27"/><linearGradient id="linear-gradient-34" x1="-566.53" y1="880.03" x2="-565.53" y2="880.03" gradientTransform="matrix(12.06, 0, 0, -12.64, 7327.83, 11384.12)" xlink:href="#linear-gradient-27"/><linearGradient id="linear-gradient-35" x1="-563.31" y1="787.51" x2="-562.31" y2="787.51" gradientTransform="matrix(13.59, 0, 0, -17.54, 8137.91, 14077.3)" xlink:href="#linear-gradient-5"/><linearGradient id="linear-gradient-36" x1="-595.09" y1="1085.91" x2="-594.08" y2="1085.91" gradientTransform="matrix(6.03, 0, 0, -7.8, 4072.65, 8734.76)" xlink:href="#linear-gradient-27"/><linearGradient id="linear-gradient-37" x1="-586.29" y1="1027.96" x2="-585.29" y2="1027.96" gradientTransform="matrix(7.12, 0, 0, -8.74, 4664.08, 9251.25)" xlink:href="#linear-gradient-27"/><linearGradient id="linear-gradient-38" x1="-559.84" y1="802.24" x2="-558.84" y2="802.24" gradientTransform="matrix(15.75, 0, 0, -16.52, 9306.59, 13515.41)" xlink:href="#linear-gradient-5"/><linearGradient id="linear-gradient-39" x1="-563.82" y1="783.37" x2="-563.82" y2="784.37" gradientTransform="matrix(13.07, 0, 0, -17.81, 7856.1, 14226.32)" xlink:href="#linear-gradient-27"/><linearGradient id="linear-gradient-40" x1="-559.66" y1="743.19" x2="-559.66" y2="744.19" gradientTransform="matrix(15.53, 0, 0, -21.48, 9178.25, 16237.03)" xlink:href="#linear-gradient-27"/><linearGradient id="linear-gradient-41" x1="-558.77" y1="744.78" x2="-557.77" y2="744.78" gradientTransform="matrix(16.56, 0, 0, -21.36, 9735.02, 16172.38)" xlink:href="#linear-gradient-27"/><linearGradient id="linear-gradient-42" x1="-550.29" y1="626.07" x2="-549.29" y2="626.07" gradientTransform="matrix(27.99, 0, 0, -54.04, 15912.15, 34119.32)" xlink:href="#linear-gradient-17"/><linearGradient id="linear-gradient-43" x1="-560.59" y1="937.63" x2="-562.39" y2="937.81" gradientTransform="matrix(14.66, 0, 0, -10.77, 8745.05, 10364.77)" xlink:href="#linear-gradient-17"/><linearGradient id="linear-gradient-44" x1="-547.99" y1="741.29" x2="-547.06" y2="741.88" gradientTransform="matrix(33.64, 0, 0, -21.73, 18946.46, 16388.1)" xlink:href="#linear-gradient-17"/><linearGradient id="linear-gradient-45" x1="-560.52" y1="779.86" x2="-559.52" y2="779.86" gradientTransform="matrix(15.27, 0, 0, -18.12, 8861.24, 14526.75)" xlink:href="#linear-gradient-17"/><linearGradient id="linear-gradient-46" x1="-551.96" y1="628.55" x2="-550.78" y2="629.11" gradientTransform="matrix(24.85, 0, 0, -52.16, 14021.53, 33214.13)" xlink:href="#linear-gradient-17"/><linearGradient id="linear-gradient-47" x1="-559.08" y1="801.16" x2="-558.08" y2="801.16" gradientTransform="matrix(16.32, 0, 0, -16.59, 9448.19, 13686.43)" xlink:href="#linear-gradient-17"/><linearGradient id="linear-gradient-48" x1="-540.97" y1="687.67" x2="-540.28" y2="687.67" gradientTransform="matrix(50.21, 0, 0, -30.12, 27598.5, 21164.47)" gradientUnits="userSpaceOnUse"><stop offset="0" stop-color="#faf2ff"/><stop offset="1" stop-color="#acb8bf"/></linearGradient><linearGradient id="linear-gradient-49" x1="-542.9" y1="692.2" x2="-542.53" y2="691.77" gradientTransform="matrix(50.24, 0, 0, -28.83, 27617.04, 20456.16)" xlink:href="#linear-gradient-5"/><linearGradient id="linear-gradient-50" x1="-545.6" y1="708.97" x2="-544.6" y2="708.97" gradientTransform="matrix(45.28, 0, 0, -26.12, 24948.53, 18970.24)" xlink:href="#linear-gradient-27"/><linearGradient id="linear-gradient-51" x1="-591.49" y1="2788.15" x2="-590.47" y2="2788.15" gradientTransform="matrix(3.36, 0, 0, -1.87, 2435.77, 5677.33)" xlink:href="#linear-gradient-48"/></defs><title>smoothflow-home-We-Bring-The-Pieces-Together_01</title><g id="Group_934" data-name="Group 934"><g id="Group_888" data-name="Group 888"><g id="Group_887" data-name="Group 887"><g id="Group_883" data-name="Group 883"><g id="Group_882" data-name="Group 882"><path id="Path_1036" data-name="Path 1036" class="cls-1" d="M573.48,309.24v18.19c0-4-2.2-7.74-6.86-10.32-5.3-3-12.68-4.26-20.83-3.87-4.14.26-8.41-.39-11.39-2.06a3.46,3.46,0,0,1-1.94-2.71V290.28a3.26,3.26,0,0,0,1.94,2.7c3,1.68,7.25,2.33,11.39,2.07,8-.39,15.53.77,20.83,3.87,4.53,2.58,6.86,6.32,6.86,10.32Z" transform="translate(-133.77 -124.38)"/></g></g><g id="Group_885" data-name="Group 885"><g id="Group_884" data-name="Group 884"><path id="Path_1037" data-name="Path 1037" class="cls-2" d="M501.79,317.62v18.19a4.68,4.68,0,0,1-.25,1.29,11.19,11.19,0,0,0-.52,3.49V322.4a10.63,10.63,0,0,1,.52-3.49A4.68,4.68,0,0,0,501.79,317.62Z" transform="translate(-133.77 -124.38)"/></g></g><g id="Group_886" data-name="Group 886"><path id="Path_1038" data-name="Path 1038" class="cls-3" d="M490.41,368.58l-48.27-27.74V359l48.27,27.74a3,3,0,0,1,1.81,2.45V371A3,3,0,0,0,490.41,368.58Z" transform="translate(-133.77 -124.38)"/><path id="Path_1039" data-name="Path 1039" class="cls-4" d="M580.86,420.57l-45.94-26.45a10.18,10.18,0,0,0-9.45,0,6.23,6.23,0,0,0-3.62,5.55v4.9c-.65,3.1-2.85,5.93-6.47,8.13-11.65,6.7-34.29,4.64-50.6-4.78-10-5.67-15.26-12.77-15.26-19v18.19c0,6.19,5.3,13.29,15.26,19,16.31,9.42,39,11.48,50.6,4.78,4.53-2.58,6.73-6.2,6.73-10.2v-4.38a6.64,6.64,0,0,1,3.36-4,10.18,10.18,0,0,1,9.45,0l45.94,26.45Z" transform="translate(-133.77 -124.38)"/><path id="Path_1040" data-name="Path 1040" class="cls-5" d="M711.81,341a6.37,6.37,0,0,0-3.36-5.8L580.86,420.7v18.18L708.58,365.1a6.61,6.61,0,0,0,3.36-5.94C711.81,358.39,711.81,341.62,711.81,341Z" transform="translate(-133.77 -124.38)"/></g><path id="Path_1041" data-name="Path 1041" class="cls-6" d="M708.45,335.17,580,261.12l-45.54,26.45c-2.59,1.54-2.59,4,0,5.42,3,1.67,7.25,2.32,11.38,2.06,8-.39,15.53.77,20.84,3.87,11.77,6.71,8,19.86-8.15,29.15s-38.83,11.48-50.6,4.78c-5.95-3.49-7.89-8.52-6.34-13.94.65-2.06-.13-4.38-2.85-5.8a9.09,9.09,0,0,0-8.54,0l-48,27.73,48.27,27.74c2.33,1.42,2.33,3.61,0,4.9-2.59,1.55-6.47,1.93-10.1,1.55-9.31-.91-18.11.13-24.07,3.61-11.64,6.71-7.89,19.86,8.42,29.15s38.94,11.48,50.59,4.78c5.18-3,7.38-7.36,6.6-12-.39-2.32.65-4.9,3.5-6.58a10.16,10.16,0,0,1,9.44,0l45.94,26.44,127.59-73.91a6.4,6.4,0,0,0,.13-11.35Z" transform="translate(-133.77 -124.38)"/></g></g><g id="Group_899" data-name="Group 899"><g id="Group_898" data-name="Group 898"><g id="Group_889" data-name="Group 889"><path id="Path_1042" data-name="Path 1042" class="cls-7" d="M310.79,230.55l-.12,18.19-45.81-26.32V204.23Z" transform="translate(-133.77 -124.38)"/></g><g id="Group_891" data-name="Group 891"><g id="Group_890" data-name="Group 890"><path id="Path_1043" data-name="Path 1043" class="cls-8" d="M396.2,235.84V254c0-6.19-5.3-13.29-15.27-19-16.3-9.41-38.94-11.48-50.59-4.77-4.53,2.58-6.73,6.19-6.73,10.19V222.29c0-4,2.2-7.61,6.73-10.19,11.64-6.71,34.29-4.65,50.59,4.77,10,5.68,15.27,12.78,15.27,19Z" transform="translate(-133.77 -124.38)"/></g></g><g id="Group_893" data-name="Group 893"><g id="Group_892" data-name="Group 892"><path id="Path_1044" data-name="Path 1044" class="cls-8" d="M323.86,225v18.19a6.23,6.23,0,0,1-3.62,5.55,10.18,10.18,0,0,1-9.45,0V230.55a10.18,10.18,0,0,0,9.45,0A6.23,6.23,0,0,0,323.86,225Z" transform="translate(-133.77 -124.38)"/></g></g><path id="Path_1045" data-name="Path 1045" class="cls-9" d="M495.58,230.68a3.27,3.27,0,0,0-1.94,2.71v18.19a3.26,3.26,0,0,1,1.94-2.71l45.55-26.45V204.23Z" transform="translate(-133.77 -124.38)"/><g id="Group_895" data-name="Group 895"><g id="Group_894" data-name="Group 894"><path id="Path_1046" data-name="Path 1046" class="cls-8" d="M355.31,256.22V274.4A3,3,0,0,1,353.5,272V253.77A3.1,3.1,0,0,0,355.31,256.22Z" transform="translate(-133.77 -124.38)"/></g></g><path id="Path_1047" data-name="Path 1047" class="cls-10" d="M519.52,271.18c-16.17,9.42-38.69,11-50.34,4.13-3.1-1.8-4.91-3.74-5.95-6.19l.13-8.77a5.17,5.17,0,0,0-3-4.52c-2.33-1.42-6.6-1-8.93.26l-47.88,27.73V302l47.88-27.73a9.09,9.09,0,0,1,8.54,0,7.53,7.53,0,0,1,2.33,2.06v7.35c0,4,2.2,7.74,6.85,10.32,11.78,6.71,34.3,4.65,50.6-4.77,9.84-5.68,15-12.64,15-18.83V252.22C534.53,258.54,529.36,265.51,519.52,271.18Z" transform="translate(-133.77 -124.38)"/><g id="Group_896" data-name="Group 896"><path id="Path_1048" data-name="Path 1048" class="cls-7" d="M403.45,284v18.18l-48.27-27.73.13-18.19Z" transform="translate(-133.77 -124.38)"/></g><g id="Group_897" data-name="Group 897"><path id="Path_1049" data-name="Path 1049" class="cls-11" d="M541.26,204.1l-45.55,26.45c-2.58,1.55-2.58,4,0,5.42,3,1.67,7.25,2.32,11.39,2.06,8-.39,15.53.78,20.84,3.87,11.77,6.71,8,19.87-8.16,29.15s-38.82,11.49-50.59,4.78c-5.95-3.49-7.9-8.52-6.34-13.93.65-2.07-.13-4.39-2.85-5.81a9.09,9.09,0,0,0-8.54,0l-47.88,27.74-48.27-27.74c-2.33-1.42-2.33-3.61,0-4.9,2.59-1.55,6.47-1.94,10.1-1.55,9.31.9,17.47,0,23.42-3.35,11.65-6.71,8.54-20-7.76-29.42s-38.95-11.48-50.6-4.77c-5.18,3-7.38,7.35-6.6,12,.39,2.32-.65,4.9-3.49,6.58a10.18,10.18,0,0,1-9.45,0l-45.81-26.45,137.55-79.85Z" transform="translate(-133.77 -124.38)"/></g></g></g><g id="Group_903" data-name="Group 903"><path id="Path_1050" data-name="Path 1050" class="cls-12" d="M311.31,337.36l-45.54,26.32L137.14,278.15a6.81,6.81,0,0,0-3.37,5.8v18.19a6.72,6.72,0,0,0,3.37,5.94L265.63,382l45.55-26.45a3.24,3.24,0,0,0,1.94-2.71V334.65C313.25,335.56,312.61,336.59,311.31,337.36Z" transform="translate(-133.77 -124.38)"/><g id="Group_902" data-name="Group 902"><g id="Group_901" data-name="Group 901"><g id="Group_900" data-name="Group 900"><path id="Path_1051" data-name="Path 1051" class="cls-13" d="M323.86,225l-.25-2.71a8.44,8.44,0,0,0,.12,1.81,2.12,2.12,0,0,1,.13.9Z" transform="translate(-133.77 -124.38)"/></g></g><path id="Path_1052" data-name="Path 1052" class="cls-14" d="M355.44,311.69a9.09,9.09,0,0,1-8.54,0,7.31,7.31,0,0,1-2.33-2.06v-7.35c0-4-2.33-8-7-10.58-11.64-6.71-34.55-4.78-50.72,4.64-9.84,5.68-15,12.78-15,19l.26,18.57c0-6.19,5.18-13.16,15-18.83,16.18-9.42,38.83-11.48,50.6-4.77,3.11,1.8,5.18,4,6.08,6.45v8.77a5.18,5.18,0,0,0,3,4.51,9.09,9.09,0,0,0,8.54,0l48-27.73v-18.2Z" transform="translate(-133.77 -124.38)"/><path id="Path_1053" data-name="Path 1053" class="cls-15" d="M355.31,256.22c-2.33-1.42-2.33-3.61,0-4.9,2.59-1.55,6.47-1.94,10.09-1.55,9.32.9,18.12-.13,24.07-3.61,11.65-6.71,7.9-19.87-8.41-29.16s-38.95-11.48-50.6-4.77c-5.17,3-7.37,7.35-6.6,12,.39,2.32-.65,4.9-3.49,6.58a10.24,10.24,0,0,1-9.45,0L265,204.36,137.14,278.15a6.7,6.7,0,0,0,0,11.61l128.62,74.05,45.55-26.45c2.59-1.55,2.59-4,0-5.42-3-1.67-7.25-2.32-11.39-2.06-8,.39-15.52-.78-20.83-3.87-11.78-6.71-8-19.87,8.15-29.16s38.82-11.48,50.6-4.77c6,3.48,7.89,8.52,6.34,13.93-.65,2.07.13,4.39,2.85,5.81a9.09,9.09,0,0,0,8.54,0l48-27.74Z" transform="translate(-133.77 -124.38)"/></g></g><g id="Group_904" data-name="Group 904"><path id="Path_1054" data-name="Path 1054" class="cls-16" d="M205.46,474l128.37,73.92a19.93,19.93,0,0,0,20.06,0L481.61,474V455.78H205.33Z" transform="translate(-133.77 -124.38)"/><path id="Path_1055" data-name="Path 1055" class="cls-17" d="M393.22,406.25v18.19a3,3,0,0,1-1.81,2.45c-2.59,1.55-6.47,1.93-10.09,1.55-9.32-.91-18.12.12-24.07,3.61-4.53,2.58-6.73,6.19-6.73,10.19V424.05c0-4,2.2-7.61,6.73-10.19,5.95-3.48,14.75-4.52,24.07-3.61,3.62.38,7.5-.13,10.09-1.55A2.77,2.77,0,0,0,393.22,406.25Z" transform="translate(-133.77 -124.38)"/><path id="Path_1056" data-name="Path 1056" class="cls-18" d="M253.08,426.63v18.19a3.27,3.27,0,0,0-1.94-2.71c-3-1.67-7.25-2.32-11.39-2.06-8,.38-15.53-.78-20.83-3.87-4.66-2.71-6.86-6.33-6.86-10.45V407.54c0,4,2.2,7.74,6.86,10.32,5.3,3,12.68,4.25,20.83,3.87,4.14-.26,8.41.38,11.39,2.06a3.42,3.42,0,0,1,1.94,2.84Z" transform="translate(-133.77 -124.38)"/><path id="Path_1057" data-name="Path 1057" class="cls-19" d="M435.93,429.34a10.18,10.18,0,0,0-9.45,0c-3,1.67-3.88,4.13-3.49,6.58.77,4.65-1.43,8.9-6.6,12-11.65,6.71-34.29,4.65-50.6-4.77S345.73,420.7,357.38,414c5.95-3.49,14.75-4.52,24.07-3.61,3.62.38,7.5-.13,10.09-1.55,2.33-1.42,2.33-3.61,0-4.9l-48.27-28L295.4,403.67a9.09,9.09,0,0,1-8.54,0c-2.59-1.55-3.5-3.74-2.85-5.81,1.68-5.42-.39-10.45-6.34-13.93-11.78-6.71-34.29-4.65-50.6,4.77s-19.8,22.45-8.15,29.16c5.31,3,12.68,4.26,20.83,3.87,4.14-.26,8.41.38,11.39,2.06,2.59,1.55,2.59,4,0,5.42l-45.55,26.45L334,529.57a19.93,19.93,0,0,0,20.06,0l127.72-73.91Z" transform="translate(-133.77 -124.38)"/></g><g id="Group_917" data-name="Group 917"><g id="Group_905" data-name="Group 905"><path id="Path_1058" data-name="Path 1058" class="cls-20" d="M445.89,504.8l1.81,1.55s9.45,3.74,9.84,4.26a11.27,11.27,0,0,1,.13,1.29,1.17,1.17,0,0,1-.13.64,4.9,4.9,0,0,1-2.85,1.42c-2.46.39-7.76-.51-7.76-.51-.65-.26-8.42-.26-9.58-1.42a6.23,6.23,0,0,1-1.16-2.45,13.23,13.23,0,0,1-.39-4.52Z" transform="translate(-133.77 -124.38)"/></g><path id="Path_1059" data-name="Path 1059" class="cls-20" d="M433.86,525.19l5.56,4.64s3.63,1.42,4.4,2.2a2.59,2.59,0,0,1,.26,1.16,2.84,2.84,0,0,1-2.06,3.46,2.9,2.9,0,0,1-1.31,0c-3.23.77-6.6-1.29-6.6-1.29-.51-.39-9.05-4.26-9.05-4.26s-.39-.13-.52-1l-.26-2.06Z" transform="translate(-133.77 -124.38)"/><path id="Path_1060" data-name="Path 1060" class="cls-21" d="M433.86,524l2.58,2.19,3,2.45s2.85,2.19,3.88,2.84a1.63,1.63,0,0,1,.78,1.42,1.46,1.46,0,0,1-.39,1,5.82,5.82,0,0,1-3.11,1.42c-3.23.77-6.6-1.29-6.6-1.29-.51-.26-6.85-3.23-9.18-4.39-.26-.13-.39-.64-.39-.64a20.25,20.25,0,0,1-.26-2.33,8.28,8.28,0,0,1,.39-3.35Z" transform="translate(-133.77 -124.38)"/><g id="Group_906" data-name="Group 906"><path id="Path_1061" data-name="Path 1061" class="cls-21" d="M445.89,503.77l3.24,2.45s7,3.1,7.5,3.36a1.3,1.3,0,0,1,.91,1.29,1.19,1.19,0,0,1-.13.64,5,5,0,0,1-2.85,1.42c-2.46.39-7.76-.51-7.76-.51-.65-.26-9.19-.39-10.23-1.55a5.5,5.5,0,0,1-.77-2.45,13.47,13.47,0,0,1,0-4.39Z" transform="translate(-133.77 -124.38)"/></g><path id="Path_1062" data-name="Path 1062" class="cls-22" d="M392.58,462.88l13.71,7.87s23.81,15.74,24.07,23.09c.13,4.13,2.85,17.8,4.92,31.48.26,1.54-5.56,3.87-11.13-.39-.52-.39-4.4-21.8-4.4-22.32,0,0-1-6.45-3.1-8.51-1.56-1.55-16.44-9-16.44-9s-7.63-4.65-7.63-12.13C392.45,471,392.58,462.88,392.58,462.88Z" transform="translate(-133.77 -124.38)"/><path id="Path_1063" data-name="Path 1063" class="cls-23" d="M402.41,437.08s-3.1-2.84-1-5.42,8.15-4.9,13.32-4.9,7.77,2.83,7.77,2.83l-4.92,11.74Z" transform="translate(-133.77 -124.38)"/><path id="Path_1064" data-name="Path 1064" class="cls-24" d="M430.36,461.07c-1-1.16-8.8-14.06-8.8-14.06s-1.81-16.12,1.3-16.77,4.79,4.26,6.86,10.58c.51,1.42,6.73,15.35,7.37,16.77a13.18,13.18,0,0,1,.52,7.61S432.56,463.39,430.36,461.07Z" transform="translate(-133.77 -124.38)"/><path id="Path_1065" data-name="Path 1065" class="cls-25" d="M408.88,460l8.67,4.26,21.22,11.61s4.66,1.8,5.18,8.38c.39,5,4.14,21.81,4.14,21.81.52,1.41-.52,1.8-1.68,2.19a15.9,15.9,0,0,1-9.45-.52,2.14,2.14,0,0,1-.9-1.55l-3.88-22.44-16.31-6.32s-6.21-2.84-6.6-7.48C409,468,408.88,460,408.88,460Z" transform="translate(-133.77 -124.38)"/><path id="Path_1066" data-name="Path 1066" class="cls-26" d="M426.48,432.18c.65,4.39,1,7.22-1.81,14.58l-7.25,16.12c-.39,1,1.68.78-.39,5.68-3.36,8-15.4,8.25-19.15,6.45a19.8,19.8,0,0,1-5.95-4.13c-1.94-2.32-.65-8.26-.65-7.87,0,0,4.92-20.25,7.9-26.7.9-2.07,5.82-4.78,9.06-6.07,1.55-.64,11.64-2.7,11.64-2.7l.52.77C420.4,428.18,426,429.08,426.48,432.18Z" transform="translate(-133.77 -124.38)"/><g id="Group_909" data-name="Group 909"><g id="Group_908" data-name="Group 908"><path id="Path_1067" data-name="Path 1067" class="cls-27" d="M426.61,489.84l27.3-15.61V475a1.43,1.43,0,0,1-.77,1.29L427.39,491a1.64,1.64,0,0,1-1.55,0l-18.77-11.09a1.17,1.17,0,0,1-.51-1v-.52Z" transform="translate(-133.77 -124.38)"/><g id="Group_907" data-name="Group 907"><path id="Path_1068" data-name="Path 1068" class="cls-28" d="M406.94,477.84a.76.76,0,0,0-.43,1,.7.7,0,0,0,.43.43l19.67,10.58,27.3-15.61-19.66-8.9a3.18,3.18,0,0,0-2.85.13Z" transform="translate(-133.77 -124.38)"/></g></g></g><g id="Group_911" data-name="Group 911"><g id="Group_910" data-name="Group 910"><path id="Path_1069" data-name="Path 1069" class="cls-29" d="M416,482c-.26.13-.52.78.52,1.16l8.8,4.78c.77.38,1.29,0,2.07-.39l23-13.16c.52-.26.39-.77,0-1l-10-4.52c-.52-.25-1-.38-1.3-.13Z" transform="translate(-133.77 -124.38)"/></g></g><path id="Path_1070" data-name="Path 1070" class="cls-30" d="M430,471.65s.51-8.64,0-10.83,3-3.23,5-2.46a3.31,3.31,0,0,1,2.59,2.71,20.57,20.57,0,0,1-.13,5.81,59,59,0,0,1-1.55,9Z" transform="translate(-133.77 -124.38)"/><g id="Group_912" data-name="Group 912"><path id="Path_1071" data-name="Path 1071" class="cls-31" d="M434.5,470.75c-.51,1.16-.38,1.29-1.42.77a1.19,1.19,0,0,0-1.55,1.29c.26,1-1,2.2-1.43.65,0-.26-.38-1.68,0-2.33,1.95-3.09,3.76-3.48,4.66-3C435.93,468.56,435,469.72,434.5,470.75Z" transform="translate(-133.77 -124.38)"/><path id="Path_1072" data-name="Path 1072" class="cls-31" d="M437.09,469.07a9.78,9.78,0,0,0-2.71-1,2.77,2.77,0,0,0-2.59,1.55l-.26.51-.78,3.87a15.56,15.56,0,0,0-.77,4c0,.39.52.51.9.13s.91-2.45,1.3-2.33a8,8,0,0,0,3.88-.25l1.55-3.62C438.26,470.75,438.26,469.71,437.09,469.07Z" transform="translate(-133.77 -124.38)"/></g><path id="Path_1073" data-name="Path 1073" class="cls-32" d="M415.87,471.91a12.58,12.58,0,0,0-.91,1.55c0,.38,0,.9.39.9s1.17-.9,1.17-.9Z" transform="translate(-133.77 -124.38)"/><g id="Group_913" data-name="Group 913"><path id="Path_1074" data-name="Path 1074" class="cls-30" d="M419.23,472.68c1.17.39,2.46-.9,2.72-1.93.13-.39,2.33.13,3.37-.13a1.06,1.06,0,0,0,.76-1.28,1.09,1.09,0,0,0-.11-.27,24.43,24.43,0,0,0-3.63-.26c-2.85-.26-5.56.39-5.82,1.55C416,471.26,418.07,472.3,419.23,472.68Z" transform="translate(-133.77 -124.38)"/><path id="Path_1075" data-name="Path 1075" class="cls-30" d="M415.22,471.91c.66-3.35,2.2-2.71,2.2-2.71s6.09.52,7.38,1.42c.91.52,4,3.22,4.27,4s-1.16,1.29-1.16,1.29a3.69,3.69,0,0,1-3.63.38l-4.79-1.54C414.71,473.84,415,473.33,415.22,471.91Z" transform="translate(-133.77 -124.38)"/><path id="Path_1076" data-name="Path 1076" class="cls-33" d="M415.74,471.52a5,5,0,0,0-.26,3c-4.79-.9-15.53-5.16-18.76-6.45a7,7,0,0,1-4.53-8.13s2.2-13.8,7-23.35c2.46-4.9,7.37-.38,6.86,5.55a44.33,44.33,0,0,1-3.89,13.67,5.06,5.06,0,0,0,1.17,5.94l14.36,7.48A4,4,0,0,0,415.74,471.52Z" transform="translate(-133.77 -124.38)"/></g><path id="Path_1077" data-name="Path 1077" class="cls-34" d="M406.94,430.63a6.53,6.53,0,0,1,1.42-.52,16.66,16.66,0,0,1,3.89-.77l6.6-.52.38.39,4.27,10.32-4,5.93-1-2.71-4.14-6.19Z" transform="translate(-133.77 -124.38)"/><path id="Path_1078" data-name="Path 1078" class="cls-30" d="M422.08,436.05c0,.38-.9,3.22-3,3-4.4-.51-4.53-4.77-4.92-6.57a3.4,3.4,0,0,1,1.55-3.36l6.86-5.42,6.08,8.26Z" transform="translate(-133.77 -124.38)"/><path id="Path_1079" data-name="Path 1079" class="cls-35" d="M423.25,434l-1.56,1.55a7.46,7.46,0,0,1,.26,4,19.27,19.27,0,0,1-2.72,5.67c-.12.13,0,.52,0,.52s1.82-1.94,3.89-4.52,2.45-6.83,2.45-6.83Z" transform="translate(-133.77 -124.38)"/><g id="Group_914" data-name="Group 914"><path id="Path_1080" data-name="Path 1080" class="cls-30" d="M425.06,416.18h0l-6.86.65.91,10.83a44.33,44.33,0,0,0,.77,4.52,3.34,3.34,0,0,0,1.81,2.32s3.37,2.19,4.66,2.45c.91.26,2.59-.77,2.59-.77,1-.78,1.94-2.58,2.33-4.9l1.81-10.07-.9-6.83Z" transform="translate(-133.77 -124.38)"/><path id="Path_1081" data-name="Path 1081" class="cls-36" d="M433.86,415.54s-1.56.64-.91,1c1.56.9,2.2,1.93,1.94,1.67-.51-.26-2.07,1.81-1.94,2.84,0,.39-1.68,2.06-5.95.13-1.16-.52-3.23-.78-4.53,2.71-.25.77-.65.9-.77,1.93s-.39,2.07-.39,2.07c-.26.13-.39-1.68-.91-2.58,0,0-.38-1.29-1.55-1s-.13,3.36,0,3.49l-2.46,1.29c-.13.13.52-.77.26-1.29a44.69,44.69,0,0,1-1.81-4.26,9.36,9.36,0,0,1,2.07-9.15,17.65,17.65,0,0,1,3.75-2.59,10.47,10.47,0,0,1,4.14-1.16c-.52.26-.91.91-.26.91.13,0,.65-.13,1.29-.26a14.76,14.76,0,0,1,2.2-.13c-.77.39-.9.9-.25,1,.25,0,2.33-.39,3.1,0,.13,0-1.42,1.29-1.16,1.29,1.94.13,3.75.52,4.14,1.16a1.39,1.39,0,0,0-1.68.26c-.26.26.25.13,1,.52A.65.65,0,0,1,433.86,415.54Z" transform="translate(-133.77 -124.38)"/><path id="Path_1082" data-name="Path 1082" class="cls-30" d="M419,423.79c1.55-.64,2.07,2.07,2.07,2.07l.38,3s0,1.16-.65,1.29-1.42-.38-1.94-1.29a9.19,9.19,0,0,0-.9-1.42C417.29,426.11,417.29,424.44,419,423.79Z" transform="translate(-133.77 -124.38)"/></g><path id="Path_1083" data-name="Path 1083" class="cls-37" d="M419.36,445.72s-5.82-9.93-10.22-11.74a9.31,9.31,0,0,0-7.76-.13s-.13-1.42,3.1-3.74,5.44-1.8,7.51-.26,5.3,6.58,6.47,9.81A13.21,13.21,0,0,1,419.36,445.72Z" transform="translate(-133.77 -124.38)"/><g id="Group_916" data-name="Group 916"><path id="Path_1084" data-name="Path 1084" class="cls-38" d="M452,455a1,1,0,0,1,1.17,0l.26.13-26.27,15.35-.52,19.09-.65-.38V471a2.15,2.15,0,0,1,1.16-1.94Z" transform="translate(-133.77 -124.38)"/><g id="Group_915" data-name="Group 915"><path id="Path_1085" data-name="Path 1085" class="cls-39" d="M427.78,469.59a2.13,2.13,0,0,0-1.17,1.93v18.19l27.3-15.61V455.91a.76.76,0,0,0-.76-.76.72.72,0,0,0-.4.12Z" transform="translate(-133.77 -124.38)"/></g></g></g><g id="Group_922" data-name="Group 922"><path id="Path_1086" data-name="Path 1086" class="cls-30" d="M508,300.72c-.26,1.17-2.07,1.42-3,1.17-.39-.13-1.16,1.93-1.81,2.58a1,1,0,0,1-1.36,0,.83.83,0,0,1-.19-.27,37.81,37.81,0,0,1,2.07-3.74c1.42-2.45,2.45-2.33,3.49-1.94S508.26,299.69,508,300.72Z" transform="translate(-133.77 -124.38)"/><path id="Path_1087" data-name="Path 1087" class="cls-40" d="M508,299.82c1.16.26,3.88-1.55,3.88-1.55a4.64,4.64,0,0,0,.26-.77c1-2.71,4.91-12.13,5.82-15.74.9-3.87,2.07-11,2.07-11S522,262.54,518,260.6c-2.33-1-6.47.52-7.12,7.1-.26,2.58-1.42,13.16-1.42,13.16l-4,15.35S505.68,299.44,508,299.82Z" transform="translate(-133.77 -124.38)"/><path id="Path_1088" data-name="Path 1088" class="cls-30" d="M509.82,299.18l-3-.78-2.07,3.23-.13.51-.77,4.65a2.36,2.36,0,0,0,1.78,2.83h0c1.55.39.13,0,.13,0,2.07.51,2.84-1.67,2.84-1.67l2.07-5.81C511.24,301.11,511.11,299.56,509.82,299.18Z" transform="translate(-133.77 -124.38)"/><path id="Path_1089" data-name="Path 1089" class="cls-8" d="M504.51,298c-.13.51.77,1.8,2.33,2.32a5.91,5.91,0,0,0,3,.39c1-.13,1.55-.39,1.81-1l1-3.09c.13-.52-.13-.52-.13-.52a2,2,0,0,1-.26.52c-.39.39-1.42.9-3.36.64-3.11-.51-3.11-2.45-3.11-2.45-.39-.13-.65.13-.78.65Z" transform="translate(-133.77 -124.38)"/><g id="Group_920" data-name="Group 920"><path id="Path_1090" data-name="Path 1090" class="cls-41" d="M507.49,251.45a1.28,1.28,0,0,0-1.17-.13l-1,.64a1.32,1.32,0,0,1,1.16.13,3.57,3.57,0,0,1,1.56,2.84c0,.52-.13.9-.52,1l1-.64a1.14,1.14,0,0,0,.52-1A3.54,3.54,0,0,0,507.49,251.45Z" transform="translate(-133.77 -124.38)"/><path id="Path_1091" data-name="Path 1091" class="cls-42" d="M503.61,259.83v9.81a.8.8,0,0,1-.39.77l2.07-1.29a.8.8,0,0,0,.39-.77v-9.81Z" transform="translate(-133.77 -124.38)"/><path id="Path_1092" data-name="Path 1092" class="cls-43" d="M500.37,258,503.6,260v9.8c0,.78-.51,1-1.16.65l-.91-.52a2.63,2.63,0,0,1-1.16-2.06Z" transform="translate(-133.77 -124.38)"/><g id="Group_918" data-name="Group 918"><path id="Path_1093" data-name="Path 1093" class="cls-44" d="M501.79,261.77a.24.24,0,0,0-.34,0,.1.1,0,0,0,0,0l-.78.38H501l.9.52.78-.39Z" transform="translate(-133.77 -124.38)"/><path id="Path_1094" data-name="Path 1094" class="cls-45" d="M502.7,262.28l-.78.39a1.14,1.14,0,0,1,.65,1v1.67c0,.13-.13.26-.13.39l.78-.39c.13,0,.13-.25.13-.38v-1.68A1.14,1.14,0,0,0,502.7,262.28Z" transform="translate(-133.77 -124.38)"/><path id="Path_1095" data-name="Path 1095" class="cls-46" d="M502.05,262.67a1.14,1.14,0,0,1,.65,1v1.68c0,.38-.25.51-.65.38l-.9-.51a1.15,1.15,0,0,1-.65-1v-1.67c0-.39.25-.51.65-.39Z" transform="translate(-133.77 -124.38)"/></g><path id="Path_1096" data-name="Path 1096" class="cls-47" d="M505.16,250.8a2.66,2.66,0,0,0-2.72-.26l-5.56,3.23a2.65,2.65,0,0,1,2.71.26,8.27,8.27,0,0,1,3.76,6.45,2.79,2.79,0,0,1-1,2.45l5.57-3.23a2.61,2.61,0,0,0,1-2.45A8.07,8.07,0,0,0,505.16,250.8Z" transform="translate(-133.77 -124.38)"/><path id="Path_1097" data-name="Path 1097" class="cls-48" d="M499.46,254a8.27,8.27,0,0,1,3.76,6.45c0,2.32-1.69,3.35-3.76,2.19a8.3,8.3,0,0,1-3.75-6.45C495.84,253.77,497.52,252.86,499.46,254Z" transform="translate(-133.77 -124.38)"/><g id="Group_919" data-name="Group 919"><path id="Path_1098" data-name="Path 1098" class="cls-49" d="M489.63,273.51c-3.11-1.42-5.95-5.16-7.12-8.65-2.46-6.71,1.69-11.87,7.38-8.26C499.21,263.31,498.43,277.63,489.63,273.51Z" transform="translate(-133.77 -124.38)"/><path id="Path_1099" data-name="Path 1099" class="cls-50" d="M488.85,257.12c3.76,2.2,6.86,7.36,6.73,11.74s-2.71,6.19-6.86,3.87A14.84,14.84,0,0,1,482,261C482.13,256.74,485.1,254.93,488.85,257.12Z" transform="translate(-133.77 -124.38)"/></g><path id="Path_1100" data-name="Path 1100" class="cls-51" d="M490.41,261.12a6.68,6.68,0,0,1,2.2,3.36c1.16,3.61-1.69,5-4.14,2.06l-.13-.26a6.51,6.51,0,0,1-1-1.81C485.88,260.74,488.08,259.32,490.41,261.12Z" transform="translate(-133.77 -124.38)"/><path id="Path_1101" data-name="Path 1101" class="cls-52" d="M489.63,259.44l-1.94,1.17c1.94-1.17,5.17,2.32,5.17,5.41A2.15,2.15,0,0,1,492,268l1.94-1.16a2.18,2.18,0,0,0,.91-1.94C494.81,261.77,491.57,258.28,489.63,259.44Z" transform="translate(-133.77 -124.38)"/><path id="Path_1102" data-name="Path 1102" class="cls-53" d="M501.79,256.35c-.39-.65-2.71-3.61-4.91-2.45a27.51,27.51,0,0,1-9.32,1.29s3.23,1.42,6.6,6.19h.13c3.23,5.42,2.46,8.77,2.46,8.77a16.51,16.51,0,0,1,5.43-7C504.25,261.9,503.09,257.77,501.79,256.35Z" transform="translate(-133.77 -124.38)"/><path id="Path_1103" data-name="Path 1103" class="cls-54" d="M489,272.73c-3.75-2.19-6.86-7.48-6.86-11.74a4.91,4.91,0,0,1,1.94-4.38l-1.29.77c-1.16.77-1.94,2.19-1.94,4.39a14.87,14.87,0,0,0,6.86,11.74c1.94,1,3.62,1.16,4.92.51l1.29-.77C492.61,273.9,490.92,273.76,489,272.73Z" transform="translate(-133.77 -124.38)"/><path id="Path_1104" data-name="Path 1104" class="cls-55" d="M489,255.45c-2.33-1.29-4.4-1.42-5.95-.52l-1.3.77c1.56-.9,3.63-.77,5.95.52,4.53,2.58,8.29,9,8.29,14.32,0,2.58-.91,4.38-2.46,5.28l1.29-.77c1.55-.9,2.46-2.71,2.46-5.29C497.26,264.48,493.64,258,489,255.45Z" transform="translate(-133.77 -124.38)"/><path id="Path_1105" data-name="Path 1105" class="cls-56" d="M487.69,256.22c4.53,2.58,8.28,9,8.28,14.31s-3.75,7.36-8.28,4.78-8.28-9-8.28-14.32S483.16,253.51,487.69,256.22Zm0,17.29c3.75,2.19,6.86.39,6.86-3.87s-3.11-9.55-6.86-11.74-6.86-.39-6.86,3.87S483.94,271.32,487.69,273.51Z" transform="translate(-133.77 -124.38)"/></g><path id="Path_1106" data-name="Path 1106" class="cls-21" d="M532.85,352.33h-9.7a3.33,3.33,0,0,0-.26.77h-.13s-.39,2.19-.78,4.26c-.26,1.16-.39,2.19-.52,2.71-1.16,5.93,2.46,6.57,4.92,6.57,5.44,0,6.47-4.64,6.47-7v-1C533,352.2,532.85,352.33,532.85,352.33Z" transform="translate(-133.77 -124.38)"/><path id="Path_1107" data-name="Path 1107" class="cls-21" d="M501.67,347.17l-2.07,1.41s-8.15,2.84-8.8,3.1-1.81.78-1.94,1.81a2.23,2.23,0,0,0,.65,2.06,4.56,4.56,0,0,0,3,1.29c4.14.26,5.44-.64,10.36-.9,1.29-.13,6.34.13,6.85-1.55a33.61,33.61,0,0,0,.52-3.87Z" transform="translate(-133.77 -124.38)"/><path id="Path_1108" data-name="Path 1108" class="cls-22" d="M511,302.4s-6.73,19.74-8.67,26.32c-1.29,4.26-2.59,18.19-2.59,18.19-.39,1.93-.77,2.32-.26,3,2,2.71,8.8,7,10.49,3,0,0,2.58-14.83,4.4-19.22,2.84-7,12.42-26.44,12.42-26.44Z" transform="translate(-133.77 -124.38)"/><path id="Path_1109" data-name="Path 1109" class="cls-57" d="M517.06,305.5l4.66,45.66.13,4.13c0,1.42,1.94,3,4.27,3.36a7.87,7.87,0,0,0,4.53-.26,4.42,4.42,0,0,0,2.85-3.1l.52-21.41.38-27.35Z" transform="translate(-133.77 -124.38)"/><path id="Path_1110" data-name="Path 1110" class="cls-58" d="M514.73,261.38c-2.33,4-3.62,7.48-3.88,15.61l-1.42,27.22c0,1.16-.26,2.45.65,3.09,0,0,7.64,5.16,13.59,6.07,5.69.9,11.64-1.16,12.16-4.52l1.55-37.41c.13-3.87-8.54-8.38-10.09-9.42l-6.21-2.19C521,259.83,516.29,258.54,514.73,261.38Z" transform="translate(-133.77 -124.38)"/><path id="Path_1111" data-name="Path 1111" class="cls-30" d="M503.09,275.7l1.29-.13,3.37-3.61-1.43-5s-.13-.65-3.88-.91c-2.85-.13-3.36,1.81-3.36,1.81s-.26,3.1-.13,3.87c.13.39,1.42.9,1.42.9C501,274.54,501.66,275.44,503.09,275.7Z" transform="translate(-133.77 -124.38)"/><path id="Path_1112" data-name="Path 1112" class="cls-59" d="M517.19,268.73c-1.16-1.8-.52-6.83,2.33-9.16.91.13,1.56.26,1.56.26l5.56,1.68a31.9,31.9,0,0,1,4.66,3c-.91,0-3.24,1.16-6.21,3.87C522.11,270.67,518.75,271.18,517.19,268.73Z" transform="translate(-133.77 -124.38)"/><path id="Path_1113" data-name="Path 1113" class="cls-30" d="M518.88,264.48c3.36,3.35,5.43-.13,7.63-2.71l.39-9.42-7.77,2.19Z" transform="translate(-133.77 -124.38)"/><path id="Path_1114" data-name="Path 1114" class="cls-8" d="M526.51,258.67v1.55c-.91,3.87-5.56,5.16-5.56,5.16-.66.26-.66,1-.52,1.93l.26,2.71c0,.9.51.78.9.52,0,0,3.63-3,4.66-3.87,2.46-2.33,2.2-2.84,1.42-5.94C527.16,258.67,526.51,258.67,526.51,258.67Z" transform="translate(-133.77 -124.38)"/><path id="Path_1115" data-name="Path 1115" class="cls-8" d="M519.78,265.12a.81.81,0,0,1,0,1.15h0l-1.42,1.94c-.78.9-.78.13-.78-.52v-5.16c.39-3.22,1.3-3.35,1.3-3.35v1.42A6.73,6.73,0,0,0,519.78,265.12Z" transform="translate(-133.77 -124.38)"/><path id="Path_1116" data-name="Path 1116" class="cls-60" d="M524.44,246.93a2.06,2.06,0,0,0-2.2,1.81l-.13,3.87s0,.9.78,1c1,.26,1.55-.65,2.07-1.68,0,0,.77-1.54.77-1.67C526.38,248.87,526.25,247.06,524.44,246.93Z" transform="translate(-133.77 -124.38)"/><g id="Group_921" data-name="Group 921"><path id="Path_1117" data-name="Path 1117" class="cls-30" d="M520.69,241.25h0l7.37.26-.39,13.42c-.13.9-.13,1.8-.25,2.45a3.63,3.63,0,0,1-1.69,2.32,17.33,17.33,0,0,1-3.75,2.06,5.73,5.73,0,0,1-2.59.39,11,11,0,0,1-2.2-1.16,4.25,4.25,0,0,1-2.33-2.58c-.26-.77-.77-3-.9-3.74l-.78-8-.26-7.09Z" transform="translate(-133.77 -124.38)"/><path id="Path_1118" data-name="Path 1118" class="cls-36" d="M514.6,238.16c-2.07,1-3.23,2.58-2.32,5.93a25.81,25.81,0,0,0,1,3.23v-2.84c0-1.55,1.55-1,2.2-.51a29.79,29.79,0,0,0,3.24,2.32c.77.52,1,.13,1.16-.39V245c.13.13,2.07,1,2.59,1.42a3.44,3.44,0,0,1,1.55,3.48v1.16c0,.65-.13,1.29.39,1.29s.65-.25.78-.9c0,0,.13-3,2.58-1.81,1.3.65.26,3.62.13,3.75l-.65,4.38c.52.13,1.81-.64,2.59-2.19,1.42-2.71,2.33-4.77,2.72-5.55,3.88-8.25-2.85-16.77-12.3-14.31C518.49,236,514.6,238.16,514.6,238.16Z" transform="translate(-133.77 -124.38)"/><path id="Path_1119" data-name="Path 1119" class="cls-30" d="M527.54,249.38a2.07,2.07,0,0,0-2.2,1.81l-.12,3.87s0,.9.77,1c1,.26,1.55-.65,2.07-1.67,0,0,.78-1.55.78-1.68C529.49,251.32,529.36,249.38,527.54,249.38Z" transform="translate(-133.77 -124.38)"/></g><path id="Path_1120" data-name="Path 1120" class="cls-61" d="M504.51,273.25c-1.42,1.42-.13,4.51-.13,4.51s4.14,4.39,8.28,8.13,6.73,3.61,10.48.64l11.26-9s3.75-3.09,3-6.58c-.91-3.87-5.44-5.16-8.67-2.58-1.82,1.42-7,7.1-9.32,9.81-.78.9-1.55.9-2.07.51L509,272.47A3.73,3.73,0,0,0,504.51,273.25Z" transform="translate(-133.77 -124.38)"/><path id="Path_1121" data-name="Path 1121" class="cls-8" d="M507.49,270.41c-.52-.39-2.85,0-4.27,1.67s-1.3,2.33-1.3,2.33c-.26,1-.26,1.67.26,2.06a22.73,22.73,0,0,0,2.33,2.06.5.5,0,0,0,.65,0,.88.88,0,0,1-.39-.64,4.11,4.11,0,0,1,.91-3.23c1.94-2.58,3.75-2.06,3.75-2.06a.69.69,0,0,0-.16-1l-.1-.06Z" transform="translate(-133.77 -124.38)"/></g><g id="Group_928" data-name="Group 928"><g id="Group_923" data-name="Group 923"><path id="Path_1122" data-name="Path 1122" class="cls-20" d="M309.76,483.13a5,5,0,0,0-1.55,3.74c0,2.33.13,3,.65,3.49a7.42,7.42,0,0,0,3.88,1c1.42-.13,3.36-1.55,4.27-1.67s.65-.26,3.75-1c4.4-1,5.18-2.19,5.7-3.35s.65-2.19.12-2.45c-3-2.19-8.66,1.29-10-.26S309.76,483.13,309.76,483.13Z" transform="translate(-133.77 -124.38)"/><path id="Path_1123" data-name="Path 1123" class="cls-21" d="M309.5,481.84a6,6,0,0,0-1.16,3.48c-.13,1.94,0,3.23.51,3.75a5.55,5.55,0,0,0,3.63.9,16.86,16.86,0,0,0,3-.78,31.09,31.09,0,0,1,4.66-1.15c3.75-.65,6.34-3.23,6.6-4.39s-.77-2.71-3.62-2.45c-4.14.26-5.57.39-6.6,0C314.55,480.68,309.5,481.84,309.5,481.84Z" transform="translate(-133.77 -124.38)"/></g><path id="Path_1124" data-name="Path 1124" class="cls-22" d="M319.34,421c5.17,8.78,6.21,25,5.69,34.06.26-5,0,3.61-1.17,7.87-1.94,7-5.82,19.87-5.43,19.35-.39.39-2.72,2.84-4.79,3.61-3,1-6.86.39-5.82-3.61,0,0,4-22.58,4.14-24.9a75.2,75.2,0,0,0,.13-13.67c-.26-3.23-1.68-10.71-.65-17.29C312.6,420.31,315.45,414.5,319.34,421Z" transform="translate(-133.77 -124.38)"/><g id="Group_925" data-name="Group 925"><g id="Group_924" data-name="Group 924"><path id="Path_1125" data-name="Path 1125" class="cls-21" d="M327.1,484.42s-3.63-3.09-6.34-1.29a9,9,0,0,0-2.2,3.87,3.31,3.31,0,0,0,1.67,4.38h0c1.29.51,2.33-.26,5.05,1.42a31.81,31.81,0,0,0,8.41,3.61c1.68.13,2.59.13,3.1-1.29a1.72,1.72,0,0,0,0-.9,1.91,1.91,0,0,0-1.29-1.68c-2.72-1.42-5.95-3.87-5.56-6.32C330.59,484.42,327.1,484.42,327.1,484.42Z" transform="translate(-133.77 -124.38)"/></g><path id="Path_1126" data-name="Path 1126" class="cls-20" d="M336.81,495.39l-.26-.26a14.58,14.58,0,0,0-3.5-1.29,27.17,27.17,0,0,1-6.6-2.45c-1.55-1.16-3.88-3.36-6.6-3.87a2.24,2.24,0,0,0-1.42.13c-.26,1-.65,2.83,1.55,3.87,1.3.51,2.59-.13,5.31,1.54a31.83,31.83,0,0,0,8.41,3.62c1.17.13,2.46.25,2.85-.39A4,4,0,0,0,336.81,495.39Z" transform="translate(-133.77 -124.38)"/><path id="Path_1127" data-name="Path 1127" class="cls-21" d="M336.41,496.42c0-.13,0-.26-.12-.26-1.17-.64-6.86-1.16-10.1-3.48s-4.66-3.74-5.95-4c-1-.26-1.42-.13-1.81.13a1.9,1.9,0,0,0,.91,2.45c1.68,1.16,2.33,1.55,4.53,3.23a9.78,9.78,0,0,0,4.65,1.8C329.69,496.29,335.9,497.45,336.41,496.42Z" transform="translate(-133.77 -124.38)"/></g><path id="Path_1128" data-name="Path 1128" class="cls-57" d="M329,423.66c1.94,8.52,6.73,33.16,6.47,35.86,0,.13.13,4-1.68,12.26-1.42,6.32-3,17.29-3,17.29a21,21,0,0,0-3.49-3.87c-3-2.71-6.86-1.67-7.12-1.67,0,0,3.63-23.61,3.37-25.93-.78-7.23-5.57-16.39-7.12-22.84C315.45,429.08,325.16,406.89,329,423.66Z" transform="translate(-133.77 -124.38)"/><path id="Path_1129" data-name="Path 1129" class="cls-30" d="M314,387.67c3.36.65-5.95,2.19-14,19.09-1.16,2.33-1.55,5.81,1.82,7.1S318.43,417,318.43,417l.65-18.57Z" transform="translate(-133.77 -124.38)"/><path id="Path_1130" data-name="Path 1130" class="cls-62" d="M314.16,387.41a7.88,7.88,0,0,1,1.68.13l1.68,7.87a55.47,55.47,0,0,1-4,9.93,11.4,11.4,0,0,1-11.25-4.51C307.56,390,310.92,388.06,314.16,387.41Z" transform="translate(-133.77 -124.38)"/><path id="Path_1131" data-name="Path 1131" class="cls-30" d="M313,389a31.72,31.72,0,0,0,1.94-7.22c.25-1.81,7-.39,7-.39s-.13,6.32-.39,9.93S314.16,390.13,313,389Z" transform="translate(-133.77 -124.38)"/><g id="Group_927" data-name="Group 927"><path id="Path_1132" data-name="Path 1132" class="cls-30" d="M317.65,366.77l5.18-1.67,3.88,13.67c1.17,3.87-.13,5-1.29,5.55-2.46.9-5.57.51-7.25.26-3.24-.52-4.79-5-4.92-5.42l-4.14-8.52Z" transform="translate(-133.77 -124.38)"/><path id="Path_1133" data-name="Path 1133" class="cls-63" d="M323.22,363.29c-.26,1.29.52,3.87.26,3.87-3.5-.65-.52,5.16-.13,6.71,0,0,.13,1.55-.52,1.42s-1.68-5-3,.38c0,0-.39,3.87-1.43,5.55-1.81,3-3.75,2.33-3.62,2.45s-.91-1.29-2.72-3.87c-3.63-5.42-5.56-7.87-5-10.7s4.53-5.55,8.41-6.2A42.93,42.93,0,0,1,323.22,363.29Z" transform="translate(-133.77 -124.38)"/><g id="Group_926" data-name="Group 926"><path id="Path_1134" data-name="Path 1134" class="cls-31" d="M321.28,372.84a2.08,2.08,0,0,0-.39,2.06c.39.9,1,1.42,1.29,1.42a1.82,1.82,0,0,0,1.3,0s-1.3-1.81-1.56-2.19C321.66,374,321.28,372.84,321.28,372.84Z" transform="translate(-133.77 -124.38)"/><path id="Path_1135" data-name="Path 1135" class="cls-30" d="M321.41,372.84s.51-.39.65.64a5.52,5.52,0,0,0,.65,2.06c.26.39,1.16,1.55,1.16,1.55s0,.78-.77.26a5,5,0,0,1-1.56-1.67C321.28,375.16,320.63,373.09,321.41,372.84Z" transform="translate(-133.77 -124.38)"/></g></g><path id="Path_1136" data-name="Path 1136" class="cls-64" d="M309.89,433c-.78-5-1.42-14.45-1.68-19.09a131.42,131.42,0,0,1,.13-14.45c.25-5.16.9-7.48,2.58-9.67.78-.91,1.69-2.33,3.11-1.94,6.34,1.55,12.68,5.16,14,7.23a18.61,18.61,0,0,1,3.1,10.57c.13,4.13-.78,12-.52,16.77.52,8.65,1.69,13.68,2.33,15.48C332.92,437.72,311.7,445,309.89,433Z" transform="translate(-133.77 -124.38)"/><path id="Path_1137" data-name="Path 1137" class="cls-30" d="M324.64,394.64a125.2,125.2,0,0,0,11.52-12.52c5.56-7.22,11-20.63,11-20.63s.39.26,2.59,0c1-.13,1.29,1.67,1.29,1.67s-4.66,16.13-10,23.74c-4.53,6.45-10.49,13.28-10.49,13.28s-7.25,3.87-8.28-.51C322.05,398.38,323.09,396.44,324.64,394.64Z" transform="translate(-133.77 -124.38)"/><path id="Path_1138" data-name="Path 1138" class="cls-30" d="M347.41,363.55s-2.33-3.36-1.94-5.42c.26-1.16-.65-4,.78-3.61s1,4.38,1,4.38,0,1.55,2.46-2.32c1.94-3.1,3.11-5,5.05-3.87,1.42.77.52,4.51-1.3,7.87s-3.49,4.13-3.49,4.13Z" transform="translate(-133.77 -124.38)"/><path id="Path_1139" data-name="Path 1139" class="cls-65" d="M331.11,400.7a26,26,0,0,0,7.12-6.19c-1.17-3.48-3.24-7.87-5.18-8.64-2.46,2.83-7.76,7.35-8.28,7.86-.26.26-3.88,2.84-2.59,6.07C323.73,404.31,329.17,402,331.11,400.7Z" transform="translate(-133.77 -124.38)"/></g><g id="Group_933" data-name="Group 933"><path id="Path_1140" data-name="Path 1140" class="cls-66" d="M244,444.56l15.4-8.77a5.21,5.21,0,0,1,4.4,0l28.6,16.51c.65.39.9.77.9,1.29h0v1.29c0,.52-.25.9-.9,1.29L277,464.94a5.21,5.21,0,0,1-4.4,0L244,448.43c-.65-.39-.9-.77-.9-1.29v-1.29h0C243.12,445.33,243.38,445,244,444.56Z" transform="translate(-133.77 -124.38)"/><g id="Group_929" data-name="Group 929"><path id="Path_1141" data-name="Path 1141" class="cls-67" d="M244,444.56c-1.16.65-1.29,1.81,0,2.58l28.6,16.51a5.21,5.21,0,0,0,4.4,0l15.4-8.77c1.16-.64,1.29-1.81,0-2.58l-28.6-16.51a5.21,5.21,0,0,0-4.4,0Z" transform="translate(-133.77 -124.38)"/></g><path id="Path_1142" data-name="Path 1142" class="cls-68" d="M252.18,440.56c-.13,0-.13.13,0,.26h.38l2.2-1.29c.13,0,.13-.13,0-.26h-.38Z" transform="translate(-133.77 -124.38)"/><path id="Path_1143" data-name="Path 1143" class="cls-68" d="M251.14,441.08c-.13.13-.13.26,0,.26a.42.42,0,0,0,.52,0c.13-.13.13-.26,0-.26A.4.4,0,0,0,251.14,441.08Z" transform="translate(-133.77 -124.38)"/><g id="Group_931" data-name="Group 931"><g id="Group_930" data-name="Group 930"><path id="Path_1144" data-name="Path 1144" class="cls-69" d="M245.83,445.33a.77.77,0,0,0-.43,1,.73.73,0,0,0,.43.43l26.27,15.36a3.08,3.08,0,0,0,2.59,0l15.4-8.78c.65-.38.78-1,0-1.42l-26.4-15.35a3,3,0,0,0-2.59,0Z" transform="translate(-133.77 -124.38)"/></g></g><g id="Group_932" data-name="Group 932"><path id="Path_1145" data-name="Path 1145" class="cls-70" d="M282.07,458.88a.36.36,0,0,0-.15.49.28.28,0,0,0,.15.15,1.77,1.77,0,0,0,1.16,0l1.81-1a.35.35,0,0,0,.15-.49.28.28,0,0,0-.15-.15,1.77,1.77,0,0,0-1.16,0Z" transform="translate(-133.77 -124.38)"/></g></g></g></svg>