<?xml version="1.0" encoding="utf-8"?>
<!-- Generator: Adobe Illustrator 16.0.0, SVG Export Plug-In . SVG Version: 6.00 Build 0)  -->
<!DOCTYPE svg PUBLIC "-//W3C//DTD SVG 1.1//EN" "http://www.w3.org/Graphics/SVG/1.1/DTD/svg11.dtd">
<svg version="1.1" id="Layer_1" xmlns="http://www.w3.org/2000/svg" xmlns:xlink="http://www.w3.org/1999/xlink" x="0px" y="0px"
	 width="50px" height="50px" viewBox="0 0 50 50" enable-background="new 0 0 50 50" xml:space="preserve">
<g>
	<path fill-rule="evenodd" clip-rule="evenodd" fill="#EEE9E0" d="M0.014,49.999C0.014,33.527,0.016,17.056,0,0.585
		C0,0.096,0.096,0,0.585,0c16.281,0.016,32.562,0.016,48.842,0c0.489,0,0.586,0.096,0.586,0.585
		c-0.018,16.471-0.014,32.942-0.014,49.414C33.337,49.999,16.675,49.999,0.014,49.999z M24.942,4.239
		c-2.351,0.002-4.646,0.388-6.875,1.103c-3.451,1.107-6.463,2.891-8.574,5.935c-1.851,2.67-2.659,5.703-2.945,8.896
		c-0.38,4.249,0.117,8.364,2.094,12.2c2.234,4.335,5.538,7.697,9.73,10.142c4.039,2.354,8.278,2.722,12.56,0.688
		c5.533-2.63,9.867-6.647,13.07-11.846c2.4-3.896,2.666-8,0.783-12.2c-1.932-4.314-4.88-7.84-8.49-10.841
		C33.008,5.581,29.219,4.225,24.942,4.239z"/>
	<path fill-rule="evenodd" clip-rule="evenodd" fill="#FEFEFE" d="M0.014,49.999c16.661,0,33.323,0,49.985,0
		c-0.158,0.298-0.435,0.133-0.644,0.134c-10.925,0.01-21.851,0.009-32.775,0.009c-5.333,0-10.664,0.002-15.996-0.009
		C0.4,50.132,0.142,50.294,0.014,49.999z"/>
	<path fill-rule="evenodd" clip-rule="evenodd" fill="#373331" d="M24.942,4.239c4.277-0.015,8.066,1.341,11.355,4.076
		c3.61,3.001,6.559,6.527,8.49,10.841c1.883,4.201,1.617,8.305-0.783,12.2c-3.203,5.198-7.537,9.216-13.07,11.846
		c-4.282,2.034-8.521,1.667-12.56-0.688c-4.192-2.444-7.496-5.807-9.73-10.142c-1.977-3.836-2.474-7.951-2.094-12.2
		c0.286-3.193,1.094-6.226,2.945-8.896c2.111-3.044,5.123-4.828,8.574-5.935C20.296,4.627,22.591,4.241,24.942,4.239z M6.955,22.46
		c0.038,0.592,0.075,1.185,0.114,1.777c0.22,3.354,1.126,6.491,2.919,9.357c2.155,3.444,4.972,6.231,8.457,8.297
		c3.875,2.295,7.945,2.799,12.12,0.835c5.529-2.602,9.855-6.588,13.016-11.788c2.267-3.731,2.463-7.662,0.623-11.665
		c-1.839-4.002-4.547-7.327-7.876-10.174c-1.975-1.689-4.16-2.999-6.688-3.666c-4.576-1.209-9.018-0.605-13.315,1.184
		c-4.48,1.866-7.347,5.191-8.568,9.911C7.252,18.474,7.033,20.454,6.955,22.46z"/>
	<path fill-rule="evenodd" clip-rule="evenodd" fill="#EDE9E0" d="M6.955,22.46c0.078-2.006,0.298-3.986,0.801-5.932
		c1.222-4.719,4.088-8.045,8.568-9.911c4.297-1.789,8.739-2.393,13.315-1.184c2.528,0.667,4.714,1.977,6.688,3.666
		c3.329,2.848,6.037,6.172,7.876,10.174c1.84,4.003,1.644,7.933-0.623,11.665c-3.16,5.2-7.486,9.187-13.016,11.788
		c-4.175,1.964-8.246,1.46-12.12-0.835c-3.485-2.065-6.302-4.853-8.457-8.297c-1.792-2.866-2.699-6.003-2.919-9.357
		C7.03,23.645,6.993,23.052,6.955,22.46z M26.195,27.454c0-1.925,0.019-3.851-0.012-5.776c-0.009-0.542,0.112-0.763,0.7-0.728
		c0.854,0.051,1.713,0.012,2.569,0.014c1.583,0.003,1.555,0.003,1.609-1.578c0.02-0.592-0.193-0.695-0.726-0.692
		c-3.236,0.022-6.472,0.01-9.708,0.01c-1.718,0-1.699,0.001-1.679,1.716c0.006,0.46,0.169,0.557,0.583,0.55
		c1.189-0.021,2.38,0.022,3.569-0.018c0.527-0.018,0.683,0.117,0.679,0.664c-0.026,3.521-0.013,7.041-0.014,10.563
		c0,1.809-0.002,1.793,1.836,1.791c0.463,0,0.61-0.118,0.604-0.595C26.183,31.401,26.196,29.428,26.195,27.454z"/>
	<path fill-rule="evenodd" clip-rule="evenodd" fill="#292829" d="M26.196,27.454c0,1.974-0.014,3.947,0.011,5.92
		c0.006,0.477-0.142,0.595-0.604,0.595c-1.838,0.002-1.836,0.018-1.836-1.791c0.001-3.521-0.013-7.042,0.014-10.563
		c0.003-0.546-0.152-0.682-0.679-0.664c-1.188,0.04-2.379-0.003-3.569,0.018c-0.414,0.007-0.577-0.089-0.583-0.55
		c-0.02-1.715-0.039-1.716,1.679-1.716c3.236,0,6.472,0.012,9.708-0.01c0.532-0.003,0.745,0.1,0.726,0.692
		c-0.055,1.581-0.026,1.581-1.609,1.578c-0.856-0.001-1.716,0.037-2.569-0.014c-0.588-0.035-0.709,0.186-0.7,0.728
		C26.214,23.603,26.195,25.529,26.196,27.454z"/>
</g>
</svg>
