<?xml version="1.0" encoding="utf-8"?>
<!-- Generator: Adobe Illustrator 16.0.0, SVG Export Plug-In . SVG Version: 6.00 Build 0)  -->
<!DOCTYPE svg PUBLIC "-//W3C//DTD SVG 1.1//EN" "http://www.w3.org/Graphics/SVG/1.1/DTD/svg11.dtd">
<svg version="1.1" id="Layer_1" xmlns="http://www.w3.org/2000/svg" xmlns:xlink="http://www.w3.org/1999/xlink" x="0px" y="0px"
	 width="50px" height="50px" viewBox="0 0 50 50" enable-background="new 0 0 50 50" xml:space="preserve">
<rect fill-rule="evenodd" clip-rule="evenodd" fill="#FFFFFF" width="50" height="50"/>
<path fill-rule="evenodd" clip-rule="evenodd" fill="#FD4814" d="M40.705,22.933c-0.05-0.394-0.177-0.493-0.558-0.492
	c-2.725,0.015-5.448,0.008-8.169,0.006c-0.174,0-0.344-0.016-0.609-0.029c2.223-2.237,4.369-4.397,6.507-6.546
	c-0.807-1.265-2.695-3.132-3.711-3.668c-2.144,2.139-4.298,4.287-6.451,6.434c-0.035-0.021-0.072-0.041-0.107-0.062
	c0-0.162,0-0.323,0-0.485c0-2.739-0.007-5.478,0.006-8.215c0-0.342-0.092-0.455-0.445-0.501c-1.435-0.18-2.859-0.177-4.295-0.009
	c-0.442,0.051-0.497,0.225-0.495,0.597c0.013,2.708,0.007,5.417,0.007,8.125c0,0.168,0,0.339,0,0.51
	c-0.054,0.023-0.106,0.048-0.161,0.07c-2.145-2.162-4.289-4.324-6.441-6.492c-1.45,1.045-2.665,2.247-3.761,3.791
	c2.152,2.167,4.292,4.322,6.439,6.482c-0.136,0-0.313,0-0.49,0c-2.724,0-5.446,0-8.17,0c-0.223,0-0.451-0.043-0.489,0.307
	c-0.077,0.731-0.134,1.46-0.147,2.191c0,0.703,0.043,1.415,0.131,2.119c0.051,0.395,0.179,0.493,0.559,0.491
	c2.722-0.015,5.446-0.008,8.168-0.007c0.172,0,0.344,0.018,0.609,0.03c-2.224,2.237-4.37,4.397-6.506,6.548
	c0.805,1.264,2.694,3.131,3.709,3.666c2.145-2.139,4.299-4.286,6.453-6.435c0.036,0.022,0.072,0.043,0.108,0.063
	c0,0.162,0,0.324,0,0.485c0,2.739,0.005,5.478-0.006,8.216c-0.002,0.341,0.09,0.455,0.446,0.5c1.434,0.182,2.858,0.178,4.293,0.01
	c0.442-0.053,0.498-0.225,0.494-0.597c-0.013-2.709-0.006-5.417-0.006-8.126c0-0.169,0-0.339,0-0.508
	c0.056-0.025,0.107-0.048,0.16-0.072c2.147,2.161,4.291,4.323,6.441,6.492c1.452-1.046,2.665-2.247,3.763-3.791
	c-2.153-2.165-4.294-4.32-6.441-6.481c0.139,0,0.315,0,0.492,0c2.725-0.001,5.444,0,8.168-0.001c0.224,0,0.453,0.043,0.488-0.307
	c0.079-0.73,0.135-1.468,0.148-2.197C40.836,24.343,40.794,23.64,40.705,22.933z M28.515,27.963
	c-0.069,0.203-0.295,0.429-0.496,0.497c-1.998,0.663-4.004,0.655-6.012,0.022c-0.292-0.091-0.448-0.25-0.538-0.537
	c-0.314-0.997-0.473-1.992-0.473-2.986h-0.013c0.008-0.976,0.175-1.951,0.503-2.922c0.068-0.202,0.294-0.43,0.496-0.497
	c1.998-0.663,4.004-0.654,6.011-0.023c0.291,0.092,0.449,0.252,0.537,0.538c0.314,0.996,0.476,1.992,0.476,2.986h0.013
	C29.009,26.016,28.842,26.991,28.515,27.963z"/>
</svg>
